<svg width="20" height="16" viewBox="0 0 20 16" fill="none" xmlns="http://www.w3.org/2000/svg">
<path d="M17.7679 0.774689H2.23151C1.0576 0.774689 0.102539 1.72975 0.102539 2.90366V13.3711C0.102539 14.545 1.0576 15.5 2.23151 15.5H17.7679C18.9418 15.5 19.8969 14.545 19.8969 13.3711V2.90366C19.8969 1.72975 18.9419 0.774689 17.7679 0.774689ZM18.4776 13.3711C18.4776 13.7624 18.1592 14.0807 17.7679 14.0807H2.23151C1.84022 14.0807 1.52185 13.7624 1.52185 13.3711V2.90366C1.52185 2.51237 1.84022 2.194 2.23151 2.194H17.7679C18.1592 2.194 18.4776 2.51237 18.4776 2.90366V13.3711ZM4.41117 7.5798H5.45033C6.42859 7.5798 7.22447 6.78392 7.22447 5.80566V4.7665C7.22447 3.78824 6.42859 2.99236 5.45033 2.99236H4.41117C3.43291 2.99236 2.63703 3.78824 2.63703 4.7665V5.80566C2.63703 6.78388 3.43291 7.5798 4.41117 7.5798ZM4.05634 4.7665C4.05634 4.57086 4.21553 4.41167 4.41117 4.41167H5.45033C5.64597 4.41167 5.80516 4.57086 5.80516 4.7665V5.80566C5.80516 6.0013 5.64597 6.16049 5.45033 6.16049H4.41117C4.21553 6.16049 4.05634 6.0013 4.05634 5.80566V4.7665ZM2.63703 9.40459C2.63703 9.01264 2.95478 8.69493 3.34669 8.69493H4.29714C4.68904 8.69493 5.00679 9.01264 5.00679 9.40459C5.00679 9.79654 4.68904 10.1142 4.29714 10.1142H3.34669C2.95478 10.1142 2.63703 9.79654 2.63703 9.40459ZM16.412 9.40459C16.412 9.79654 16.0942 10.1142 15.7023 10.1142H14.7519C14.36 10.1142 14.0422 9.79654 14.0422 9.40459C14.0422 9.01264 14.36 8.69493 14.7519 8.69493H15.7023C16.0942 8.69493 16.412 9.01264 16.412 9.40459ZM9.12532 9.40459C9.12532 9.79654 8.80758 10.1142 8.41567 10.1142H6.51481C6.1229 10.1142 5.80516 9.79654 5.80516 9.40459C5.80516 9.01264 6.1229 8.69493 6.51481 8.69493H8.41567C8.80758 8.69493 9.12532 9.01264 9.12532 9.40459ZM13.2439 9.40459C13.2439 9.79654 12.9261 10.1142 12.5342 10.1142H10.6333C10.2414 10.1142 9.92369 9.79654 9.92369 9.40459C9.92369 9.01264 10.2414 8.69493 10.6333 8.69493H12.5342C12.9262 8.69493 13.2439 9.01264 13.2439 9.40459ZM8.2937 11.9391C8.2937 12.331 7.97595 12.6487 7.58404 12.6487H3.34669C2.95478 12.6487 2.63703 12.331 2.63703 11.9391C2.63703 11.5471 2.95478 11.2294 3.34669 11.2294H7.58404C7.97595 11.2294 8.2937 11.5471 8.2937 11.9391Z" fill="#071A30"/>
</svg>
