<svg width="20" height="18" viewBox="0 0 20 18" fill="none" xmlns="http://www.w3.org/2000/svg">
<path d="M20 10.8314C20 13.0253 19.3018 15.1078 17.9808 16.8542C17.7202 17.1989 17.2301 17.2657 16.8864 17.0058C16.5424 16.7455 16.4745 16.2556 16.7346 15.9115C17.8487 14.4388 18.4375 12.6821 18.4375 10.8314C18.4375 6.16797 14.6608 2.39844 10 2.39844C5.336 2.39844 1.5625 6.17087 1.5625 10.8314C1.5625 12.6821 2.15134 14.4388 3.26523 15.9115C3.52554 16.2556 3.45764 16.7455 3.11356 17.0058C2.76932 17.2661 2.27951 17.1982 2.01904 16.8542C0.698242 15.1078 0 13.0253 0 10.8314C0 5.30402 4.47571 0.835938 10 0.835938C15.5273 0.835938 20 5.30707 20 10.8314ZM14.9501 6.12631C15.2551 6.43134 15.2551 6.92603 14.9501 7.23105L12.4036 9.77759C12.6132 10.1641 12.7325 10.6066 12.7325 11.0763C12.7325 12.5831 11.5067 13.8088 10 13.8088C8.49319 13.8088 7.26746 12.5831 7.26746 11.0763C7.26746 9.56961 8.49319 8.34372 10 8.34372C10.4698 8.34372 10.9122 8.46304 11.2987 8.6727L13.8452 6.12616C14.1504 5.82114 14.6449 5.82114 14.9501 6.12631ZM11.17 11.0764C11.17 10.4313 10.6451 9.90637 10 9.90637C9.35486 9.90637 8.82996 10.4313 8.82996 11.0764C8.82996 11.7216 9.35486 12.2465 10 12.2465C10.6451 12.2465 11.17 11.7216 11.17 11.0764Z" fill="#071A30"/>
</svg>
