<svg width="18" height="14" viewBox="0 0 18 14" fill="none" xmlns="http://www.w3.org/2000/svg">
<path opacity="0.3" d="M16.3125 0.249969H1.68751C0.75696 0.249969 0 1.00693 0 1.93748V12.0625C0 12.993 0.75696 13.75 1.68751 13.75H16.3125C17.243 13.75 18 12.993 18 12.0625V1.93748C18 1.00693 17.243 0.249969 16.3125 0.249969ZM16.3125 1.37496C16.3889 1.37496 16.4616 1.39082 16.5281 1.41851L9 7.94315L1.47188 1.41851C1.53834 1.39086 1.61105 1.37496 1.68747 1.37496H16.3125ZM16.3125 12.625H1.68751C1.37715 12.625 1.125 12.3728 1.125 12.0624V2.60708L8.6314 9.11264C8.73743 9.20435 8.86872 9.24997 9 9.24997C9.13128 9.24997 9.26256 9.20439 9.3686 9.11264L16.875 2.60708V12.0625C16.875 12.3728 16.6228 12.625 16.3125 12.625Z" fill="#071A30"/>
</svg>
