<svg width="18" height="20" viewBox="0 0 18 20" fill="none" xmlns="http://www.w3.org/2000/svg">
<path opacity="0.5" fill-rule="evenodd" clip-rule="evenodd" d="M16.8709 5.9637L10.8755 0.777874C9.76005 -0.259291 8.0869 -0.259291 6.97147 0.777874L0.976005 5.9637C0.348573 6.586 0 7.27744 0 8.17632V17.0959C0 18.6863 1.32458 20 2.92802 20H14.9189C16.5224 20 17.847 18.6863 17.847 17.0959L17.9167 8.17632C17.9167 7.27744 17.5681 6.51685 16.8709 5.9637ZM6.20464 18.8245V13.3621C6.20464 12.6015 6.90179 11.9101 7.73836 11.9101H10.1087C10.9452 11.9101 11.6424 12.6015 11.6424 13.3621V18.8245H14.919C15.895 18.8245 16.6618 18.064 16.6618 17.0959L16.7316 8.17631C16.7316 7.62316 16.5224 7.20829 16.1041 6.86257L10.1087 1.6076C9.41152 1.05444 8.43551 1.05444 7.80808 1.6076L1.81262 6.86257C1.39433 7.20829 1.18519 7.62316 1.18519 8.17631V17.0959C1.18519 18.064 1.95205 18.8245 2.92805 18.8245H6.20464ZM10.4572 18.8245V13.3621C10.4572 13.2238 10.3178 13.0855 10.1086 13.0855H7.73832C7.52918 13.0855 7.38975 13.2238 7.38975 13.3621V18.8245H10.4572Z" fill="#071A30"/>
</svg>
