<svg width="28" height="26" viewBox="0 0 28 26" fill="none" xmlns="http://www.w3.org/2000/svg">
<path d="M24.7199 15.0648L24.1457 15.6395L23.6901 15.2145C23.518 15.0546 23.3891 14.8537 23.3152 14.6305L22.9439 13.5362C22.8334 13.1918 22.6426 12.8788 22.3873 12.6226L18.2629 8.49836C17.4775 7.71819 16.416 7.27917 15.3092 7.27668H14.4527L8.01036 0.834152C7.45921 0.308375 6.59228 0.308375 6.04113 0.834152L0.408901 6.46615C-0.134998 7.00983 -0.134998 7.89148 0.408901 8.43516L10.5226 18.5488C11.0658 19.0898 11.9438 19.0898 12.4871 18.5488L13.2255 17.8103C13.9353 19.5694 15.639 20.724 17.536 20.7308H17.6148C17.7394 20.731 17.8585 20.7811 17.9455 20.8701L18.431 21.3553L17.5031 22.2832L20.7835 25.5622L28.001 18.3447L24.7199 15.0648ZM6.69716 1.49018C6.78415 1.40274 6.90217 1.35381 7.02563 1.35381C7.14886 1.35381 7.26689 1.40274 7.35387 1.49018L17.4678 11.6039C17.6465 11.7846 17.6465 12.0755 17.4678 12.256L16.6819 13.0421L13.8741 11.4183C13.0047 10.9202 11.8972 11.2022 11.3716 12.0553L3.75204 4.43508L6.69716 1.49018ZM13.9636 15.7602L13.1286 16.5952L2.36023 5.82688L3.09601 5.09111L11.0957 13.0908C11.1086 13.7335 11.46 14.3216 12.0197 14.6376L13.9636 15.7602ZM11.18 17.8944L1.06629 7.77912C0.979079 7.69214 0.929921 7.57389 0.929921 7.45065C0.929921 7.32742 0.979079 7.20917 1.06629 7.12219L1.70556 6.48292L12.4726 17.2513L11.8297 17.893C11.6491 18.0697 11.3605 18.0697 11.18 17.893V17.8944ZM18.6029 20.2141C18.342 19.9502 17.9861 19.802 17.6148 19.8029H17.536C15.8682 19.7966 14.4074 18.6838 13.9581 17.0777L14.7954 16.2428L15.3554 16.5674C15.7758 17.9334 17.0347 18.868 18.4638 18.875V17.9472C17.388 17.9424 16.4552 17.2019 16.2067 16.1551L16.1605 15.9582L15.4734 15.5611L12.4809 13.835C12.0369 13.5794 11.8843 13.0124 12.1396 12.5684C12.4057 12.1369 12.9614 11.9869 13.4088 12.2255L16.8303 14.2042L18.2282 15.0113L18.6922 14.2078L17.5104 13.5251L18.1204 12.915C18.6614 12.3718 18.6614 11.4938 18.1204 10.9506L15.381 8.21112C16.2155 8.23083 17.0109 8.56949 17.6037 9.15711L21.7286 13.282C21.8813 13.4358 21.9957 13.6234 22.062 13.8298L22.4333 14.9257C22.5557 15.2956 22.769 15.6291 23.054 15.8953L23.4874 16.2985L19.085 20.7006L18.6029 20.2141ZM18.8163 22.2832L24.7199 16.3769L26.6889 18.3447L20.7835 24.2502L18.8163 22.2832Z" fill="#071A30"/>
</svg>
