<svg width="20" height="18" viewBox="0 0 20 18" fill="none" xmlns="http://www.w3.org/2000/svg">
<path d="M18.0292 2.5415C17.9214 1.15026 16.7557 0.0509949 15.3374 0.0509949H2.70086C1.2116 0.0509949 0 1.2626 0 2.75185V15.2481C0 16.7374 1.2116 17.949 2.70086 17.949H17.2992C18.7884 17.949 20 16.7374 20 15.2481V5.14127C20 3.90502 19.1648 2.86087 18.0292 2.5415ZM2.70086 1.31271H15.3374C16.024 1.31271 16.5994 1.79614 16.7422 2.44045H2.70086C2.17208 2.44045 1.67871 2.59379 1.26172 2.85748V2.75185C1.26172 1.95831 1.90732 1.31271 2.70086 1.31271ZM17.2991 16.6873H2.70086C1.90732 16.6873 1.26172 16.0417 1.26172 15.2481V5.14127C1.26172 4.34773 1.90732 3.70212 2.70086 3.70212H17.2992C18.0927 3.70212 18.7383 4.34773 18.7383 5.14127V7.34288H14.7156C13.1215 7.34288 11.8246 8.63981 11.8246 10.2339C11.8246 11.828 13.1215 13.1249 14.7156 13.1249H18.7383V15.2481C18.7383 16.0417 18.0927 16.6873 17.2991 16.6873ZM18.7383 11.8632H14.7156C13.8172 11.8632 13.0863 11.1323 13.0863 10.2339C13.0863 9.33548 13.8172 8.6046 14.7156 8.6046H18.7383V11.8632Z" fill="#071A30"/>
</svg>
