<svg width="28" height="27" viewBox="0 0 28 27" fill="none" xmlns="http://www.w3.org/2000/svg">
<path opacity="0.7" fill-rule="evenodd" clip-rule="evenodd" d="M26.1333 14.3957H26.6C27.3933 14.3957 28 14.9807 28 15.7457C28 16.5107 27.3933 17.0957 26.6 17.0957H26.051L24.7799 21.9559C24.4163 23.2708 23.1668 24.244 21.7221 24.2932L22.3067 25.4208C22.3999 25.6457 22.3067 25.9155 22.1199 26.0057C22.0733 26.0956 22.0267 26.0956 21.9333 26.0956C21.7466 26.0956 21.6067 26.0057 21.5133 25.8256L20.7199 24.2957H7.77006L6.95331 25.8708C6.85998 26.0057 6.71997 26.0956 6.53329 26.0956C6.48669 26.0956 6.39327 26.0956 6.34664 26.0509C6.11336 25.9607 6.0201 25.6907 6.15999 25.4659L6.76675 24.2957H6.39327C4.9 24.2957 3.59331 23.3057 3.21998 21.9106L1.96082 17.0957H1.39995C0.606698 17.0957 0 16.5107 0 15.7457C0 14.9806 0.606698 14.3955 1.39995 14.3955H1.4452C1.65621 13.3577 2.58692 12.5955 3.73332 12.5955C4.15328 12.5955 4.57339 12.7304 4.94669 12.9105C5.32002 12.1907 6.11336 11.6955 7.00003 11.6955C7.74674 11.6955 8.40014 12.0556 8.86669 12.5955C10.0131 12.5955 10.9438 13.3577 11.1548 14.3955H25.2V4.94571C25.2 3.19056 23.7533 1.79574 21.9333 1.79574C20.1835 1.79574 19.2928 3.11292 19.1533 4.54305C20.2193 4.75383 21 5.64694 21 6.74555C21 7.01558 20.8133 7.19568 20.5333 7.19568H16.7999C16.52 7.19568 16.3333 7.01558 16.3333 6.74555C16.3333 5.63465 17.1316 4.73412 18.2161 4.5363C18.3822 2.37229 19.8678 0.89563 21.9333 0.89563C24.2666 0.89563 26.1333 2.69547 26.1333 4.94571V14.3957ZM17.3599 6.29556H20.02C19.8333 5.75564 19.32 5.39545 18.7134 5.39545C18.1066 5.39545 17.5466 5.75564 17.3599 6.29556ZM4.8533 13.9906C4.52676 13.6757 4.15328 13.4959 3.73332 13.4959C3.12657 13.4959 2.61332 13.8557 2.42664 14.3957H10.22C10.0333 13.8557 9.51999 13.4959 8.91332 13.4959H8.77328C8.58663 13.5406 8.35335 13.4506 8.25993 13.2705C8.02665 12.8205 7.56 12.5955 7.04666 12.5955C6.34664 12.5955 5.78667 13.0906 5.64662 13.7658C5.60002 13.9459 5.5066 14.0808 5.31992 14.1254C5.13337 14.1707 4.94669 14.1254 4.8533 13.9906ZM21.6534 23.3956C22.7266 23.3956 23.6599 22.6759 23.94 21.6858L25.06 17.0957H2.94001L4.15328 21.6858C4.43335 22.6759 5.36671 23.3956 6.43996 23.3956H21.6534ZM25.6666 16.1958H26.6C26.88 16.1958 27.0665 16.0157 27.0665 15.7457C27.0665 15.4758 26.88 15.2957 26.6 15.2957H10.7333H1.86666H1.39995C1.12004 15.2957 0.933393 15.4758 0.933393 15.7457C0.933393 16.0157 1.12004 16.1958 1.39995 16.1958H2.33341H25.6666ZM17.2666 8.77073C17.2666 9.04076 17.08 9.22072 16.7999 9.22072C16.52 9.22072 16.3333 9.04076 16.3333 8.77073V8.54553C16.3333 8.2755 16.52 8.09568 16.7999 8.09568C17.08 8.09568 17.2666 8.2755 17.2666 8.54553V8.77073ZM16.7999 11.2906C17.08 11.2906 17.2666 11.0658 17.2666 10.8406V10.3456C17.2666 10.0756 17.08 9.89552 16.7999 9.89552C16.52 9.89552 16.3333 10.0756 16.3333 10.3456V10.8406C16.3333 11.1106 16.52 11.2906 16.7999 11.2906ZM17.2666 12.5957C17.2666 12.8658 17.08 13.0457 16.7999 13.0457C16.52 13.0457 16.3333 12.8658 16.3333 12.5957V12.3707C16.3333 12.1008 16.52 11.9207 16.7999 11.9207C17.08 11.9207 17.2666 12.1008 17.2666 12.3707V12.5957ZM18.6666 9.22072C18.9467 9.22072 19.1333 9.04076 19.1333 8.77073V8.54553C19.1333 8.2755 18.9467 8.09568 18.6666 8.09568C18.3867 8.09568 18.2 8.2755 18.2 8.54553V8.77073C18.2 9.04076 18.3867 9.22072 18.6666 9.22072ZM18.6666 11.2906C18.3867 11.2906 18.2 11.1106 18.2 10.8406V10.3456C18.2 10.0756 18.3867 9.89552 18.6666 9.89552C18.9467 9.89552 19.1333 10.0756 19.1333 10.3456V10.8406C19.1333 11.0657 18.9467 11.2906 18.6666 11.2906ZM18.2 12.5955C18.2 12.8658 18.3867 13.0456 18.6666 13.0456C18.9467 13.0456 19.1333 12.8658 19.1333 12.5955V12.3707C19.1333 12.1008 18.9467 11.9207 18.6666 11.9207C18.3867 11.9207 18.2 12.1008 18.2 12.3707V12.5955ZM21 8.77073C21 9.04076 20.8133 9.22072 20.5333 9.22072C20.2533 9.22072 20.0666 9.04076 20.0666 8.77073V8.54553C20.0666 8.2755 20.2533 8.09568 20.5333 8.09568C20.8133 8.09568 21 8.2755 21 8.54553V8.77073ZM20.0666 10.8406C20.0666 11.1106 20.2533 11.2906 20.5333 11.2906C20.8133 11.2906 21 11.0658 21 10.8406V10.3456C21 10.0756 20.8133 9.89552 20.5333 9.89552C20.2533 9.89552 20.0666 10.0756 20.0666 10.3456V10.8406ZM20.5333 13.0456C20.2533 13.0456 20.0666 12.8658 20.0666 12.5955V12.3707C20.0666 12.1008 20.2533 11.9207 20.5333 11.9207C20.8133 11.9207 20.9999 12.1008 20.9999 12.3707V12.5955C20.9999 12.8658 20.8133 13.0456 20.5333 13.0456Z" fill="#071A30"/>
</svg>
