<svg width="28" height="22" viewBox="0 0 28 22" fill="none" xmlns="http://www.w3.org/2000/svg">
<path opacity="0.7" fill-rule="evenodd" clip-rule="evenodd" d="M25.3751 5.87336V10.4689C26.9021 10.9947 28 12.4184 28 14.089V14.9706C28 16.4769 27.1074 17.7825 25.8125 18.4102V21.3743H24.9375V18.7135C24.66 18.7745 24.3718 18.8076 24.0757 18.8076H3.92427C3.62822 18.8076 3.33993 18.7745 3.06252 18.7135V21.3743H2.18745V18.4102C0.892618 17.7825 0 16.4768 0 14.9704V14.089C0 12.4184 1.09784 10.9947 2.62491 10.4689V5.87336C2.62491 3.09813 4.93387 0.840744 7.77207 0.840744H20.228C23.0661 0.840744 25.3751 3.09813 25.3751 5.87336ZM7.77207 1.69605C5.41632 1.69605 3.50006 3.57022 3.50006 5.87336V9.2722C3.96274 8.76139 4.57409 8.39391 5.25009 8.22159V6.94049C5.25009 5.93578 6.08595 5.11843 7.11344 5.11843H11.2617C12.2892 5.11843 13.125 5.93578 13.125 6.94049V8.11146H14.8751V6.94049C14.8751 5.93578 15.7108 5.11843 16.7384 5.11843H20.8867C21.9141 5.11843 22.7501 5.93578 22.7501 6.94049V8.22159C23.4261 8.39377 24.0373 8.76139 24.5 9.2722V5.87336C24.5 3.57022 22.5835 1.69605 20.2279 1.69605H7.77207ZM24.1504 10.2536C23.6852 9.46619 22.8137 8.96688 21.875 8.96688H6.12497C5.18637 8.96688 4.31475 9.46619 3.8494 10.2536C3.85969 10.2535 3.86997 10.2532 3.88022 10.2529C3.89488 10.2524 3.9095 10.2519 3.92412 10.2519H24.0757C24.0905 10.2519 24.1052 10.2524 24.1199 10.2529C24.1301 10.2532 24.1402 10.2535 24.1504 10.2536ZM6.12497 6.94049V8.11146H12.25V6.94049C12.25 6.4076 11.8067 5.974 11.2617 5.974H7.11344C6.56846 5.974 6.12497 6.4076 6.12497 6.94049ZM15.75 8.11146H21.875V6.94049C21.875 6.4076 21.4316 5.974 20.8867 5.974H16.7384C16.1935 5.974 15.75 6.4076 15.75 6.94049V8.11146ZM3.92412 17.9521H24.0759C25.7571 17.9521 27.1251 16.6143 27.1251 14.9706H27.125V14.089C27.125 12.4451 25.7571 11.1075 24.0757 11.1075H3.92412C2.24289 11.1075 0.874969 12.4451 0.874969 14.089V14.9706C0.874969 16.6143 2.24289 17.9521 3.92412 17.9521ZM23.0192 14.6616H2.82691V15.4515H23.0192V14.6616Z" fill="#071A30"/>
</svg>
