<svg width="40" height="30" viewBox="0 0 40 30" fill="none" xmlns="http://www.w3.org/2000/svg">
<path d="M35.5368 0.549347H4.46399C2.11618 0.549347 0.206055 2.45947 0.206055 4.80728V25.7421C0.206055 28.0899 2.11618 30.0001 4.46399 30.0001H35.5368C37.8846 30.0001 39.7947 28.0899 39.7947 25.7421V4.80728C39.7947 2.45947 37.8847 0.549347 35.5368 0.549347ZM36.9561 25.7421C36.9561 26.5247 36.3194 27.1614 35.5368 27.1614H4.46399C3.68142 27.1614 3.04468 26.5247 3.04468 25.7421V4.80728C3.04468 4.02471 3.68142 3.38797 4.46399 3.38797H35.5368C36.3194 3.38797 36.9561 4.02471 36.9561 4.80728V25.7421ZM8.82332 14.1596H10.9016C12.8582 14.1596 14.4499 12.5678 14.4499 10.6113V8.53297C14.4499 6.57645 12.8582 4.98469 10.9016 4.98469H8.82332C6.8668 4.98469 5.27504 6.57645 5.27504 8.53297V10.6113C5.27504 12.5677 6.8668 14.1596 8.82332 14.1596ZM8.11366 8.53297C8.11366 8.14169 8.43203 7.82332 8.82332 7.82332H10.9016C11.2929 7.82332 11.6113 8.14169 11.6113 8.53297V10.6113C11.6113 11.0026 11.2929 11.3209 10.9016 11.3209H8.82332C8.43203 11.3209 8.11366 11.0026 8.11366 10.6113V8.53297ZM5.27504 17.8091C5.27504 17.0252 5.91053 16.3898 6.69435 16.3898H8.59525C9.37906 16.3898 10.0146 17.0252 10.0146 17.8091C10.0146 18.593 9.37906 19.2285 8.59525 19.2285H6.69435C5.91053 19.2285 5.27504 18.593 5.27504 17.8091ZM32.8249 17.8091C32.8249 18.593 32.1894 19.2285 31.4056 19.2285H29.5047C28.7209 19.2285 28.0854 18.593 28.0854 17.8091C28.0854 17.0252 28.7209 16.3898 29.5047 16.3898H31.4055C32.1894 16.3898 32.8249 17.0252 32.8249 17.8091ZM18.2516 17.8091C18.2516 18.593 17.6161 19.2285 16.8323 19.2285H13.0306C12.2468 19.2285 11.6113 18.593 11.6113 17.8091C11.6113 17.0252 12.2468 16.3898 13.0306 16.3898H16.8323C17.6161 16.3898 18.2516 17.0252 18.2516 17.8091ZM26.4887 17.8091C26.4887 18.593 25.8532 19.2285 25.0694 19.2285H21.2677C20.4838 19.2285 19.8484 18.593 19.8484 17.8091C19.8484 17.0252 20.4838 16.3898 21.2677 16.3898H25.0694C25.8533 16.3898 26.4887 17.0252 26.4887 17.8091ZM16.5884 22.8781C16.5884 23.662 15.9529 24.2974 15.1691 24.2974H6.69435C5.91053 24.2974 5.27504 23.662 5.27504 22.8781C5.27504 22.0942 5.91053 21.4588 6.69435 21.4588H15.1691C15.9529 21.4588 16.5884 22.0942 16.5884 22.8781Z" fill="#754EFF"/>
</svg>
