<svg width="40" height="30" viewBox="0 0 40 30" fill="none" xmlns="http://www.w3.org/2000/svg">
<path d="M35.5368 0.549377H4.46399C2.11618 0.549377 0.206055 2.4595 0.206055 4.80731V25.7422C0.206055 28.09 2.11618 30.0001 4.46399 30.0001H35.5368C37.8846 30.0001 39.7947 28.09 39.7947 25.7422V4.80731C39.7947 2.4595 37.8847 0.549377 35.5368 0.549377ZM36.9561 25.7422C36.9561 26.5247 36.3194 27.1615 35.5368 27.1615H4.46399C3.68142 27.1615 3.04468 26.5247 3.04468 25.7422V4.80731C3.04468 4.02474 3.68142 3.388 4.46399 3.388H35.5368C36.3194 3.388 36.9561 4.02474 36.9561 4.80731V25.7422ZM8.82332 14.1596H10.9016C12.8582 14.1596 14.4499 12.5678 14.4499 10.6113V8.533C14.4499 6.57648 12.8582 4.98472 10.9016 4.98472H8.82332C6.8668 4.98472 5.27504 6.57648 5.27504 8.533V10.6113C5.27504 12.5678 6.8668 14.1596 8.82332 14.1596ZM8.11366 8.533C8.11366 8.14172 8.43203 7.82335 8.82332 7.82335H10.9016C11.2929 7.82335 11.6113 8.14172 11.6113 8.533V10.6113C11.6113 11.0026 11.2929 11.321 10.9016 11.321H8.82332C8.43203 11.321 8.11366 11.0026 8.11366 10.6113V8.533ZM5.27504 17.8092C5.27504 17.0253 5.91053 16.3899 6.69435 16.3899H8.59525C9.37906 16.3899 10.0146 17.0253 10.0146 17.8092C10.0146 18.5931 9.37906 19.2285 8.59525 19.2285H6.69435C5.91053 19.2285 5.27504 18.5931 5.27504 17.8092ZM32.8249 17.8092C32.8249 18.5931 32.1894 19.2285 31.4056 19.2285H29.5047C28.7209 19.2285 28.0854 18.5931 28.0854 17.8092C28.0854 17.0253 28.7209 16.3899 29.5047 16.3899H31.4055C32.1894 16.3899 32.8249 17.0253 32.8249 17.8092ZM18.2516 17.8092C18.2516 18.5931 17.6161 19.2285 16.8323 19.2285H13.0306C12.2468 19.2285 11.6113 18.5931 11.6113 17.8092C11.6113 17.0253 12.2468 16.3899 13.0306 16.3899H16.8323C17.6161 16.3899 18.2516 17.0253 18.2516 17.8092ZM26.4887 17.8092C26.4887 18.5931 25.8532 19.2285 25.0694 19.2285H21.2677C20.4838 19.2285 19.8484 18.5931 19.8484 17.8092C19.8484 17.0253 20.4838 16.3899 21.2677 16.3899H25.0694C25.8533 16.3899 26.4887 17.0253 26.4887 17.8092ZM16.5884 22.8782C16.5884 23.6621 15.9529 24.2975 15.1691 24.2975H6.69435C5.91053 24.2975 5.27504 23.6621 5.27504 22.8782C5.27504 22.0943 5.91053 21.4588 6.69435 21.4588H15.1691C15.9529 21.4588 16.5884 22.0943 16.5884 22.8782Z" fill="#9E9649"/>
</svg>
