<svg width="44" height="44" viewBox="0 0 44 44" fill="none" xmlns="http://www.w3.org/2000/svg">
<path fill-rule="evenodd" clip-rule="evenodd" d="M22 44C34.1503 44 44 34.1503 44 22C44 9.84974 34.1503 0 22 0C9.84974 0 0 9.84974 0 22C0 34.1503 9.84974 44 22 44Z" fill="#0984E3" fill-opacity="0.08"/>
<path d="M31.8222 16.242C31.7111 16.1638 31.5687 16.1447 31.4409 16.1919L28.0441 17.4273C27.623 17.5803 27.2877 17.8887 27.1001 18.2956C27.065 18.3719 27.0419 18.4511 27.0188 18.5303C26.4355 18.3645 25.3515 18.0181 24.2742 17.4631C22.6464 16.6243 21.4027 17.0386 20.3361 17.8522C19.7956 17.8628 19.0507 17.9267 18.3184 17.9913C17.8513 18.0325 17.4099 18.0704 17.0519 18.0922C17.0431 17.8772 16.9928 17.6639 16.9 17.4623C16.7124 17.0554 16.3771 16.747 15.956 16.594L12.5591 15.3586C12.4318 15.3118 12.2885 15.3309 12.1779 15.4086C12.0663 15.4868 12 15.6141 12 15.75V24.0833C12 24.3136 12.1864 24.5 12.4167 24.5H13.6337C14.1513 24.5 14.6329 24.2559 14.9442 23.8616C15.11 23.9877 15.3064 24.1354 15.5124 24.29C15.9986 24.6559 16.5309 25.055 16.7644 25.2507C18.3159 26.5496 20.1812 27.9521 20.5527 28.1963C20.8997 28.4241 21.5247 28.6667 22 28.6667C22.1859 28.6667 22.6543 28.6667 22.9831 28.3888C23.322 28.5218 23.6874 28.5153 24.0272 28.3655C24.3661 28.2162 24.6404 27.9346 24.7999 27.5924C25.1254 27.6591 25.4993 27.6103 25.8383 27.4402C26.1561 27.2811 26.39 27.0402 26.5154 26.7587C26.8164 26.7863 27.1379 26.6883 27.4256 26.4681C27.8366 26.1539 28.0248 25.69 27.9716 25.2322L29.0285 24.6475C29.338 25.0671 29.83 25.3333 30.3662 25.3333H31.5833C31.8136 25.3333 32 25.1469 32 24.9166V16.5834C32 16.4474 31.9337 16.3201 31.8222 16.242ZM14.4141 23.1259C14.2929 23.4494 13.9792 23.6667 13.6337 23.6667H12.8333V16.3449L15.6711 17.3768C15.8818 17.4537 16.0495 17.6079 16.143 17.8114C16.237 18.0148 16.2452 18.2427 16.1666 18.4522L14.4141 23.1259ZM26.9198 25.8062C26.7786 25.9144 26.5809 25.9746 26.493 25.8868C26.4885 25.8823 26.4816 25.8827 26.477 25.8784C26.469 25.871 26.465 25.8611 26.4564 25.8542C26.1586 25.619 24.8239 24.2534 23.9991 23.3932C23.84 23.2268 23.576 23.2207 23.4104 23.3806C23.2439 23.5397 23.2382 23.8034 23.3977 23.9694C23.5913 24.1715 25.1454 25.79 25.7674 26.3561C25.7209 26.5391 25.5513 26.652 25.4652 26.6952C25.1983 26.8291 24.92 26.8067 24.8158 26.7099C24.8127 26.707 24.8081 26.7071 24.8049 26.7043C24.7998 26.6998 24.7975 26.6934 24.7921 26.6891C24.2925 26.29 23.0388 24.9578 22.7552 24.6493C22.5993 24.4796 22.3361 24.4691 22.1664 24.6245C21.9971 24.7804 21.9857 25.0441 22.1416 25.2133C22.1553 25.2281 23.3839 26.5534 24.0739 27.169C24.0061 27.3638 23.8679 27.5252 23.6907 27.6034C23.5598 27.6616 23.3552 27.6914 23.1214 27.5186C22.5231 27.0113 21.3223 25.733 21.0861 25.4802C20.9295 25.3118 20.665 25.3032 20.4973 25.4603C20.3293 25.6174 20.3203 25.8811 20.4774 26.0491C20.7574 26.3488 21.585 27.226 22.2141 27.8199C22.1439 27.8285 22.0701 27.8334 22 27.8334C21.7241 27.8334 21.2501 27.6572 21.0104 27.4997C20.7183 27.3076 18.8839 25.9388 17.2999 24.6123C17.0602 24.4113 16.5134 23.9999 16.0129 23.6239C15.7446 23.4226 15.4975 23.2369 15.3153 23.0968L16.8754 18.936C17.2804 18.9183 17.8202 18.8716 18.3916 18.8212C18.7148 18.7928 19.0383 18.765 19.3474 18.7409C18.8723 19.2287 18.1658 20.1023 18.2589 20.9213C18.3017 21.294 18.5055 21.6045 18.8494 21.8193C19.5301 22.2453 20.7903 21.888 21.3974 21.1414C21.7892 21.0848 22.0541 20.9848 22.343 20.8415C22.8313 21.3005 23.486 21.8401 24.1737 22.4069C25.3708 23.3932 26.7278 24.5114 27.0867 25.1384C27.2864 25.4871 27.0094 25.7378 26.9198 25.8062ZM27.6346 24.4662C27.0795 23.7235 25.8761 22.7299 24.7034 21.7636C23.9218 21.1195 23.1837 20.5111 22.7113 20.0388C22.5811 19.9093 22.3813 19.88 22.2201 19.9659C21.7957 20.1934 21.6045 20.2873 21.1252 20.3354C20.9974 20.3484 20.8827 20.4192 20.8143 20.5278C20.4875 21.0462 19.5793 21.2928 19.2913 21.1129C19.1277 21.0104 19.0959 20.9062 19.087 20.8269C19.0467 20.4725 19.4056 19.8589 20.0009 19.2632C21.4751 17.7889 22.529 17.5005 23.8925 18.2036C25.188 18.8715 26.4665 19.2492 27.0032 19.3918C27.0188 19.4543 27.03 19.5173 27.0529 19.5785L28.6707 23.893L27.6346 24.4662ZM31.1667 24.5H30.3663C30.0208 24.5 29.7071 24.2827 29.5859 23.9592L27.8333 19.286C27.7548 19.076 27.7629 18.8482 27.8569 18.6447C27.9505 18.4413 28.1182 18.287 28.3289 18.2101L31.1666 17.1782V24.5H31.1667Z" fill="#0984E3"/>
</svg>
