<svg width="56" height="56" viewBox="0 0 56 56" fill="none" xmlns="http://www.w3.org/2000/svg">
<path d="M44.4401 52.7188V10.7043H40.0662V3.598H29.6404V0H26.3591V3.598H15.9333V10.7043H11.5594V52.7188H5.60938V56H50.3901V52.7188H44.4401ZM19.2145 6.87925H36.785V10.7043H19.2145V6.87925ZM34.5964 52.7188H29.6404V40.7281H34.5964V52.7188ZM26.3591 52.7188H21.4031V40.7281H26.3591V52.7188ZM37.8776 52.7188V37.4468H18.1219V52.7188H14.8406V13.9856H41.1589V52.7188H37.8776Z" fill="#E77B7E"/>
<path d="M18.1221 17.3036H21.4033V20.5849H18.1221V17.3036Z" fill="#E77B7E"/>
<path d="M34.5967 17.3036H37.8779V20.5849H34.5967V17.3036Z" fill="#E77B7E"/>
<path d="M26.3594 17.3036H29.6406V20.5849H26.3594V17.3036Z" fill="#E77B7E"/>
<path d="M18.1221 23.9029H21.4033V27.1841H18.1221V23.9029Z" fill="#E77B7E"/>
<path d="M34.5967 23.9029H37.8779V27.1841H34.5967V23.9029Z" fill="#E77B7E"/>
<path d="M26.3594 23.9029H29.6406V27.1841H26.3594V23.9029Z" fill="#E77B7E"/>
<path d="M18.1221 30.5023H21.4033V33.7835H18.1221V30.5023Z" fill="#E77B7E"/>
<path d="M34.5967 30.5023H37.8779V33.7835H34.5967V30.5023Z" fill="#E77B7E"/>
<path d="M26.3594 30.5023H29.6406V33.7835H26.3594V30.5023Z" fill="#E77B7E"/>
</svg>
