<svg width="37" height="37" viewBox="0 0 37 37" fill="none" xmlns="http://www.w3.org/2000/svg">
<path d="M34.5333 35.7659V12.3325C34.5333 12.0495 34.3406 11.8029 34.066 11.7342L22.2 8.76744V5.54921C22.2 5.26978 22.0121 5.02559 21.7423 4.95332L3.24232 0.0199877C3.05744 -0.0293938 2.85961 0.0100512 2.70785 0.126881C2.55579 0.243409 2.46667 0.424073 2.46667 0.615878V35.7659H0V36.9992H37V35.7659H34.5333ZM3.7 1.41742L20.9667 6.02135V35.7659H17.8833V28.9825C17.8833 28.642 17.6072 28.3659 17.2667 28.3659H7.4C7.05945 28.3659 6.78333 28.642 6.78333 28.9825V35.7659H3.7V1.41742ZM8.01667 29.5992H11.7167V35.7659H8.01667V29.5992ZM12.95 35.7659V29.5992H16.65V35.7659H12.95ZM25.9 35.7659V30.8325H29.6V35.7659H25.9ZM30.8333 35.7659V30.2159C30.8333 29.8753 30.5572 29.5992 30.2167 29.5992H25.2833C24.9428 29.5992 24.6667 29.8753 24.6667 30.2159V35.7659H22.2V10.039L33.3 12.814V35.7659H30.8333Z" fill="#071A30"/>
</svg>
