<svg width="50" height="50" viewBox="0 0 50 50" fill="none" xmlns="http://www.w3.org/2000/svg">
<g clip-path="url(#clip0)">
<path d="M41.8289 31.1802C43.9182 28.0071 45.1363 24.2119 45.1363 20.1366C45.1363 9.0332 36.1027 0 24.9992 0C13.8958 0 4.86259 9.0332 4.86259 20.1366C4.86259 24.2119 6.08063 28.0071 8.16956 31.1802L0.292969 42.6674L9.30595 40.987L10.9867 50L18.4147 39.1666C20.4792 39.883 22.6944 40.2733 24.9992 40.2733C27.3045 40.2733 29.5197 39.883 31.5838 39.1666L39.0121 50L40.6925 40.987L49.7055 42.6674L41.8289 31.1802ZM12.5793 42.466L11.6627 37.5496L6.74667 38.4666L10.0639 33.6285C11.6528 35.3855 13.5468 36.861 15.6609 37.9726L12.5793 42.466ZM7.80945 20.1366C7.80945 10.6583 15.5209 2.94685 24.9992 2.94685C34.478 2.94685 42.1894 10.6583 42.1894 20.1366C42.1894 29.6154 34.478 37.3268 24.9992 37.3268C15.5209 37.3268 7.80945 29.6154 7.80945 20.1366ZM38.3358 37.5496L37.4191 42.466L34.338 37.9726C36.4521 36.861 38.3461 35.3855 39.9349 33.6285L43.2522 38.4663L38.3358 37.5496Z" fill="#F09E70"/>
<path d="M21.41 24.559L16.6187 19.7681L14.5352 21.8517L21.41 28.7266L35.4645 14.6725L33.3809 12.5889L21.41 24.559Z" fill="#F09E70"/>
</g>
<defs>
<clipPath id="clip0">
<rect width="50" height="50" fill="white"/>
</clipPath>
</defs>
</svg>
