<svg width="48" height="48" viewBox="0 0 48 48" fill="none" xmlns="http://www.w3.org/2000/svg">
<path d="M42.8284 15.0626H39.6449L29.1332 4.5509C28.8256 1.99109 26.6415 0 24 0C21.3585 0 19.1748 1.99109 18.8668 4.5509L8.3551 15.0626H5.172C2.31995 15.0626 0 17.3826 0 20.2346V42.8284C0 45.6801 2.31995 48 5.172 48H42.8284C45.6801 48 48 45.6801 48 42.8284V20.2346C48 17.3826 45.6801 15.0626 42.8284 15.0626ZM24 2.8125C25.3008 2.8125 26.3591 3.87085 26.3595 5.17163V5.172C26.3591 6.47314 25.3008 7.53149 24 7.53149C22.6989 7.53149 21.6409 6.47278 21.6409 5.172C21.6409 3.87085 22.6989 2.8125 24 2.8125ZM19.5652 7.82959C20.4708 9.33472 22.1195 10.344 24 10.344C25.8805 10.344 27.5295 9.33472 28.4348 7.82959L35.6675 15.0626H12.3325L19.5652 7.82959ZM45.1875 42.8284C45.1875 44.1292 44.1292 45.1875 42.8284 45.1875H5.172C3.87085 45.1875 2.8125 44.1292 2.8125 42.8284V20.2346C2.8125 18.9335 3.87085 17.8751 5.172 17.8751H42.8284C44.1292 17.8751 45.1875 18.9335 45.1875 20.2346V42.8284Z" fill="#E5C534"/>
<path d="M8.99312 36.5056C8.90113 36.5261 8.76825 36.5516 8.59449 36.5823C8.43095 36.6129 8.25209 36.6283 8.05788 36.6283C7.66948 36.6283 7.39351 36.5567 7.22997 36.4136C7.07666 36.2705 7 36.0303 7 35.6931V27.9966C7 27.8024 7.05111 27.6542 7.15332 27.5519C7.25553 27.4497 7.39862 27.368 7.5826 27.3066C7.90968 27.1942 8.29297 27.1175 8.73248 27.0767C9.18221 27.0256 9.64216 27 10.1123 27C11.4615 27 12.4734 27.2811 13.148 27.8432C13.8226 28.3952 14.1599 29.1618 14.1599 30.143C14.1599 30.7869 13.9912 31.3491 13.6539 31.8295C13.3166 32.2996 12.8516 32.6625 12.2588 32.918C12.7085 33.5006 13.1378 34.0577 13.5466 34.5892C13.9657 35.1104 14.2774 35.5193 14.4818 35.8157C14.4001 36.0815 14.257 36.291 14.0526 36.4443C13.8481 36.5874 13.6233 36.6589 13.378 36.6589C13.0611 36.6589 12.8158 36.5874 12.6421 36.4443C12.4785 36.3012 12.315 36.107 12.1514 35.8617L10.419 33.2706H8.99312V36.5056ZM10.2196 31.7068C10.8023 31.7068 11.2673 31.5791 11.6148 31.3235C11.9726 31.068 12.1514 30.6796 12.1514 30.1583C12.1514 29.126 11.4615 28.6098 10.0817 28.6098C9.87724 28.6098 9.67793 28.62 9.48373 28.6405C9.29975 28.6609 9.12599 28.6814 8.96245 28.7018V31.7068H10.2196Z" fill="#E5C534"/>
<path d="M17.2359 36.5516C16.9088 36.5516 16.6482 36.4545 16.454 36.2603C16.27 36.0661 16.178 35.8055 16.178 35.4784V28.2725C16.178 27.9455 16.27 27.6899 16.454 27.5059C16.6482 27.3117 16.9088 27.2146 17.2359 27.2146H22.3107C22.3618 27.2964 22.4078 27.4037 22.4487 27.5366C22.4896 27.6695 22.51 27.8177 22.51 27.9812C22.51 28.247 22.4487 28.4514 22.326 28.5945C22.2034 28.7376 22.0347 28.8091 21.8201 28.8091H18.1098V30.9862H21.8507C21.9019 31.068 21.9478 31.1753 21.9887 31.3082C22.0398 31.4308 22.0654 31.5739 22.0654 31.7375C22.0654 32.2894 21.8303 32.5654 21.3601 32.5654H18.1098V34.9418H22.372C22.4231 35.0236 22.4691 35.136 22.51 35.2791C22.5611 35.412 22.5867 35.5602 22.5867 35.7237C22.5867 36.2757 22.3516 36.5516 21.8814 36.5516H17.2359Z" fill="#E5C534"/>
<path d="M25.4849 36.6283C25.1068 36.6283 24.841 36.5618 24.6877 36.429C24.5344 36.2859 24.4577 36.0508 24.4577 35.7237V27.5519C24.5702 27.4088 24.7337 27.2964 24.9483 27.2146C25.1732 27.1329 25.4185 27.092 25.6843 27.092C26.0011 27.092 26.2822 27.1482 26.5275 27.2606C26.783 27.3731 27.0079 27.5979 27.2021 27.9352L29.4099 31.9061C29.6143 32.2741 29.8085 32.6574 29.9925 33.056C30.1867 33.4444 30.3553 33.8021 30.4984 34.1292L30.5597 34.1139C30.5086 33.5108 30.4728 32.9282 30.4524 32.3661C30.4422 31.7937 30.4371 31.2315 30.4371 30.6796V27.1993C30.5188 27.1789 30.6415 27.1584 30.805 27.138C30.9788 27.1073 31.1525 27.092 31.3263 27.092C31.7045 27.092 31.9702 27.1635 32.1236 27.3066C32.2871 27.4395 32.3689 27.6695 32.3689 27.9966V36.2757C32.2564 36.3881 32.0929 36.475 31.8783 36.5363C31.6738 36.5976 31.4285 36.6283 31.1423 36.6283C30.8357 36.6283 30.5546 36.5772 30.2991 36.475C30.0538 36.3625 29.834 36.1377 29.6398 35.8004L27.4321 31.8295C27.2276 31.4717 27.0283 31.0936 26.8341 30.6949C26.6502 30.2861 26.4866 29.9181 26.3435 29.5911L26.2515 29.6064C26.3026 30.1685 26.3333 30.746 26.3435 31.3389C26.364 31.9317 26.3742 32.4938 26.3742 33.0253V36.5056C26.2924 36.5261 26.1698 36.5516 26.0062 36.5823C25.8427 36.6129 25.6689 36.6283 25.4849 36.6283Z" fill="#E5C534"/>
<path d="M41.2754 27.2146C41.3265 27.2964 41.3725 27.4088 41.4133 27.5519C41.4644 27.6848 41.49 27.833 41.49 27.9966C41.49 28.2725 41.4236 28.4821 41.2907 28.6252C41.168 28.7683 40.9943 28.8398 40.7694 28.8398H38.6536V36.5056C38.5719 36.5261 38.4441 36.5516 38.2704 36.5823C38.0966 36.6129 37.9177 36.6283 37.7337 36.6283C37.3453 36.6283 37.0694 36.5567 36.9058 36.4136C36.7423 36.2705 36.6605 36.0303 36.6605 35.6931V28.8398H34.0848C34.0337 28.7478 33.9826 28.6354 33.9315 28.5025C33.8906 28.3696 33.8702 28.2214 33.8702 28.0579C33.8702 27.7717 33.9315 27.5622 34.0541 27.4293C34.187 27.2862 34.3659 27.2146 34.5908 27.2146H41.2754Z" fill="#E5C534"/>
</svg>
