<svg width="48" height="48" viewBox="0 0 48 48" fill="none" xmlns="http://www.w3.org/2000/svg">
<path d="M42.8284 15.0626H39.6449L29.1332 4.5509C28.8256 1.99109 26.6415 0 24 0C21.3585 0 19.1748 1.99109 18.8668 4.5509L8.3551 15.0626H5.172C2.31995 15.0626 0 17.3826 0 20.2346V42.8284C0 45.6801 2.31995 48 5.172 48H42.8284C45.6801 48 48 45.6801 48 42.8284V20.2346C48 17.3826 45.6801 15.0626 42.8284 15.0626ZM24 2.8125C25.3008 2.8125 26.3591 3.87085 26.3595 5.17163V5.172C26.3591 6.47314 25.3008 7.53149 24 7.53149C22.6989 7.53149 21.6409 6.47278 21.6409 5.172C21.6409 3.87085 22.6989 2.8125 24 2.8125ZM19.5652 7.82959C20.4708 9.33472 22.1195 10.344 24 10.344C25.8805 10.344 27.5295 9.33472 28.4348 7.82959L35.6675 15.0626H12.3325L19.5652 7.82959ZM45.1875 42.8284C45.1875 44.1292 44.1292 45.1875 42.8284 45.1875H5.172C3.87085 45.1875 2.8125 44.1292 2.8125 42.8284V20.2346C2.8125 18.9335 3.87085 17.8751 5.172 17.8751H42.8284C44.1292 17.8751 45.1875 18.9335 45.1875 20.2346V42.8284Z" fill="#7760EC"/>
<path d="M10.6315 28.7596C10.6315 28.0367 11.2493 27.5999 12.334 27.5999C13.5992 27.5999 13.9457 28.1722 14.4126 28.1722C14.955 28.1722 15.1959 27.4794 15.1959 27.1329C15.1959 26.1383 13.2224 25.9277 12.334 25.9277C10.6018 25.9277 8.67334 26.696 8.67334 28.9406C8.67334 32.5104 13.5088 31.8175 13.5088 34.077C13.5088 34.9808 12.7255 35.3877 11.8217 35.3877C10.2854 35.3877 9.87854 34.2275 9.26111 34.2275C8.79419 34.2275 8.40234 34.8604 8.40234 35.2822C8.40234 36.1556 9.90857 37.1499 11.8817 37.1499C13.9607 37.1499 15.4673 36.0355 15.4673 33.8815C15.4673 29.9795 10.6315 30.6273 10.6315 28.7596Z" fill="#7760EC"/>
<path d="M21.4919 26.5756C21.3564 26.1237 20.7991 25.9127 20.2267 25.9127C19.6693 25.9127 19.1119 26.1237 18.9764 26.5756L16.0691 36.0502C16.0541 36.1106 16.0391 36.1707 16.0391 36.2011C16.0391 36.683 16.7469 37.0144 17.2743 37.0144C17.6057 37.0144 17.8617 36.9089 17.9371 36.6229L18.5092 34.6194H21.9589L22.5313 36.6229C22.6067 36.9089 22.8627 37.0144 23.1941 37.0144C23.7214 37.0144 24.4293 36.6676 24.4293 36.2011C24.4293 36.1556 24.4143 36.1106 24.3993 36.0502L21.4919 26.5756ZM18.916 33.0828L20.2267 28.4583L21.537 33.0828H18.916Z" fill="#7760EC"/>
<path d="M31.1022 35.2972H27.4269V26.6056C27.4269 26.1837 26.9299 26.0028 26.4476 26.0028C25.9507 26.0028 25.4688 26.1837 25.4688 26.6056V36.397C25.4688 36.8035 25.8906 37.0144 26.3275 37.0144H31.1025C31.494 37.0144 31.6899 36.5775 31.6899 36.1556C31.6899 35.7191 31.494 35.2972 31.1022 35.2972Z" fill="#7760EC"/>
<path d="M38.9796 27.7203C39.3715 27.7203 39.5974 27.3135 39.5974 26.8466C39.5974 26.4401 39.4015 26.0032 38.9796 26.0032H33.6172C33.1803 26.0032 32.7588 26.2137 32.7588 26.6206V36.397C32.7588 36.8035 33.1803 37.0144 33.6172 37.0144H38.9796C39.4015 37.0144 39.5974 36.5775 39.5974 36.1707C39.5974 35.7037 39.3715 35.2972 38.9796 35.2972H34.7169V32.2694H37.0065C37.4283 32.2694 37.6239 31.8625 37.6239 31.5165C37.6239 31.1096 37.3979 30.7332 37.0065 30.7332H34.7169V27.7203H38.9796Z" fill="#7760EC"/>
</svg>
