<svg width="142" height="96" viewBox="0 0 142 96" fill="none" xmlns="http://www.w3.org/2000/svg">
<circle opacity="0.05" cx="71" cy="48" r="48" fill="#071A30"/>
<g clip-path="url(#clip0)">
<path d="M90.9333 69.4658V40.3324C90.9333 39.9806 90.6937 39.674 90.3523 39.5886L75.6 35.9001V31.8991C75.6 31.5517 75.3664 31.2481 75.031 31.1583L52.031 25.0249C51.8011 24.9635 51.5552 25.0126 51.3665 25.1578C51.1775 25.3027 51.0667 25.5273 51.0667 25.7658V69.4658H48V70.9991H94V69.4658H90.9333ZM52.6 26.7623L74.0667 32.4861V69.4658H70.2333V61.0324C70.2333 60.6091 69.8901 60.2658 69.4667 60.2658H57.2C56.7766 60.2658 56.4333 60.6091 56.4333 61.0324V69.4658H52.6V26.7623ZM57.9667 61.7991H62.5667V69.4658H57.9667V61.7991ZM64.1 69.4658V61.7991H68.7V69.4658H64.1ZM80.2 69.4658V63.3324H84.8V69.4658H80.2ZM86.3333 69.4658V62.5658C86.3333 62.1424 85.9901 61.7991 85.5667 61.7991H79.4333C79.0099 61.7991 78.6667 62.1424 78.6667 62.5658V69.4658H75.6V37.481L89.4 40.931V69.4658H86.3333Z" fill="#05408E"/>
<path d="M57.9666 57.2001H61.0333C61.4567 57.2001 61.8 56.8568 61.8 56.4334V53.3668C61.8 52.9434 61.4567 52.6001 61.0333 52.6001H57.9666C57.5432 52.6001 57.2 52.9434 57.2 53.3668V56.4334C57.2 56.8568 57.5432 57.2001 57.9666 57.2001ZM58.7333 54.1334H60.2666V55.6668H58.7333V54.1334Z" fill="#05408E"/>
<path d="M65.6334 57.2001H68.7C69.1234 57.2001 69.4667 56.8568 69.4667 56.4334V53.3668C69.4667 52.9434 69.1234 52.6001 68.7 52.6001H65.6334C65.21 52.6001 64.8667 52.9434 64.8667 53.3668V56.4334C64.8667 56.8568 65.21 57.2001 65.6334 57.2001ZM66.4 54.1334H67.9334V55.6668H66.4V54.1334Z" fill="#05408E"/>
<path d="M80.9666 54.1333H77.9C77.4766 54.1333 77.1333 54.4766 77.1333 54.9V57.9666C77.1333 58.39 77.4766 58.7333 77.9 58.7333H80.9666C81.39 58.7333 81.7333 58.39 81.7333 57.9666V54.9C81.7333 54.4766 81.39 54.1333 80.9666 54.1333ZM80.2 57.2H78.6666V55.6666H80.2V57.2Z" fill="#05408E"/>
<path d="M87.0999 54.1333H84.0333C83.6099 54.1333 83.2666 54.4766 83.2666 54.9V57.9666C83.2666 58.39 83.6099 58.7333 84.0333 58.7333H87.0999C87.5233 58.7333 87.8666 58.39 87.8666 57.9666V54.9C87.8666 54.4766 87.5233 54.1333 87.0999 54.1333ZM86.3333 57.2H84.7999V55.6666H86.3333V57.2Z" fill="#05408E"/>
<path d="M80.9666 48H77.9C77.4766 48 77.1333 48.3433 77.1333 48.7667V51.8333C77.1333 52.2567 77.4766 52.6 77.9 52.6H80.9666C81.39 52.6 81.7333 52.2567 81.7333 51.8333V48.7667C81.7333 48.3433 81.39 48 80.9666 48ZM80.2 51.0667H78.6666V49.5333H80.2V51.0667Z" fill="#05408E"/>
<path d="M87.0999 48H84.0333C83.6099 48 83.2666 48.3433 83.2666 48.7667V51.8333C83.2666 52.2567 83.6099 52.6 84.0333 52.6H87.0999C87.5233 52.6 87.8666 52.2567 87.8666 51.8333V48.7667C87.8666 48.3433 87.5233 48 87.0999 48ZM86.3333 51.0667H84.7999V49.5333H86.3333V51.0667Z" fill="#05408E"/>
<path d="M80.9666 41.8667H77.9C77.4766 41.8667 77.1333 42.21 77.1333 42.6334V45.7C77.1333 46.1234 77.4766 46.4667 77.9 46.4667H80.9666C81.39 46.4667 81.7333 46.1234 81.7333 45.7V42.6334C81.7333 42.21 81.39 41.8667 80.9666 41.8667ZM80.2 44.9334H78.6666V43.4H80.2V44.9334Z" fill="#05408E"/>
<path d="M87.0999 41.8667H84.0333C83.6099 41.8667 83.2666 42.21 83.2666 42.6334V45.7C83.2666 46.1234 83.6099 46.4667 84.0333 46.4667H87.0999C87.5233 46.4667 87.8666 46.1234 87.8666 45.7V42.6334C87.8666 42.21 87.5233 41.8667 87.0999 41.8667ZM86.3333 44.9334H84.7999V43.4H86.3333V44.9334Z" fill="#05408E"/>
<path d="M57.9666 51.0668H61.0333C61.4567 51.0668 61.8 50.7235 61.8 50.3001V47.2335C61.8 46.8101 61.4567 46.4668 61.0333 46.4668H57.9666C57.5432 46.4668 57.2 46.8101 57.2 47.2335V50.3001C57.2 50.7235 57.5432 51.0668 57.9666 51.0668ZM58.7333 48.0001H60.2666V49.5335H58.7333V48.0001Z" fill="#05408E"/>
<path d="M65.6334 51.0668H68.7C69.1234 51.0668 69.4667 50.7235 69.4667 50.3001V47.2335C69.4667 46.8101 69.1234 46.4668 68.7 46.4668H65.6334C65.21 46.4668 64.8667 46.8101 64.8667 47.2335V50.3001C64.8667 50.7235 65.21 51.0668 65.6334 51.0668ZM66.4 48.0001H67.9334V49.5335H66.4V48.0001Z" fill="#05408E"/>
<path d="M57.9666 44.9335H61.0333C61.4567 44.9335 61.8 44.5902 61.8 44.1668V41.1002C61.8 40.6768 61.4567 40.3335 61.0333 40.3335H57.9666C57.5432 40.3335 57.2 40.6768 57.2 41.1002V44.1668C57.2 44.5902 57.5432 44.9335 57.9666 44.9335ZM58.7333 41.8668H60.2666V43.4002H58.7333V41.8668Z" fill="#05408E"/>
<path d="M65.6334 44.9335H68.7C69.1234 44.9335 69.4667 44.5902 69.4667 44.1668V41.1002C69.4667 40.6768 69.1234 40.3335 68.7 40.3335H65.6334C65.21 40.3335 64.8667 40.6768 64.8667 41.1002V44.1668C64.8667 44.5902 65.21 44.9335 65.6334 44.9335ZM66.4 41.8668H67.9334V43.4002H66.4V41.8668Z" fill="#05408E"/>
<path d="M57.9666 38.8002H61.0333C61.4567 38.8002 61.8 38.4569 61.8 38.0335V34.9669C61.8 34.5435 61.4567 34.2002 61.0333 34.2002H57.9666C57.5432 34.2002 57.2 34.5435 57.2 34.9669V38.0335C57.2 38.4569 57.5432 38.8002 57.9666 38.8002ZM58.7333 35.7335H60.2666V37.2669H58.7333V35.7335Z" fill="#05408E"/>
<path d="M65.6334 38.8002H68.7C69.1234 38.8002 69.4667 38.4569 69.4667 38.0335V34.9669C69.4667 34.5435 69.1234 34.2002 68.7 34.2002H65.6334C65.21 34.2002 64.8667 34.5435 64.8667 34.9669V38.0335C64.8667 38.4569 65.21 38.8002 65.6334 38.8002ZM66.4 35.7335H67.9334V37.2669H66.4V35.7335Z" fill="#05408E"/>
</g>
<g opacity="0.4">
<path d="M135 40.5625C138.624 40.5625 141.562 37.6244 141.562 34C141.562 30.3756 138.624 27.4375 135 27.4375C131.376 27.4375 128.438 30.3756 128.438 34C128.438 37.6244 131.376 40.5625 135 40.5625Z" stroke="#071A30" stroke-width="0.75"/>
<path d="M137.333 33.3848H132.667C132.344 33.3848 132.083 33.6459 132.083 33.9681C132.083 34.2903 132.344 34.5514 132.667 34.5514H137.333C137.655 34.5514 137.917 34.2903 137.917 33.9681C137.917 33.6459 137.655 33.3848 137.333 33.3848Z" fill="#071A30"/>
<path d="M135.583 36.3013V31.6346C135.583 31.3124 135.322 31.0513 135 31.0513C134.678 31.0513 134.417 31.3124 134.417 31.6346V36.3013C134.417 36.6234 134.678 36.8846 135 36.8846C135.322 36.8846 135.583 36.6234 135.583 36.3013Z" fill="#071A30"/>
</g>
<g opacity="0.4">
<path d="M7 81.5625C10.6244 81.5625 13.5625 78.6244 13.5625 75C13.5625 71.3756 10.6244 68.4375 7 68.4375C3.37563 68.4375 0.4375 71.3756 0.4375 75C0.4375 78.6244 3.37563 81.5625 7 81.5625Z" stroke="#071A30" stroke-width="0.75"/>
<path d="M9.33325 74.3848H4.66659C4.34442 74.3848 4.08325 74.6459 4.08325 74.9681C4.08325 75.2903 4.34442 75.5514 4.66659 75.5514H9.33325C9.65542 75.5514 9.91659 75.2903 9.91659 74.9681C9.91659 74.6459 9.65542 74.3848 9.33325 74.3848Z" fill="#071A30"/>
<path d="M7.58325 77.3013V72.6346C7.58325 72.3124 7.32208 72.0513 6.99992 72.0513C6.67775 72.0513 6.41659 72.3124 6.41659 72.6346V77.3013C6.41659 77.6234 6.67775 77.8846 6.99992 77.8846C7.32208 77.8846 7.58325 77.6234 7.58325 77.3013Z" fill="#071A30"/>
</g>
<defs>
<clipPath id="clip0">
<rect x="48" y="25" width="46" height="46" fill="white"/>
</clipPath>
</defs>
</svg>
