<svg width="44" height="44" viewBox="0 0 44 44" fill="none" xmlns="http://www.w3.org/2000/svg">
<circle cx="22" cy="22" r="22" fill="#05408E"/>
<g clip-path="url(#clip0)">
<path d="M30.0999 21.1H22.9001V13.8999C22.9001 13.4033 22.4968 13 21.9999 13C21.5033 13 21.1 13.4033 21.1 13.8999V21.1H13.8999C13.4033 21.1 13 21.5033 13 21.9999C13 22.4968 13.4033 22.9001 13.8999 22.9001H21.1V30.0999C21.1 30.5968 21.5033 31.0001 21.9999 31.0001C22.4968 31.0001 22.9001 30.5968 22.9001 30.0999V22.9001H30.0999C30.5968 22.9001 31.0001 22.4968 31.0001 21.9999C31.0001 21.5033 30.5968 21.1 30.0999 21.1Z" fill="white"/>
</g>
<defs>
<clipPath id="clip0">
<rect x="13" y="13" width="18" height="18" fill="white"/>
</clipPath>
</defs>
</svg>
