<svg width="150" height="40" viewBox="0 0 150 40" fill="none" xmlns="http://www.w3.org/2000/svg">
<rect width="150" height="40" rx="4" fill="white"/>
<path d="M49.336 11.176C49.336 11.7467 49.2213 12.2453 48.992 12.672C48.7627 13.0933 48.424 13.4213 47.976 13.656C47.5333 13.8853 47 14 46.376 14H44.584V8.36H46.376C47 8.36 47.5333 8.47467 47.976 8.704C48.424 8.928 48.7627 9.25333 48.992 9.68C49.2213 10.1013 49.336 10.6 49.336 11.176ZM46.32 13.344C47.056 13.344 47.6187 13.1547 48.008 12.776C48.3973 12.3973 48.592 11.864 48.592 11.176C48.592 10.488 48.3973 9.95467 48.008 9.576C47.624 9.192 47.0613 9 46.32 9H45.312V13.344H46.32ZM52.3104 9.552C52.7317 9.552 53.1077 9.64267 53.4384 9.824C53.7744 10.0053 54.0357 10.2667 54.2224 10.608C54.4144 10.9493 54.5104 11.3493 54.5104 11.808C54.5104 12.2667 54.4144 12.6667 54.2224 13.008C54.0357 13.344 53.7744 13.6027 53.4384 13.784C53.1077 13.9653 52.7317 14.056 52.3104 14.056C51.889 14.056 51.5104 13.9653 51.1744 13.784C50.8437 13.6027 50.5824 13.344 50.3904 13.008C50.1984 12.6667 50.1024 12.2667 50.1024 11.808C50.1024 11.3493 50.1984 10.9493 50.3904 10.608C50.5824 10.2667 50.8437 10.0053 51.1744 9.824C51.5104 9.64267 51.889 9.552 52.3104 9.552ZM52.3104 10.192C52.049 10.192 51.8064 10.2507 51.5824 10.368C51.3637 10.4853 51.185 10.6667 51.0464 10.912C50.913 11.152 50.8464 11.4507 50.8464 11.808C50.8464 12.16 50.913 12.4587 51.0464 12.704C51.185 12.944 51.3637 13.1227 51.5824 13.24C51.8064 13.3573 52.049 13.416 52.3104 13.416C52.5717 13.416 52.8117 13.3573 53.0304 13.24C53.2544 13.1227 53.433 12.944 53.5664 12.704C53.705 12.4587 53.7744 12.16 53.7744 11.808C53.7744 11.4507 53.705 11.152 53.5664 10.912C53.433 10.6667 53.2544 10.4853 53.0304 10.368C52.8117 10.2507 52.5717 10.192 52.3104 10.192ZM61.491 9.608L60.227 14H59.443L58.235 10.424L57.019 14H56.227L54.979 9.608H55.715L56.651 13.304L57.867 9.608H58.627L59.851 13.296L60.795 9.608H61.491ZM64.4819 9.536C64.9939 9.536 65.4073 9.70133 65.7219 10.032C66.0366 10.3573 66.1939 10.8293 66.1939 11.448V14H65.4659V11.512C65.4659 11.0747 65.3539 10.7387 65.1299 10.504C64.9059 10.2693 64.6019 10.152 64.2179 10.152C63.8179 10.152 63.4979 10.2827 63.2579 10.544C63.0179 10.8 62.8979 11.176 62.8979 11.672V14H62.1699V9.608H62.8979V10.648C63.0099 10.2907 63.2073 10.016 63.4899 9.824C63.7779 9.632 64.1086 9.536 64.4819 9.536ZM68.0386 8.08V14H67.3106V8.08H68.0386ZM71.201 9.552C71.6223 9.552 71.9983 9.64267 72.329 9.824C72.665 10.0053 72.9263 10.2667 73.113 10.608C73.305 10.9493 73.401 11.3493 73.401 11.808C73.401 12.2667 73.305 12.6667 73.113 13.008C72.9263 13.344 72.665 13.6027 72.329 13.784C71.9983 13.9653 71.6223 14.056 71.201 14.056C70.7797 14.056 70.401 13.9653 70.065 13.784C69.7343 13.6027 69.473 13.344 69.281 13.008C69.089 12.6667 68.993 12.2667 68.993 11.808C68.993 11.3493 69.089 10.9493 69.281 10.608C69.473 10.2667 69.7343 10.0053 70.065 9.824C70.401 9.64267 70.7797 9.552 71.201 9.552ZM71.201 10.192C70.9397 10.192 70.697 10.2507 70.473 10.368C70.2543 10.4853 70.0757 10.6667 69.937 10.912C69.8037 11.152 69.737 11.4507 69.737 11.808C69.737 12.16 69.8037 12.4587 69.937 12.704C70.0757 12.944 70.2543 13.1227 70.473 13.24C70.697 13.3573 70.9397 13.416 71.201 13.416C71.4623 13.416 71.7023 13.3573 71.921 13.24C72.145 13.1227 72.3237 12.944 72.457 12.704C72.5957 12.4587 72.665 12.16 72.665 11.808C72.665 11.4507 72.5957 11.152 72.457 10.912C72.3237 10.6667 72.145 10.4853 71.921 10.368C71.7023 10.2507 71.4623 10.192 71.201 10.192ZM76.1496 9.552C76.5763 9.552 76.9363 9.65867 77.2296 9.872C77.5283 10.0853 77.7363 10.3707 77.8536 10.728V9.608H78.5816V14H77.8536V12.88C77.7363 13.2373 77.5283 13.5227 77.2296 13.736C76.9363 13.9493 76.5763 14.056 76.1496 14.056C75.7603 14.056 75.4136 13.9653 75.1096 13.784C74.8056 13.6027 74.5656 13.344 74.3896 13.008C74.219 12.6667 74.1336 12.2667 74.1336 11.808C74.1336 11.3493 74.219 10.9493 74.3896 10.608C74.5656 10.2667 74.8056 10.0053 75.1096 9.824C75.4136 9.64267 75.7603 9.552 76.1496 9.552ZM76.3576 10.2C75.9096 10.2 75.5496 10.344 75.2776 10.632C75.011 10.9147 74.8776 11.3067 74.8776 11.808C74.8776 12.3093 75.011 12.704 75.2776 12.992C75.5496 13.2747 75.9096 13.416 76.3576 13.416C76.6456 13.416 76.9016 13.3493 77.1256 13.216C77.355 13.0827 77.5336 12.896 77.6616 12.656C77.7896 12.4107 77.8536 12.128 77.8536 11.808C77.8536 11.488 77.7896 11.2053 77.6616 10.96C77.5336 10.7147 77.355 10.528 77.1256 10.4C76.9016 10.2667 76.6456 10.2 76.3576 10.2ZM81.5403 9.552C81.9669 9.552 82.3269 9.65867 82.6203 9.872C82.9189 10.0853 83.1269 10.3707 83.2443 10.728V8.08H83.9723V14H83.2443V12.88C83.1269 13.2373 82.9189 13.5227 82.6203 13.736C82.3269 13.9493 81.9669 14.056 81.5403 14.056C81.1509 14.056 80.8043 13.9653 80.5003 13.784C80.1963 13.6027 79.9563 13.344 79.7803 13.008C79.6096 12.6667 79.5243 12.2667 79.5243 11.808C79.5243 11.3493 79.6096 10.9493 79.7803 10.608C79.9563 10.2667 80.1963 10.0053 80.5003 9.824C80.8043 9.64267 81.1509 9.552 81.5403 9.552ZM81.7483 10.2C81.3003 10.2 80.9403 10.344 80.6683 10.632C80.4016 10.9147 80.2683 11.3067 80.2683 11.808C80.2683 12.3093 80.4016 12.704 80.6683 12.992C80.9403 13.2747 81.3003 13.416 81.7483 13.416C82.0363 13.416 82.2923 13.3493 82.5163 13.216C82.7456 13.0827 82.9243 12.896 83.0523 12.656C83.1803 12.4107 83.2443 12.128 83.2443 11.808C83.2443 11.488 83.1803 11.2053 83.0523 10.96C82.9243 10.7147 82.7456 10.528 82.5163 10.4C82.2923 10.2667 82.0363 10.2 81.7483 10.2ZM89.0994 9.552C89.5208 9.552 89.8968 9.64267 90.2274 9.824C90.5634 10.0053 90.8248 10.2667 91.0114 10.608C91.2034 10.9493 91.2994 11.3493 91.2994 11.808C91.2994 12.2667 91.2034 12.6667 91.0114 13.008C90.8248 13.344 90.5634 13.6027 90.2274 13.784C89.8968 13.9653 89.5208 14.056 89.0994 14.056C88.6781 14.056 88.2994 13.9653 87.9634 13.784C87.6328 13.6027 87.3714 13.344 87.1794 13.008C86.9874 12.6667 86.8914 12.2667 86.8914 11.808C86.8914 11.3493 86.9874 10.9493 87.1794 10.608C87.3714 10.2667 87.6328 10.0053 87.9634 9.824C88.2994 9.64267 88.6781 9.552 89.0994 9.552ZM89.0994 10.192C88.8381 10.192 88.5954 10.2507 88.3714 10.368C88.1528 10.4853 87.9741 10.6667 87.8354 10.912C87.7021 11.152 87.6354 11.4507 87.6354 11.808C87.6354 12.16 87.7021 12.4587 87.8354 12.704C87.9741 12.944 88.1528 13.1227 88.3714 13.24C88.5954 13.3573 88.8381 13.416 89.0994 13.416C89.3608 13.416 89.6008 13.3573 89.8194 13.24C90.0434 13.1227 90.2221 12.944 90.3554 12.704C90.4941 12.4587 90.5634 12.16 90.5634 11.808C90.5634 11.4507 90.4941 11.152 90.3554 10.912C90.2221 10.6667 90.0434 10.4853 89.8194 10.368C89.6008 10.2507 89.3608 10.192 89.0994 10.192ZM94.5601 9.536C95.0721 9.536 95.4854 9.70133 95.8001 10.032C96.1147 10.3573 96.2721 10.8293 96.2721 11.448V14H95.5441V11.512C95.5441 11.0747 95.4321 10.7387 95.2081 10.504C94.9841 10.2693 94.6801 10.152 94.2961 10.152C93.8961 10.152 93.5761 10.2827 93.3361 10.544C93.0961 10.8 92.9761 11.176 92.9761 11.672V14H92.2481V9.608H92.9761V10.648C93.0881 10.2907 93.2854 10.016 93.5681 9.824C93.8561 9.632 94.1867 9.536 94.5601 9.536ZM101.461 13.36V14H100.917C100.469 14 100.133 13.8933 99.9093 13.68C99.6906 13.4667 99.5813 13.1093 99.5813 12.608V10.24H98.9253V9.608H99.5813V8.512H100.317V9.608H101.453V10.24H100.317V12.624C100.317 12.9067 100.368 13.1013 100.469 13.208C100.576 13.3093 100.757 13.36 101.013 13.36H101.461ZM104.662 9.536C105.174 9.536 105.587 9.70133 105.902 10.032C106.216 10.3573 106.374 10.8293 106.374 11.448V14H105.646V11.512C105.646 11.0747 105.534 10.7387 105.31 10.504C105.086 10.2693 104.782 10.152 104.398 10.152C103.998 10.152 103.678 10.2827 103.438 10.544C103.198 10.8 103.078 11.176 103.078 11.672V14H102.35V8.08H103.078V10.648C103.19 10.2907 103.387 10.016 103.67 9.824C103.958 9.632 104.288 9.536 104.662 9.536ZM111.53 11.56C111.53 11.7147 111.52 11.848 111.498 11.96H107.986C108.002 12.4613 108.144 12.8373 108.41 13.088C108.682 13.3387 109.013 13.464 109.402 13.464C109.754 13.464 110.048 13.376 110.282 13.2C110.522 13.0187 110.669 12.7787 110.722 12.48H111.498C111.445 12.784 111.325 13.056 111.138 13.296C110.957 13.536 110.72 13.7227 110.426 13.856C110.133 13.9893 109.802 14.056 109.434 14.056C109.013 14.056 108.64 13.9653 108.314 13.784C107.989 13.6027 107.733 13.344 107.546 13.008C107.365 12.6667 107.274 12.2667 107.274 11.808C107.274 11.3493 107.365 10.9493 107.546 10.608C107.733 10.2667 107.989 10.0053 108.314 9.824C108.64 9.64267 109.013 9.552 109.434 9.552C109.861 9.552 110.232 9.64267 110.546 9.824C110.866 10.0053 111.109 10.248 111.274 10.552C111.445 10.856 111.53 11.192 111.53 11.56ZM110.794 11.608C110.81 11.2827 110.757 11.0107 110.634 10.792C110.512 10.5733 110.344 10.4107 110.13 10.304C109.917 10.1973 109.685 10.144 109.434 10.144C109.034 10.144 108.698 10.2693 108.426 10.52C108.154 10.7653 108.008 11.128 107.986 11.608H110.794Z" fill="#05408E"/>
<path d="M50.86 27.858H46.688L45.932 30H44.224L47.864 20.27H49.698L53.324 30H51.616L50.86 27.858ZM50.412 26.626L48.774 22.006L47.136 26.626H50.412ZM58.933 22.188C59.605 22.188 60.2023 22.3467 60.725 22.664C61.257 22.9813 61.6723 23.4387 61.971 24.036C62.2696 24.6333 62.419 25.3333 62.419 26.136C62.419 26.948 62.2696 27.6527 61.971 28.25C61.6723 28.8473 61.257 29.3047 60.725 29.622C60.2023 29.9393 59.605 30.098 58.933 30.098C58.233 30.098 57.6356 29.9253 57.141 29.58C56.6463 29.2347 56.301 28.7773 56.105 28.208V33.668H54.509V22.286H56.105V24.078C56.301 23.5087 56.6463 23.0513 57.141 22.706C57.6356 22.3607 58.233 22.188 58.933 22.188ZM58.443 23.588C57.995 23.588 57.5936 23.6953 57.239 23.91C56.8843 24.1153 56.6043 24.414 56.399 24.806C56.1936 25.1887 56.091 25.632 56.091 26.136C56.091 26.6493 56.1936 27.0973 56.399 27.48C56.6043 27.8627 56.8843 28.1613 57.239 28.376C57.5936 28.5813 57.995 28.684 58.443 28.684C59.1523 28.684 59.7216 28.46 60.151 28.012C60.5803 27.5547 60.795 26.9293 60.795 26.136C60.795 25.352 60.5803 24.7313 60.151 24.274C59.7216 23.8167 59.1523 23.588 58.443 23.588ZM68.3802 22.188C69.0522 22.188 69.6496 22.3467 70.1722 22.664C70.7042 22.9813 71.1196 23.4387 71.4182 24.036C71.7169 24.6333 71.8662 25.3333 71.8662 26.136C71.8662 26.948 71.7169 27.6527 71.4182 28.25C71.1196 28.8473 70.7042 29.3047 70.1722 29.622C69.6496 29.9393 69.0522 30.098 68.3802 30.098C67.6802 30.098 67.0829 29.9253 66.5882 29.58C66.0936 29.2347 65.7482 28.7773 65.5522 28.208V33.668H63.9562V22.286H65.5522V24.078C65.7482 23.5087 66.0936 23.0513 66.5882 22.706C67.0829 22.3607 67.6802 22.188 68.3802 22.188ZM67.8902 23.588C67.4422 23.588 67.0409 23.6953 66.6862 23.91C66.3316 24.1153 66.0516 24.414 65.8462 24.806C65.6409 25.1887 65.5382 25.632 65.5382 26.136C65.5382 26.6493 65.6409 27.0973 65.8462 27.48C66.0516 27.8627 66.3316 28.1613 66.6862 28.376C67.0409 28.5813 67.4422 28.684 67.8902 28.684C68.5996 28.684 69.1689 28.46 69.5982 28.012C70.0276 27.5547 70.2422 26.9293 70.2422 26.136C70.2422 25.352 70.0276 24.7313 69.5982 24.274C69.1689 23.8167 68.5996 23.588 67.8902 23.588ZM74.9995 19.64V30H73.4035V19.64H74.9995ZM84.0988 25.772C84.0988 26.0333 84.0802 26.262 84.0428 26.458H78.1068C78.1348 27.2513 78.3542 27.8393 78.7648 28.222C79.1755 28.6047 79.6842 28.796 80.2908 28.796C80.8228 28.796 81.2708 28.6607 81.6348 28.39C82.0082 28.1193 82.2368 27.76 82.3208 27.312H84.0288C83.9262 27.8533 83.7115 28.334 83.3848 28.754C83.0582 29.174 82.6335 29.5053 82.1108 29.748C81.5882 29.9813 81.0048 30.098 80.3608 30.098C79.6142 30.098 78.9515 29.9393 78.3728 29.622C77.8035 29.3047 77.3555 28.8473 77.0288 28.25C76.7022 27.6527 76.5388 26.948 76.5388 26.136C76.5388 25.3333 76.7022 24.6333 77.0288 24.036C77.3555 23.4387 77.8035 22.9813 78.3728 22.664C78.9515 22.3467 79.6142 22.188 80.3608 22.188C81.1168 22.188 81.7748 22.3467 82.3348 22.664C82.9042 22.972 83.3382 23.4013 83.6368 23.952C83.9448 24.4933 84.0988 25.1 84.0988 25.772ZM82.4888 25.73C82.5075 25.226 82.4188 24.806 82.2228 24.47C82.0362 24.1247 81.7748 23.8727 81.4388 23.714C81.1122 23.546 80.7528 23.462 80.3608 23.462C79.7355 23.462 79.2128 23.6533 78.7928 24.036C78.3728 24.4187 78.1442 24.9833 78.1068 25.73H82.4888ZM95.4171 27.368C95.4171 27.8533 95.3004 28.306 95.0671 28.726C94.8337 29.1367 94.4791 29.468 94.0031 29.72C93.5271 29.972 92.9437 30.098 92.2531 30.098C91.5811 30.098 90.9791 29.9813 90.4471 29.748C89.9151 29.5053 89.4904 29.1693 89.1731 28.74C88.8557 28.3107 88.6737 27.816 88.6271 27.256H90.3351C90.3817 27.6853 90.5637 28.054 90.8811 28.362C91.2077 28.67 91.6417 28.824 92.1831 28.824C92.6684 28.824 93.0417 28.6933 93.3031 28.432C93.5737 28.1707 93.7091 27.8347 93.7091 27.424C93.7091 27.0693 93.6111 26.78 93.4151 26.556C93.2191 26.3227 92.9764 26.1407 92.6871 26.01C92.3977 25.8793 92.0011 25.73 91.4971 25.562C90.8811 25.366 90.3771 25.17 89.9851 24.974C89.6024 24.778 89.2757 24.4933 89.0051 24.12C88.7344 23.7467 88.5991 23.2567 88.5991 22.65C88.5991 22.118 88.7297 21.6513 88.9911 21.25C89.2524 20.8487 89.6257 20.5407 90.1111 20.326C90.5964 20.102 91.1564 19.99 91.7911 19.99C92.7991 19.99 93.5971 20.2327 94.1851 20.718C94.7824 21.2033 95.1231 21.838 95.2071 22.622H93.4851C93.4197 22.2487 93.2424 21.9313 92.9531 21.67C92.6731 21.3993 92.2857 21.264 91.7911 21.264C91.3431 21.264 90.9837 21.3807 90.7131 21.614C90.4424 21.838 90.3071 22.1647 90.3071 22.594C90.3071 22.93 90.4004 23.21 90.5871 23.434C90.7737 23.6487 91.0071 23.8213 91.2871 23.952C91.5764 24.0733 91.9684 24.218 92.4631 24.386C93.0884 24.582 93.5971 24.7827 93.9891 24.988C94.3904 25.184 94.7264 25.4733 94.9971 25.856C95.2771 26.2387 95.4171 26.7427 95.4171 27.368ZM100.893 28.614V30H99.9128C99.0915 30 98.4662 29.804 98.0368 29.412C97.6168 29.0107 97.4068 28.348 97.4068 27.424V23.644H96.3008V22.286H97.4068V20.368H99.0168V22.286H100.879V23.644H99.0168V27.452C99.0168 27.8907 99.0962 28.194 99.2548 28.362C99.4228 28.53 99.7122 28.614 100.123 28.614H100.893ZM105.916 22.188C106.663 22.188 107.335 22.3467 107.932 22.664C108.529 22.9813 108.996 23.4387 109.332 24.036C109.668 24.6333 109.836 25.3333 109.836 26.136C109.836 26.948 109.668 27.6527 109.332 28.25C108.996 28.8473 108.529 29.3047 107.932 29.622C107.335 29.9393 106.663 30.098 105.916 30.098C105.169 30.098 104.497 29.9393 103.9 29.622C103.312 29.3047 102.845 28.8473 102.5 28.25C102.164 27.6433 101.996 26.9387 101.996 26.136C101.996 25.3333 102.164 24.6333 102.5 24.036C102.845 23.4387 103.312 22.9813 103.9 22.664C104.497 22.3467 105.169 22.188 105.916 22.188ZM105.916 23.574C105.505 23.574 105.127 23.6673 104.782 23.854C104.437 24.0407 104.157 24.33 103.942 24.722C103.737 25.1047 103.634 25.576 103.634 26.136C103.634 26.7053 103.737 27.1813 103.942 27.564C104.157 27.9467 104.437 28.2313 104.782 28.418C105.127 28.6047 105.505 28.698 105.916 28.698C106.327 28.698 106.705 28.6047 107.05 28.418C107.395 28.2313 107.671 27.9467 107.876 27.564C108.091 27.1813 108.198 26.7053 108.198 26.136C108.198 25.576 108.091 25.1047 107.876 24.722C107.671 24.33 107.395 24.0407 107.05 23.854C106.705 23.6673 106.327 23.574 105.916 23.574ZM112.966 23.798C113.228 23.294 113.601 22.8973 114.086 22.608C114.572 22.3093 115.132 22.16 115.766 22.16V23.896H115.29C114.59 23.896 114.026 24.0687 113.596 24.414C113.176 24.75 112.966 25.31 112.966 26.094V30H111.37V22.286H112.966V23.798ZM124.13 25.772C124.13 26.0333 124.111 26.262 124.074 26.458H118.138C118.166 27.2513 118.385 27.8393 118.796 28.222C119.207 28.6047 119.715 28.796 120.322 28.796C120.854 28.796 121.302 28.6607 121.666 28.39C122.039 28.1193 122.268 27.76 122.352 27.312H124.06C123.957 27.8533 123.743 28.334 123.416 28.754C123.089 29.174 122.665 29.5053 122.142 29.748C121.619 29.9813 121.036 30.098 120.392 30.098C119.645 30.098 118.983 29.9393 118.404 29.622C117.835 29.3047 117.387 28.8473 117.06 28.25C116.733 27.6527 116.57 26.948 116.57 26.136C116.57 25.3333 116.733 24.6333 117.06 24.036C117.387 23.4387 117.835 22.9813 118.404 22.664C118.983 22.3467 119.645 22.188 120.392 22.188C121.148 22.188 121.806 22.3467 122.366 22.664C122.935 22.972 123.369 23.4013 123.668 23.952C123.976 24.4933 124.13 25.1 124.13 25.772ZM122.52 25.73C122.539 25.226 122.45 24.806 122.254 24.47C122.067 24.1247 121.806 23.8727 121.47 23.714C121.143 23.546 120.784 23.462 120.392 23.462C119.767 23.462 119.244 23.6533 118.824 24.036C118.404 24.4187 118.175 24.9833 118.138 25.73H122.52Z" fill="#05408E"/>
<path d="M19.2357 30.0002C16.2591 29.983 13.7969 23.9068 13.7969 20.8123C13.7969 15.7574 17.5889 14.6508 19.0503 14.6508C19.7089 14.6508 20.4121 14.9094 21.0324 15.1383C21.4661 15.2979 21.9147 15.4628 22.1642 15.4628C22.3136 15.4628 22.6655 15.3226 22.9762 15.1996C23.6388 14.9358 24.4633 14.6079 25.4235 14.6079C25.4252 14.6079 25.4275 14.6079 25.4292 14.6079C26.1461 14.6079 28.32 14.7653 29.6269 16.7279L29.933 17.1879L29.4924 17.5204C28.863 17.9953 27.7146 18.8617 27.7146 20.5777C27.7146 22.6102 29.0152 23.3918 29.64 23.7678C29.9159 23.9337 30.2014 24.1048 30.2014 24.479C30.2014 24.7233 28.2513 29.9699 25.4194 29.9699C24.7265 29.9699 24.2367 29.7616 23.8047 29.5779C23.3675 29.3919 22.9904 29.2317 22.3673 29.2317C22.0514 29.2317 21.652 29.3811 21.2292 29.5396C20.6513 29.7552 19.9973 30.0002 19.2551 30.0002H19.2357Z" fill="#05408E"/>
<path d="M25.7242 10C25.7979 12.6592 23.8962 14.5041 21.9966 14.3884C21.6836 12.2662 23.8959 10 25.7242 10Z" fill="#05408E"/>
</svg>
