<svg width="25" height="17" viewBox="0 0 25 17" fill="none" xmlns="http://www.w3.org/2000/svg">
<path d="M24.8474 8.13173L17.0349 0.319233C16.8854 0.170698 16.6631 0.125434 16.4673 0.206294C16.2725 0.286665 16.1458 0.476899 16.1458 0.687446V1.7291C16.1458 1.86743 16.2008 1.9997 16.2984 2.09736L21.6594 7.4583L0.52085 7.4583C0.232959 7.45834 0 7.69125 0 7.97915L0 9.02079C0 9.30869 0.232959 9.54165 0.52085 9.54165L21.6594 9.54165L16.2984 14.9026C16.2008 15.0002 16.1458 15.1325 16.1458 15.2708V16.3125C16.1458 16.5231 16.2725 16.7133 16.4673 16.7936C16.5319 16.8206 16.5995 16.8333 16.6667 16.8333C16.802 16.8333 16.9352 16.7805 17.0349 16.6808L24.8474 8.86826C25.0509 8.66479 25.0509 8.3352 24.8474 8.13173Z" fill="#05408E"/>
</svg>
