<svg width="12" height="8" viewBox="0 0 12 8" fill="none" xmlns="http://www.w3.org/2000/svg">
<path d="M5.53176 0.666543L0.191706 6.0067C0.068097 6.13021 0 6.29508 0 6.47089C0 6.64669 0.068097 6.81157 0.191706 6.93508L0.584873 7.32834C0.841066 7.58424 1.25745 7.58424 1.51326 7.32834L5.99751 2.84409L10.4867 7.33332C10.6104 7.45683 10.7751 7.52502 10.9508 7.52502C11.1267 7.52502 11.2915 7.45683 11.4152 7.33332L11.8083 6.94005C11.9319 6.81644 12 6.65167 12 6.47586C12 6.30006 11.9319 6.13518 11.8083 6.01167L6.46336 0.666543C6.33936 0.542739 6.1738 0.47474 5.99781 0.475131C5.82112 0.47474 5.65566 0.542739 5.53176 0.666543Z" fill="#05408E"/>
</svg>
