<svg width="12" height="8" viewBox="0 0 12 8" fill="none" xmlns="http://www.w3.org/2000/svg">
<path d="M5.53176 0.666421L0.191706 6.00657C0.068097 6.13008 0 6.29496 0 6.47076C0 6.64657 0.068097 6.81144 0.191706 6.93496L0.584873 7.32822C0.841066 7.58412 1.25745 7.58412 1.51326 7.32822L5.99751 2.84396L10.4867 7.3332C10.6104 7.45671 10.7751 7.5249 10.9508 7.5249C11.1267 7.5249 11.2915 7.45671 11.4152 7.3332L11.8083 6.93993C11.9319 6.81632 12 6.65154 12 6.47574C12 6.29994 11.9319 6.13506 11.8083 6.01155L6.46336 0.666421C6.33936 0.542617 6.1738 0.474618 5.99781 0.475008C5.82112 0.474618 5.65566 0.542617 5.53176 0.666421Z" fill="#05408E"/>
</svg>
