<svg width="60" height="60" viewBox="0 0 60 60" fill="none" xmlns="http://www.w3.org/2000/svg">
<g clip-path="url(#clip0)">
<path d="M56 57.9991V19.9991C56 19.5401 55.6875 19.1402 55.2422 19.0289L36 14.2179V8.99913C36 8.54601 35.6953 8.15001 35.2578 8.03282L5.25781 0.0328215C4.95801 -0.0472566 4.63721 0.0167083 4.39111 0.206161C4.14453 0.395126 4 0.688095 4 0.99913V57.9991H0V59.9991H60V57.9991H56ZM6 2.29893L34 9.76476V57.9991H29V46.9991C29 46.4469 28.5522 45.9991 28 45.9991H12C11.4478 45.9991 11 46.4469 11 46.9991V57.9991H6V2.29893ZM13 47.9991H19V57.9991H13V47.9991ZM21 57.9991V47.9991H27V57.9991H21ZM42 57.9991V49.9991H48V57.9991H42ZM50 57.9991V48.9991C50 48.4469 49.5522 47.9991 49 47.9991H41C40.4478 47.9991 40 48.4469 40 48.9991V57.9991H36V16.2799L54 20.7799V57.9991H50Z" fill="#05408E"/>
<path d="M13 42H17C17.5522 42 18 41.5522 18 41V37C18 36.4478 17.5522 36 17 36H13C12.4478 36 12 36.4478 12 37V41C12 41.5522 12.4478 42 13 42ZM14 38H16V40H14V38Z" fill="#FF782D"/>
<path d="M23 42H27C27.5522 42 28 41.5522 28 41V37C28 36.4478 27.5522 36 27 36H23C22.4478 36 22 36.4478 22 37V41C22 41.5522 22.4478 42 23 42ZM24 38H26V40H24V38Z" fill="#FF782D"/>
<path d="M43 38H39C38.4478 38 38 38.4478 38 39V43C38 43.5522 38.4478 44 39 44H43C43.5522 44 44 43.5522 44 43V39C44 38.4478 43.5522 38 43 38ZM42 42H40V40H42V42Z" fill="#FF782D"/>
<path d="M51 38H47C46.4478 38 46 38.4478 46 39V43C46 43.5522 46.4478 44 47 44H51C51.5522 44 52 43.5522 52 43V39C52 38.4478 51.5522 38 51 38ZM50 42H48V40H50V42Z" fill="#FF782D"/>
<path d="M43 30H39C38.4478 30 38 30.4478 38 31V35C38 35.5522 38.4478 36 39 36H43C43.5522 36 44 35.5522 44 35V31C44 30.4478 43.5522 30 43 30ZM42 34H40V32H42V34Z" fill="#FF782D"/>
<path d="M51 30H47C46.4478 30 46 30.4478 46 31V35C46 35.5522 46.4478 36 47 36H51C51.5522 36 52 35.5522 52 35V31C52 30.4478 51.5522 30 51 30ZM50 34H48V32H50V34Z" fill="#FF782D"/>
<path d="M43 22H39C38.4478 22 38 22.4478 38 23V27C38 27.5522 38.4478 28 39 28H43C43.5522 28 44 27.5522 44 27V23C44 22.4478 43.5522 22 43 22ZM42 26H40V24H42V26Z" fill="#FF782D"/>
<path d="M51 22H47C46.4478 22 46 22.4478 46 23V27C46 27.5522 46.4478 28 47 28H51C51.5522 28 52 27.5522 52 27V23C52 22.4478 51.5522 22 51 22ZM50 26H48V24H50V26Z" fill="#FF782D"/>
<path d="M13 34H17C17.5522 34 18 33.5522 18 33V29C18 28.4478 17.5522 28 17 28H13C12.4478 28 12 28.4478 12 29V33C12 33.5522 12.4478 34 13 34ZM14 30H16V32H14V30Z" fill="#FF782D"/>
<path d="M23 34H27C27.5522 34 28 33.5522 28 33V29C28 28.4478 27.5522 28 27 28H23C22.4478 28 22 28.4478 22 29V33C22 33.5522 22.4478 34 23 34ZM24 30H26V32H24V30Z" fill="#FF782D"/>
<path d="M13 26H17C17.5522 26 18 25.5522 18 25V21C18 20.4478 17.5522 20 17 20H13C12.4478 20 12 20.4478 12 21V25C12 25.5522 12.4478 26 13 26ZM14 22H16V24H14V22Z" fill="#FF782D"/>
<path d="M23 26H27C27.5522 26 28 25.5522 28 25V21C28 20.4478 27.5522 20 27 20H23C22.4478 20 22 20.4478 22 21V25C22 25.5522 22.4478 26 23 26ZM24 22H26V24H24V22Z" fill="#FF782D"/>
<path d="M13 18H17C17.5522 18 18 17.5522 18 17V13C18 12.4478 17.5522 12 17 12H13C12.4478 12 12 12.4478 12 13V17C12 17.5522 12.4478 18 13 18ZM14 14H16V16H14V14Z" fill="#FF782D"/>
<path d="M23 18H27C27.5522 18 28 17.5522 28 17V13C28 12.4478 27.5522 12 27 12H23C22.4478 12 22 12.4478 22 13V17C22 17.5522 22.4478 18 23 18ZM24 14H26V16H24V14Z" fill="#FF782D"/>
</g>
<defs>
<clipPath id="clip0">
<rect width="60" height="60" fill="white"/>
</clipPath>
</defs>
</svg>
