<svg width="18" height="18" viewBox="0 0 18 18" fill="none" xmlns="http://www.w3.org/2000/svg">
<path d="M15.8906 1.40625H15.0469V0H13.6406V1.40625H4.35938V0H2.95312V1.40625H2.10938C0.946198 1.40625 0 2.35245 0 3.51562V15.8906C0 17.0538 0.946198 18 2.10938 18H15.8906C17.0538 18 18 17.0538 18 15.8906V3.51562C18 2.35245 17.0538 1.40625 15.8906 1.40625ZM2.10938 2.8125H2.95312V4.21875H4.35938V2.8125H13.6406V4.21875H15.0469V2.8125H15.8906C16.2783 2.8125 16.5938 3.12794 16.5938 3.51562V5.20312H1.40625V3.51562C1.40625 3.12794 1.72169 2.8125 2.10938 2.8125ZM15.8906 16.5938H2.10938C1.72169 16.5938 1.40625 16.2783 1.40625 15.8906V6.60938H16.5938V15.8906C16.5938 16.2783 16.2783 16.5938 15.8906 16.5938ZM11.1094 15.1172H15.3281V10.8984H11.1094V15.1172ZM12.5156 12.3047H13.9219V13.7109H12.5156V12.3047Z" fill="#071A30"/>
</svg>
