<svg width="20" height="18" viewBox="0 0 20 18" fill="none" xmlns="http://www.w3.org/2000/svg">
<path d="M10 4.83331C7.24285 4.83331 5 7.07617 5 9.83331C5 12.5905 7.24285 14.8333 10 14.8333C12.7571 14.8333 15 12.5905 15 9.83331C15 7.07617 12.7571 4.83331 10 4.83331ZM10 14C7.70262 14 5.83332 12.1307 5.83332 9.83331C5.83332 7.53593 7.70266 5.66667 10 5.66667C12.2973 5.66667 14.1667 7.53597 14.1667 9.83335C14.1667 12.1307 12.2974 14 10 14Z" fill="black"/>
<path d="M16.6668 7.33333C17.127 7.33333 17.5001 6.96024 17.5001 6.50001C17.5001 6.03978 17.127 5.66669 16.6668 5.66669C16.2066 5.66669 15.8335 6.03978 15.8335 6.50001C15.8335 6.96024 16.2066 7.33333 16.6668 7.33333Z" fill="black"/>
<path d="M18.3333 3.16669H15.6905C15.3564 3.16669 15.0427 3.03649 14.8063 2.80048L13.2829 1.27704C12.8894 0.883562 12.3661 0.666687 11.8095 0.666687H8.19051C7.63387 0.666687 7.11059 0.883562 6.71711 1.27704L5.19367 2.80048C4.95727 3.03649 4.64355 3.16669 4.30949 3.16669H1.66668C0.747461 3.16669 0 3.91415 0 4.83333V15.6666C0 16.5858 0.747461 17.3333 1.66668 17.3333H18.3334C19.2525 17.3333 20 16.5859 20 15.6666V4.83333C20 3.91415 19.2525 3.16669 18.3333 3.16669ZM19.1667 15.6667C19.1667 16.1261 18.7927 16.5 18.3334 16.5H1.66668C1.2073 16.5 0.833359 16.1261 0.833359 15.6667V4.83333C0.833359 4.37395 1.2073 4.00001 1.66668 4.00001H4.30949C4.86613 4.00001 5.38941 3.78313 5.78289 3.38966L7.30633 1.86622C7.54273 1.6302 7.85645 1.50001 8.19051 1.50001H11.8095C12.1436 1.50001 12.4573 1.6302 12.6937 1.86622L14.2171 3.38966C14.6106 3.78313 15.1339 4.00001 15.6905 4.00001H18.3333C18.7927 4.00001 19.1666 4.37395 19.1666 4.83333V15.6667H19.1667Z" fill="black"/>
</svg>
