<svg width="62" height="61" viewBox="0 0 62 61" fill="none" xmlns="http://www.w3.org/2000/svg">
<path d="M51.6667 10.7706V5.08333C51.6631 2.27733 49.352 0.00355833 46.5 0H5.16667C2.31467 0.00355833 0.00361667 2.27733 0 5.08333V27.45C0.00800835 30.0463 2.00828 32.2177 4.63347 32.481L8.51777 42.4014C9.54387 45.0208 12.5338 46.3257 15.1965 45.3174L39.4527 36.1242C37.7766 40.4316 38.2535 45.2635 40.7397 49.1734L41.3333 50.1074V59.9833C41.3333 60.545 41.7957 61 42.3667 61H60.9667C61.5376 61 62 60.545 62 59.9833V26.4244C61.9902 22.9086 60.5675 19.5398 58.041 17.0533L51.6667 10.7706ZM51.6667 16.8507L54.8028 24.8605C55.4174 26.4328 54.621 28.197 53.0232 28.8022L51.2306 29.4833C51.5168 28.8423 51.6651 28.1495 51.6667 27.45V16.8507ZM2.06667 27.45V5.08333C2.06667 3.39922 3.45495 2.03333 5.16667 2.03333H46.5C48.2117 2.03333 49.6 3.39922 49.6 5.08333V11.5453H49.591L49.6 11.5684V27.45C49.592 27.6274 49.5685 27.8033 49.5297 27.9766L40.0644 18.663C37.9368 16.6179 34.5448 16.6022 32.3981 18.6258C30.2508 20.6508 30.1219 23.9855 32.1077 26.1637L36.1429 30.5H5.16667C3.45495 30.5 2.06667 29.1341 2.06667 27.45ZM15.3047 32.5333L7.95667 35.3167L6.8696 32.5333H15.3047ZM14.4532 43.4195C12.8557 44.0255 11.0616 43.2419 10.446 41.6701L8.70273 37.21L21.0376 32.5333V32.5272H38.037L39.3801 33.9678L14.4532 43.4195ZM59.9333 58.9667H43.4V50.8333H59.9333V58.9667ZM59.9333 48.8H42.9402L42.492 48.0954C39.9724 44.134 39.8722 39.1305 42.2303 35.075C42.4535 34.6912 42.3987 34.2093 42.0949 33.8835L33.627 24.7945C32.3643 23.4347 32.4353 21.3325 33.7872 20.0588C35.1395 18.785 37.2772 18.8058 38.603 20.1051L55.0694 36.3021L56.5306 34.8645L52.7072 31.1029L53.7674 30.6962C56.4278 29.6864 57.7535 26.7472 56.73 24.1283L53.2324 15.1928L56.5799 18.4932C58.7189 20.5972 59.9251 23.4484 59.9333 26.4244V48.8Z" fill="#05408E"/>
<path d="M11.78 14.2331C13.2638 14.2331 14.4666 13.0497 14.4666 11.5897V6.70974C14.4666 5.24981 13.2638 4.06641 11.78 4.06641H6.81997C5.3361 4.06641 4.1333 5.24981 4.1333 6.70974V11.5897C4.1333 13.0497 5.3361 14.2331 6.81997 14.2331H11.78ZM6.19997 11.5897V10.1664H8.26663V8.13307H6.19997V6.70974C6.19997 6.37297 6.47768 6.09974 6.81997 6.09974H11.78C12.1223 6.09974 12.4 6.37297 12.4 6.70974V8.13307H10.3333V10.1664H12.4V11.5897C12.4 11.9265 12.1223 12.1997 11.78 12.1997H6.81997C6.47768 12.1997 6.19997 11.9265 6.19997 11.5897Z" fill="#FF782D"/>
<path d="M5.1665 17.2832H9.29984V19.3165H5.1665V17.2832Z" fill="#FF782D"/>
<path d="M5.1665 23.3838H9.29984V25.4171H5.1665V23.3838Z" fill="#FF782D"/>
<path d="M23.7666 23.3838H27.8999V25.4171H23.7666V23.3838Z" fill="#FF782D"/>
<path d="M11.3667 17.2832H15.5V19.3165H11.3667V17.2832Z" fill="#FF782D"/>
<path d="M17.5669 17.2832H21.7002V19.3165H17.5669V17.2832Z" fill="#FF782D"/>
<path d="M23.7666 17.2832H27.8999V19.3165H23.7666V17.2832Z" fill="#FF782D"/>
<path d="M43.3999 5.08301H45.4666V8.133H43.3999V5.08301Z" fill="#FF782D"/>
<path d="M39.2666 5.08301H41.3333V8.133H39.2666V5.08301Z" fill="#FF782D"/>
<path d="M35.1333 5.08301H37.2V8.133H35.1333V5.08301Z" fill="#FF782D"/>
<path d="M31 5.08301H33.0667V8.133H31V5.08301Z" fill="#FF782D"/>
<path d="M45.4668 52.8662H47.5335V54.8995H45.4668V52.8662Z" fill="#FF782D"/>
</svg>
