<svg width="22" height="17" viewBox="0 0 22 17" fill="none" xmlns="http://www.w3.org/2000/svg">
<path d="M19.4744 0.936035H2.52559C1.24497 0.936035 0.203079 1.97792 0.203079 3.25855V14.6776C0.203079 15.9582 1.24497 17.0001 2.52559 17.0001H19.4744C20.755 17.0001 21.7969 15.9582 21.7969 14.6776V3.25855C21.7969 1.97792 20.7551 0.936035 19.4744 0.936035ZM20.2486 14.6776C20.2486 15.1044 19.9013 15.4517 19.4744 15.4517H2.52559C2.09873 15.4517 1.75142 15.1044 1.75142 14.6776V3.25855C1.75142 2.83169 2.09873 2.48438 2.52559 2.48438H19.4744C19.9013 2.48438 20.2486 2.83169 20.2486 3.25855V14.6776ZM4.9034 8.35979H6.03703C7.10422 8.35979 7.97246 7.49156 7.97246 6.42437V5.29074C7.97246 4.22355 7.10422 3.35532 6.03703 3.35532H4.9034C3.83621 3.35532 2.96798 4.22355 2.96798 5.29074V6.42437C2.96798 7.49151 3.83621 8.35979 4.9034 8.35979ZM4.51632 5.29074C4.51632 5.07731 4.68998 4.90366 4.9034 4.90366H6.03703C6.25046 4.90366 6.42412 5.07731 6.42412 5.29074V6.42437C6.42412 6.6378 6.25046 6.81145 6.03703 6.81145H4.9034C4.68998 6.81145 4.51632 6.6378 4.51632 6.42437V5.29074ZM2.96798 10.3505C2.96798 9.92289 3.31461 9.5763 3.74215 9.5763H4.779C5.20654 9.5763 5.55318 9.92289 5.55318 10.3505C5.55318 10.7781 5.20654 11.1246 4.779 11.1246H3.74215C3.31461 11.1246 2.96798 10.7781 2.96798 10.3505ZM17.9952 10.3505C17.9952 10.7781 17.6486 11.1246 17.221 11.1246H16.1842C15.7566 11.1246 15.41 10.7781 15.41 10.3505C15.41 9.92289 15.7566 9.5763 16.1842 9.5763H17.221C17.6486 9.5763 17.9952 9.92289 17.9952 10.3505ZM10.0461 10.3505C10.0461 10.7781 9.69948 11.1246 9.27195 11.1246H7.19829C6.77075 11.1246 6.42412 10.7781 6.42412 10.3505C6.42412 9.92289 6.77075 9.5763 7.19829 9.5763H9.27195C9.69948 9.5763 10.0461 9.92289 10.0461 10.3505ZM14.5391 10.3505C14.5391 10.7781 14.1924 11.1246 13.7649 11.1246H11.6912C11.2637 11.1246 10.9171 10.7781 10.9171 10.3505C10.9171 9.92289 11.2637 9.5763 11.6912 9.5763H13.7649C14.1925 9.5763 14.5391 9.92289 14.5391 10.3505ZM9.13889 13.1154C9.13889 13.543 8.79225 13.8895 8.36472 13.8895H3.74215C3.31461 13.8895 2.96798 13.543 2.96798 13.1154C2.96798 12.6878 3.31461 12.3412 3.74215 12.3412H8.36472C8.79225 12.3412 9.13889 12.6878 9.13889 13.1154Z" fill="#071A30"/>
</svg>
