<svg width="70" height="48" viewBox="0 0 70 48" fill="none" xmlns="http://www.w3.org/2000/svg">
<path d="M70 12.8398C69.9984 11.7771 69.6858 10.6994 68.9947 9.81098L63.4483 2.71418C62.5193 1.53457 61.1058 0.933965 59.6932 0.931641C58.8525 0.931641 57.9965 1.14711 57.2402 1.61879L51.8321 4.98344C51.2634 5.34615 50.2883 5.59512 49.3464 5.58869C48.6147 5.59184 47.9076 5.44541 47.4407 5.21477L42.1448 2.64951C41.2906 2.23826 40.3383 2.06969 39.3807 2.06805C38.0055 2.07447 36.6127 2.41244 35.4936 3.18805L34.8756 3.62158C34.3816 3.37508 33.6268 2.99951 32.7718 2.57404C31.7464 2.07133 30.5406 1.86858 29.3228 1.86461C28.2226 1.86775 27.1227 2.03729 26.1569 2.44526L22.5497 3.98443C21.9626 4.239 21.0289 4.40526 20.1014 4.40115C19.1739 4.40512 18.2417 4.23887 17.6546 3.98443L14.0442 2.44443C13.3856 2.16361 12.6816 2.04358 11.9839 2.04275C11.1806 2.04358 10.382 2.2019 9.63977 2.50254C8.89848 2.80483 8.21038 3.25107 7.66241 3.86344L1.08897 11.2252C0.360395 12.0388 -0.00149924 13.0634 4.66785e-06 14.072C-0.00149924 15.2747 0.51311 16.4812 1.50569 17.3268L7.63752 22.5582L4.7287 25.5927C3.92684 26.4296 3.52762 27.5146 3.52762 28.5874C3.52612 29.7289 3.97948 30.8814 4.87745 31.73L5.46752 32.2907C6.02356 32.8181 6.6917 33.1537 7.39088 33.3326C7.0402 33.9777 6.84852 34.6849 6.85002 35.3935C6.84852 36.5358 7.30188 37.6875 8.19821 38.5371L8.1967 38.5363L8.78856 39.0994C9.63102 39.898 10.7231 40.2957 11.7991 40.295C12.3774 40.2958 12.9564 40.1796 13.5006 39.9521C13.6916 40.7269 14.086 41.4634 14.7064 42.052L15.2983 42.6151C16.1407 43.4137 17.2311 43.8114 18.3088 43.8107C19.1513 43.8116 19.9976 43.5633 20.7262 43.0814C20.9393 43.767 21.3045 44.4168 21.8604 44.945L22.4522 45.5081C23.2929 46.3067 24.385 46.7044 25.4613 46.7037C26.6074 46.7045 27.7648 46.2543 28.6197 45.3618L31.1906 42.6772L34.6834 45.9098C35.5194 46.6853 36.5925 47.0711 37.6518 47.0688C38.8156 47.0712 39.9896 46.605 40.8462 45.6879L41.4038 45.0906C41.885 44.5736 42.1992 43.9618 42.3814 43.3232L43.7344 44.572C44.572 45.3443 45.6436 45.7285 46.7014 45.7277C47.8666 45.7285 49.0439 45.2623 49.9014 44.3445L50.4558 43.7479C51.096 43.0639 51.4564 42.2166 51.5677 41.3513C51.9248 41.4428 52.2867 41.5048 52.6518 41.5048C53.817 41.5048 54.991 41.0395 55.8493 40.1225L56.4054 39.5258C57.1825 38.693 57.5691 37.6248 57.5675 36.5716C57.5675 36.2447 57.5206 35.9195 57.4481 35.598C58.4146 35.4699 59.3517 35.0389 60.0642 34.2737L60.6218 33.6763C61.3989 32.8434 61.7839 31.7753 61.7839 30.7213C61.7854 29.5616 61.3178 28.3915 60.3951 27.5389L59.3523 26.5757L68.7638 16.17C69.6087 15.2332 69.9985 14.0274 70 12.8398ZM8.47848 31.1185C7.97987 31.117 7.49219 30.9387 7.11116 30.5776L6.52012 30.0169C6.1112 29.6303 5.90926 29.1158 5.90762 28.5875C5.90926 28.0921 6.08659 27.6083 6.45176 27.2273L12.4094 21.0103C12.7976 20.6053 13.3155 20.4026 13.8467 20.4019C14.3439 20.4027 14.8299 20.5817 15.2141 20.9436L15.8026 21.5051C15.8026 21.5051 16.412 22.4062 16.4135 22.9352C16.412 23.3312 16.2926 23.7171 16.0612 24.0512C16.0414 24.071 9.63102 30.7518 9.63102 30.7518C9.29059 30.9927 8.88809 31.1167 8.47848 31.1185ZM13.2366 37.3196C12.8492 37.7229 12.3322 37.9249 11.8009 37.9265C11.3023 37.9257 10.8161 37.7467 10.4336 37.3857L9.8417 36.8232L9.8402 36.8224C9.43456 36.4374 9.23084 35.9213 9.23084 35.393C9.23084 34.8975 9.40981 34.4138 9.77321 34.0328C9.77321 34.0328 17.7147 25.7661 17.7815 25.6864C18.161 25.3213 18.6501 25.1328 19.1551 25.132C19.6537 25.1328 20.1399 25.3109 20.5224 25.6728L21.1143 26.236C21.5215 26.621 21.7237 27.1364 21.7252 27.6654C21.7235 28.1608 21.5447 28.6452 21.181 29.0263L13.2366 37.3196ZM19.7453 40.8344C19.3588 41.2387 18.8419 41.4409 18.3105 41.4424C17.8119 41.4415 17.3257 41.2626 16.9431 40.9007L16.3497 40.3382C15.9425 39.9524 15.7388 39.4371 15.7388 38.9088C15.7388 38.4667 15.8892 38.0378 16.177 37.6807L21.7075 31.9083C22.0806 31.5718 22.5482 31.3945 23.0327 31.3945C23.5314 31.3953 24.0175 31.5735 24.4001 31.9354L24.9936 32.4985C25.3992 32.8835 25.6029 33.3989 25.6044 33.9271C25.6028 34.4235 25.4223 34.9079 25.0603 35.288L19.7453 40.8344ZM30.2538 40.2252L26.8979 43.7276C26.5113 44.1316 25.9935 44.3338 25.4622 44.3353C24.9636 44.3345 24.4774 44.1556 24.0949 43.7937L23.5031 43.2312C23.0974 42.8462 22.8937 42.3301 22.8922 41.8018C22.8937 41.3054 23.0727 40.821 23.4363 40.4416L26.7907 36.9393C27.1789 36.5353 27.6968 36.3324 28.2281 36.3316C28.7252 36.3324 29.2128 36.5105 29.5954 36.8732L30.1889 37.4357C30.5945 37.8207 30.7966 38.3361 30.7982 38.8643C30.7963 39.3606 30.6173 39.8449 30.2538 40.2252ZM59.4074 30.7244C59.4068 31.2109 59.2324 31.6873 58.8793 32.0659L58.3233 32.6626C57.9351 33.0778 57.4085 33.2878 56.8693 33.2886C56.3801 33.2878 55.9012 33.1159 55.5211 32.7646L46.1511 24.0992L44.5308 25.834L54.5602 35.1253C54.9779 35.5119 55.1878 36.0369 55.1909 36.573C55.1878 37.0614 55.0151 37.537 54.6628 37.9157L54.1084 38.5123C53.7202 38.9276 53.1936 39.1367 52.6544 39.1384C52.1652 39.1369 51.6847 38.9642 51.3077 38.615L41.9352 29.9498L40.3166 31.6846L48.6343 39.3764C49.0351 39.7606 49.2405 40.2721 49.2405 40.7969C49.2405 41.2838 49.0678 41.7601 48.7155 42.138L48.1595 42.7346C47.7728 43.1498 47.2447 43.3599 46.7039 43.3614C46.2131 43.3599 45.7343 43.1872 45.3558 42.838L37.0547 35.1741H37.0532L37.0517 35.1726L35.4363 36.9106L35.4379 36.9121L35.4689 36.9415L39.6266 40.7786C39.9949 41.1572 40.1857 41.6424 40.1873 42.1443C40.1857 42.6287 40.0146 43.1027 39.6623 43.4807L39.1062 44.078C38.7181 44.4932 38.1931 44.7016 37.6554 44.7033C37.1662 44.7017 36.6872 44.5299 36.3087 44.1792L32.6888 40.8273C33.0038 40.2093 33.1796 39.5387 33.1796 38.8658C33.1811 37.7243 32.7277 36.5734 31.8314 35.7231L31.2379 35.16C30.3972 34.3621 29.3066 33.9637 28.2305 33.9652C28.147 33.9652 28.0628 33.9844 27.9809 33.9891C27.9809 33.9693 27.9855 33.9485 27.9855 33.9287C27.987 32.7873 26.6373 30.7845 26.6373 30.7845L26.0455 30.223C25.4163 29.6263 24.6486 29.2542 23.8502 29.1046C24.0148 28.6385 24.1079 28.1533 24.1079 27.6673C24.1079 26.5258 23.656 25.3739 22.7597 24.5247L22.1679 23.9615C21.3254 23.1629 20.2351 22.7644 19.1588 22.7652C19.0332 22.7652 18.9092 22.7906 18.7842 22.8019C18.75 21.7058 18.3086 20.6105 17.4496 19.7945L16.8593 19.233C16.0169 18.4336 14.9265 18.035 13.8503 18.0358C12.7024 18.035 11.5467 18.4852 10.6918 19.3777L9.28553 20.8453L3.05581 15.5318C2.60805 15.1485 2.38452 14.6187 2.38288 14.0747C2.38438 13.6189 2.53956 13.1726 2.87041 12.8021L9.44372 5.44049C9.70457 5.14777 10.0904 4.88295 10.5423 4.69906C10.9941 4.51531 11.5071 4.41442 11.9867 4.4151C12.4044 4.4151 12.7963 4.4907 13.1098 4.62592L16.7187 6.16578C17.736 6.59453 18.9171 6.77035 20.1041 6.77418C21.2924 6.77022 22.4721 6.5944 23.4895 6.16578L27.0967 4.6266C27.6527 4.38406 28.4918 4.23367 29.3262 4.23682C30.2489 4.23121 31.1731 4.42221 31.7092 4.69578C32.0496 4.86518 32.3725 5.02596 32.6724 5.17621L28.9935 7.76225C27.8115 8.5935 27.1744 9.91543 27.176 11.2494C27.1745 12.1323 27.4544 13.0311 28.0239 13.7939L28.0224 13.7922L28.5083 14.4452C29.431 15.6718 30.8699 16.3025 32.308 16.3057C33.1201 16.3057 33.9474 16.1005 34.6847 15.6582L36.8848 14.3369C37.3335 14.0625 38.0111 13.8892 38.7118 13.8923C39.5351 13.8875 40.3647 14.131 40.8635 14.4976L46.95 18.8612C48.3047 19.8316 50.511 21.6317 51.7337 22.7644L58.7787 29.2781C59.1958 29.6649 59.4058 30.1875 59.4074 30.7244ZM66.9974 14.5866L57.6122 24.9643L53.3511 21.0255C52.0164 19.7934 49.8155 17.9966 48.3392 16.9362L42.2543 12.5726C41.2226 11.8417 39.9595 11.5257 38.7107 11.5211C37.648 11.5242 36.5773 11.7558 35.6531 12.3061L33.4547 13.6273C33.1174 13.8301 32.7198 13.9336 32.3068 13.9344C31.5685 13.9369 30.8297 13.5923 30.4177 13.0315L29.9333 12.3794L29.9317 12.3777C29.674 12.0302 29.5539 11.6404 29.5522 11.2458C29.5553 10.6492 29.8305 10.0702 30.3636 9.69395L36.8685 5.12344C37.431 4.71629 38.4316 4.43068 39.3821 4.43779C40.0423 4.43465 40.673 4.5674 41.1049 4.78068L46.4007 7.34594C47.3036 7.77947 48.3226 7.9568 49.3477 7.95926C50.6648 7.95283 51.9963 7.66654 53.0934 6.99279L58.503 3.62746C58.8483 3.41199 59.2627 3.30057 59.6947 3.30057C60.4249 3.29906 61.1566 3.62992 61.571 4.16996L67.1174 11.2668C67.4372 11.6732 67.6225 12.2466 67.6225 12.8409C67.6234 13.5055 67.3887 14.1595 66.9974 14.5866Z" fill="#05408E"/>
</svg>
