<svg width="11" height="16" viewBox="0 0 11 16" fill="none" xmlns="http://www.w3.org/2000/svg">
<path d="M5.74305 15.9023L10.8993 10.9023C10.9973 10.8066 11.0272 10.6644 10.9738 10.5391C10.9208 10.4144 10.7952 10.3333 10.6563 10.3333H9.96877C9.87748 10.3333 9.79017 10.3685 9.72572 10.431L6.18751 13.862L6.18751 0.333344C6.18748 0.149094 6.03376 0 5.84375 0L5.15627 0C4.96626 0 4.81251 0.149094 4.81251 0.333344L4.81251 13.862L1.2743 10.431C1.20985 10.3685 1.12258 10.3333 1.03125 10.3333H0.34376C0.204767 10.3333 0.0792446 10.4144 0.0262003 10.5391C0.00841141 10.5804 9.53674e-07 10.6237 9.53674e-07 10.6667C9.53674e-07 10.7532 0.0349016 10.8385 0.100708 10.9023L5.25694 15.9023C5.39123 16.0326 5.60876 16.0326 5.74305 15.9023Z" fill="#EB5757"/>
</svg>
