<svg width="12" height="8" viewBox="0 0 12 8" fill="none" xmlns="http://www.w3.org/2000/svg">
<path opacity="0.7" d="M6.46824 7.35307L11.8083 2.01076C11.9319 1.8872 12 1.72226 12 1.54638C12 1.37051 11.9319 1.20557 11.8083 1.08201L11.4151 0.688582C11.1589 0.432578 10.7425 0.432578 10.4867 0.688582L6.00249 5.17465L1.51326 0.683604C1.38965 0.560043 1.22487 0.491821 1.04916 0.491821C0.873261 0.491821 0.708482 0.560043 0.584775 0.683604L0.191706 1.07703C0.0680971 1.20069 0 1.36553 0 1.54141C0 1.71728 0.0680971 1.88222 0.191706 2.00579L5.53664 7.35307C5.66064 7.47692 5.8262 7.54495 6.00219 7.54456C6.17888 7.54495 6.34434 7.47692 6.46824 7.35307Z" fill="#071A30"/>
</svg>
