<svg width="17" height="14" viewBox="0 0 17 14" fill="none" xmlns="http://www.w3.org/2000/svg">
<path fill-rule="evenodd" clip-rule="evenodd" d="M14.8811 0H1.53944C0.690539 0 0 0.784995 0 1.75001V12.25C0 13.215 0.690539 14 1.53944 14H14.8811C15.73 14 16.4205 13.215 16.4205 12.25V1.75001C16.4205 0.784995 15.73 0 14.8811 0ZM14.8811 1.16619C14.9508 1.16619 15.0171 1.18264 15.0778 1.21136L8.21026 7.97764L1.34271 1.21136C1.40335 1.18268 1.46967 1.16619 1.53939 1.16619H14.8811ZM1.02628 12.249C1.02628 12.5709 1.25631 12.8323 1.53943 12.8323H14.8811C15.1642 12.8323 15.3942 12.5709 15.3943 12.249V2.44343L8.54652 9.18993C8.44979 9.28508 8.33003 9.33234 8.21026 9.33234C8.0905 9.33234 7.97074 9.28504 7.87401 9.18993L1.02628 2.44343V12.249Z" fill="#071A30"/>
</svg>
