<svg width="19" height="15" viewBox="0 0 19 15" fill="none" xmlns="http://www.w3.org/2000/svg">
<path fill-rule="evenodd" clip-rule="evenodd" d="M17.2187 0.891479H1.78126C0.799014 0.891479 0 1.67679 0 2.64219V13.1464C0 14.1118 0.799014 14.8971 1.78126 14.8971H17.2187C18.201 14.8971 19 14.1118 19 13.1464V2.64219C19 1.67679 18.201 0.891479 17.2187 0.891479ZM17.2187 2.05814C17.2994 2.05814 17.3762 2.07459 17.4463 2.10332L9.5 8.87231L1.55365 2.10332C1.62381 2.07463 1.70055 2.05814 1.78122 2.05814H17.2187ZM1.18749 13.1453C1.18749 13.4674 1.45366 13.7289 1.78126 13.7289H17.2187C17.5463 13.7289 17.8125 13.4674 17.8125 13.1454V3.33589L9.88908 10.0851C9.77715 10.1803 9.63858 10.2276 9.5 10.2276C9.36142 10.2276 9.22285 10.1802 9.11092 10.0851L1.18749 3.33589V13.1453Z" fill="white"/>
</svg>
