<svg width="23" height="23" viewBox="0 0 23 23" fill="none" xmlns="http://www.w3.org/2000/svg">
<g clip-path="url(#clip0)">
<path d="M20.9784 2.74023H2.02132C1.71015 2.74023 1.41883 2.81674 1.15527 2.94283L11.4549 13.2425L13.7634 11.0239C13.7634 11.0239 13.7636 11.0237 13.7636 11.0236C13.7637 11.0235 13.7639 11.0234 13.7639 11.0234L21.8447 2.94301C21.5811 2.81683 21.2896 2.74023 20.9784 2.74023Z" fill="white"/>
<path d="M22.7979 3.89594L15.1934 11.5L22.7976 19.1043C22.9237 18.8407 23.0002 18.5494 23.0002 18.2382V4.76167C23.0002 4.45068 22.9239 4.1594 22.7979 3.89594Z" fill="white"/>
<path d="M0.202598 3.89572C0.076502 4.15928 0 4.4506 0 4.76177V18.2383C0 18.5493 0.0764121 18.8407 0.202418 19.1042L7.80693 11.5001L0.202598 3.89572Z" fill="white"/>
<path d="M14.2405 12.453L11.9317 14.6718C11.8 14.8034 11.6276 14.8693 11.4553 14.8693C11.2829 14.8693 11.1105 14.8034 10.9789 14.6718L8.75992 12.4529L1.15527 20.0571C1.41887 20.1832 1.71037 20.2598 2.02164 20.2598H20.9787C21.2898 20.2598 21.5812 20.1833 21.8447 20.0572L14.2405 12.453Z" fill="white"/>
</g>
<defs>
<clipPath id="clip0">
<rect width="23" height="23" fill="white"/>
</clipPath>
</defs>
</svg>
