<svg width="20" height="20" viewBox="0 0 20 20" fill="none" xmlns="http://www.w3.org/2000/svg">
<path d="M4.43245 12.0863L3.73627 14.6852L1.19176 14.7391C0.431331 13.3286 0 11.7149 0 10.0001C0 8.3418 0.403284 6.77805 1.11813 5.40112H1.11868L3.384 5.81644L4.37635 8.06817C4.16866 8.67368 4.05545 9.32369 4.05545 10.0001C4.05553 10.7341 4.1885 11.4374 4.43245 12.0863Z" fill="#FBBB00"/>
<path d="M19.8257 8.13196C19.9406 8.73688 20.0004 9.36161 20.0004 10.0001C20.0004 10.716 19.9252 11.4144 19.7818 12.088C19.295 14.3804 18.023 16.382 16.2609 17.7985L16.2603 17.798L13.407 17.6524L13.0032 15.1315C14.1724 14.4457 15.0862 13.3727 15.5675 12.088H10.2202V8.13196H15.6455H19.8257Z" fill="#518EF8"/>
<path d="M16.2605 17.7979L16.2611 17.7984C14.5473 19.1759 12.3704 20.0001 10.0006 20.0001C6.19234 20.0001 2.88134 17.8715 1.19231 14.7391L4.43299 12.0863C5.27749 14.3401 7.45168 15.9446 10.0006 15.9446C11.0962 15.9446 12.1226 15.6484 13.0034 15.1314L16.2605 17.7979Z" fill="#28B446"/>
<path d="M16.3836 2.3022L13.144 4.9544C12.2324 4.38463 11.1549 4.05549 10.0005 4.05549C7.39393 4.05549 5.17908 5.73351 4.37688 8.06817L1.11917 5.40113H1.11862C2.78293 2.19232 6.13568 0 10.0005 0C12.4269 0 14.6517 0.864302 16.3836 2.3022Z" fill="#F14336"/>
</svg>
