<svg width="45" height="44" viewBox="0 0 45 44" fill="none" xmlns="http://www.w3.org/2000/svg">
<path fill-rule="evenodd" clip-rule="evenodd" d="M22.9121 44C35.0624 44 44.9121 34.1503 44.9121 22C44.9121 9.84974 35.0624 0 22.9121 0C10.7618 0 0.912109 9.84974 0.912109 22C0.912109 34.1503 10.7618 44 22.9121 44Z" fill="#777C80" fill-opacity="0.08"/>
<g clip-path="url(#clip0)">
<path d="M22.0016 24.4909C21.537 24.1668 21.0405 23.9027 20.5213 23.7009C21.212 23.0731 21.6702 22.1936 21.7499 21.2091C22.7974 20.1884 24.1704 19.6289 25.6423 19.6289C26.7914 19.6289 27.8947 19.9749 28.8332 20.6294C29.1695 20.8639 29.6319 20.7816 29.8664 20.4453C30.1008 20.1091 30.0185 19.6466 29.6823 19.4122C29.2177 19.088 28.7211 18.8241 28.2019 18.6221C28.9641 17.9294 29.4433 16.9305 29.4433 15.8218C29.4433 13.7349 27.7456 12.0371 25.6586 12.0371C23.5718 12.0371 21.874 13.7349 21.874 15.8218C21.874 16.926 22.3493 17.9213 23.1063 18.6137C23.0027 18.6536 22.8996 18.6958 22.7975 18.7407C22.3331 18.9451 21.8965 19.1965 21.4904 19.4916C20.9305 18.1004 19.5671 17.1159 17.978 17.1159C15.8911 17.1159 14.1932 18.8136 14.1932 20.9004C14.1932 22.0016 14.6659 22.9941 15.4189 23.6863C13.4058 24.4405 11.7736 26.0604 11.1091 28.1263C10.8888 28.8114 11.0055 29.5379 11.4293 30.1197C11.8532 30.7012 12.509 31.0348 13.2285 31.0348H19.6848C20.0946 31.0348 20.4269 30.7025 20.4269 30.2926C20.4269 29.8828 20.0946 29.5506 19.6848 29.5506H13.2285C12.9886 29.5506 12.77 29.4394 12.6287 29.2454C12.4874 29.0515 12.4485 28.8092 12.5219 28.5808C13.2554 26.3003 15.4924 24.7076 17.9617 24.7076C19.1107 24.7076 20.2141 25.0537 21.1525 25.7081C21.4887 25.9427 21.9513 25.8602 22.1858 25.524C22.4202 25.1879 22.3379 24.7253 22.0016 24.4909ZM25.6586 13.5213C26.9271 13.5213 27.9591 14.5533 27.9591 15.8218C27.9591 17.0902 26.9271 18.1223 25.6586 18.1223C24.3902 18.1223 23.3581 17.0902 23.3581 15.8218C23.3581 14.5533 24.3902 13.5213 25.6586 13.5213ZM17.978 18.6C19.2465 18.6 20.2785 19.6321 20.2785 20.9004C20.2785 22.169 19.2465 23.2009 17.978 23.2009C16.7094 23.2009 15.6775 22.169 15.6775 20.9004C15.6775 19.6321 16.7094 18.6 17.978 18.6ZM29.9999 27.5098C29.9999 27.9196 29.6677 28.2519 29.2578 28.2519H27.217V30.2926C27.217 30.7025 26.8848 31.0348 26.475 31.0348C26.065 31.0348 25.7328 30.7025 25.7328 30.2926V28.2519H23.6921C23.2823 28.2519 22.95 27.9196 22.95 27.5098C22.95 27.0999 23.2823 26.7676 23.6921 26.7676H25.7328V24.7269C25.7328 24.3171 26.065 23.9849 26.475 23.9849C26.8848 23.9849 27.217 24.3171 27.217 24.7269V26.7676H29.2578C29.6677 26.7676 29.9999 27.0999 29.9999 27.5098Z" fill="#FF785C"/>
</g>
<defs>
<clipPath id="clip0">
<rect x="11" y="12" width="19" height="19" fill="white"/>
</clipPath>
</defs>
</svg>
