<svg width="24" height="22" viewBox="0 0 24 22" fill="none" xmlns="http://www.w3.org/2000/svg">
<path d="M17.75 0C15.0879 0 12.8892 2.47266 12 3.63966C11.1108 2.47266 8.91211 0 6.24998 0C2.80373 0 0 3.16847 0 7.06252C0 9.18703 0.843281 11.167 2.31933 12.522C2.3408 12.5591 2.36719 12.5933 2.39794 12.624L11.647 21.854C11.7446 21.9512 11.8721 22 12 22C12.1279 22 12.2558 21.9512 12.3535 21.8535L21.9102 12.3003L22.0088 12.2046C22.0869 12.1309 22.1641 12.0562 22.2505 11.9605C22.2866 11.9249 22.3164 11.8848 22.3394 11.8413C23.4112 10.5288 24 8.83594 24 7.06252C24 3.16847 21.1963 0 17.75 0ZM21.5073 11.2788C21.4936 11.295 21.4809 11.312 21.4697 11.3296C21.4229 11.3833 21.3716 11.4307 21.3208 11.479L11.9995 20.7935L3.21877 12.0303C3.19045 11.9746 3.15089 11.9238 3.10256 11.8814C1.76611 10.7144 0.999984 8.958 0.999984 7.06252C0.999984 3.71972 3.35498 1.00003 6.24998 1.00003C9.11231 1.00003 11.5552 4.73344 11.5796 4.77103C11.7642 5.05617 12.2358 5.05617 12.4204 4.77103C12.4448 4.73344 14.8877 1.00003 17.75 1.00003C20.645 1.00003 23 3.71977 23 7.06252C23 8.6377 22.4697 10.1353 21.5073 11.2788Z" fill="#071A30"/>
</svg>
