<svg width="20" height="16" viewBox="0 0 20 16" fill="none" xmlns="http://www.w3.org/2000/svg">
<path d="M19.9834 2.08566C19.4324 2.89157 18.7663 3.57824 17.985 4.14567C17.9932 4.2608 17.9974 4.4335 17.9974 4.66376C17.9974 5.73283 17.8411 6.8019 17.5286 7.87097C17.2161 8.93181 16.7391 9.95154 16.0977 10.9301C15.4645 11.9088 14.7079 12.7763 13.828 13.5329C12.9481 14.2813 11.8872 14.8816 10.6455 15.3339C9.40369 15.778 8.07558 16 6.66112 16C4.43252 16 2.39307 15.4038 0.542758 14.2114C0.830584 14.2443 1.1513 14.2607 1.50492 14.2607C3.35523 14.2607 5.00406 13.6933 6.45142 12.5584C5.58794 12.542 4.81492 12.2788 4.13236 11.769C3.4498 11.2509 2.98106 10.593 2.72613 9.79529C2.9975 9.83641 3.24832 9.85697 3.47858 9.85697C3.8322 9.85697 4.1817 9.81174 4.52709 9.72128C3.60605 9.53213 2.84126 9.07572 2.23271 8.35205C1.63239 7.62015 1.33222 6.77312 1.33222 5.81095V5.76161C1.89143 6.07411 2.49175 6.24269 3.13319 6.26736C2.59044 5.90552 2.1587 5.43267 1.83798 4.84879C1.51726 4.26492 1.35689 3.6317 1.35689 2.94914C1.35689 2.22546 1.53781 1.55524 1.89965 0.938468C2.89471 2.16378 4.10358 3.14651 5.52626 3.88663C6.95717 4.61853 8.48676 5.0256 10.115 5.10784C10.0492 4.79534 10.0164 4.49106 10.0164 4.19501C10.0164 3.09305 10.4029 2.15556 11.1759 1.38254C11.9571 0.6013 12.8987 0.210679 14.0007 0.210679C15.152 0.210679 16.1224 0.630083 16.9118 1.46889C17.8082 1.29619 18.6511 0.975474 19.4406 0.506729C19.1363 1.45244 18.5525 2.18434 17.689 2.70243C18.4538 2.6202 19.2186 2.4146 19.9834 2.08566Z" fill="white"/>
</svg>
