<svg width="20" height="16" viewBox="0 0 20 16" fill="none" xmlns="http://www.w3.org/2000/svg">
<path d="M19.8884 2.15178C19.34 2.95387 18.6771 3.63728 17.8996 4.20201C17.9077 4.31659 17.9118 4.48847 17.9118 4.71763C17.9118 5.78162 17.7563 6.84561 17.4453 7.9096C17.1343 8.9654 16.6596 9.98028 16.0212 10.9542C15.391 11.9282 14.638 12.7917 13.7623 13.5446C12.8865 14.2894 11.8307 14.8869 10.5949 15.3371C9.359 15.779 8.0372 16 6.62946 16C4.41146 16 2.3817 15.4066 0.540179 14.2199C0.826637 14.2526 1.14583 14.269 1.49777 14.269C3.33929 14.269 4.98028 13.7042 6.42076 12.5748C5.56138 12.5584 4.79204 12.2965 4.11272 11.7891C3.43341 11.2734 2.96689 10.6187 2.71317 9.82478C2.98326 9.8657 3.23289 9.88616 3.46205 9.88616C3.81399 9.88616 4.16183 9.84115 4.50558 9.75112C3.58891 9.56287 2.82775 9.10863 2.2221 8.38839C1.62463 7.65997 1.32589 6.81696 1.32589 5.85937V5.81027C1.88244 6.12128 2.47991 6.28906 3.1183 6.31362C2.57813 5.9535 2.14844 5.48289 1.82924 4.90178C1.51004 4.32068 1.35045 3.69048 1.35045 3.01116C1.35045 2.29092 1.53051 1.62388 1.89063 1.01004C2.88095 2.22954 4.08408 3.20759 5.5 3.9442C6.92411 4.67262 8.44643 5.07775 10.067 5.1596C10.0015 4.84859 9.96875 4.54576 9.96875 4.25112C9.96875 3.15439 10.3534 2.22135 11.1228 1.45201C11.9003 0.674479 12.8374 0.285714 13.9342 0.285714C15.08 0.285714 16.0458 0.703125 16.8315 1.53795C17.7236 1.36607 18.5625 1.04687 19.3482 0.580357C19.0454 1.52158 18.4643 2.25 17.6049 2.76562C18.3661 2.68378 19.1272 2.47917 19.8884 2.15178Z" fill="#55ACEE"/>
</svg>
