<svg width="20" height="13" viewBox="0 0 20 13" fill="none" xmlns="http://www.w3.org/2000/svg">
<path d="M12.1417 6.73608C12.1417 7.90771 11.8966 8.95261 11.4066 9.87077C10.9165 10.7833 10.218 11.4959 9.31115 12.0084C8.40425 12.5267 7.36499 12.7858 6.19335 12.7858C5.35405 12.7858 4.55137 12.6224 3.78529 12.2957C3.01922 11.969 2.36018 11.5297 1.80815 10.9776C1.25613 10.4256 0.816767 9.76656 0.49006 9.00049C0.163353 8.23442 0 7.43174 0 6.59244C0 5.75314 0.163353 4.95045 0.49006 4.18438C0.816767 3.41831 1.25613 2.75926 1.80815 2.20724C2.36018 1.65522 3.01922 1.21585 3.78529 0.889148C4.55137 0.562441 5.35405 0.399087 6.19335 0.399087C7.80435 0.399087 9.18722 0.939843 10.342 2.02136L8.66055 3.63518C8.0015 2.99866 7.1791 2.6804 6.19335 2.6804C5.50051 2.6804 4.85836 2.85502 4.26691 3.20426C3.68109 3.5535 3.21637 4.02948 2.87277 4.6322C2.52916 5.22928 2.35736 5.88269 2.35736 6.59244C2.35736 7.30218 2.52916 7.95841 2.87277 8.56113C3.21637 9.15821 3.68109 9.63137 4.26691 9.98061C4.85836 10.3299 5.50051 10.5045 6.19335 10.5045C6.66088 10.5045 7.08898 10.4397 7.47765 10.3101C7.87195 10.1806 8.19584 10.02 8.44932 9.82853C8.7028 9.63137 8.92248 9.40888 9.10836 9.16103C9.29988 8.91318 9.43789 8.67942 9.52238 8.45974C9.61251 8.24005 9.67447 8.03164 9.70827 7.83449H6.19335V5.70526H12.0403C12.1079 6.06013 12.1417 6.40374 12.1417 6.73608ZM19.4672 5.70526V7.47962H17.7013V9.24552H15.927V7.47962H14.1611V5.70526H15.927V3.93935H17.7013V5.70526H19.4672Z" fill="white"/>
</svg>
