<svg width="19" height="19" viewBox="0 0 19 19" fill="none" xmlns="http://www.w3.org/2000/svg">
<path fill-rule="evenodd" clip-rule="evenodd" d="M5.8284 0H14.1013C16.783 0 18.9648 2.18283 18.9648 4.86618V13.143C18.9648 15.8262 16.783 18.0091 14.1013 18.0091H5.8284C3.14668 18.0091 0.964844 15.8262 0.964844 13.143V4.86618C0.964844 2.18283 3.14668 0 5.8284 0ZM14.1013 16.5541C15.9812 16.5541 17.5106 15.0238 17.5106 13.143V4.86618C17.5106 2.98513 15.9812 1.45496 14.1013 1.45496H5.8284C3.94847 1.45496 2.41907 2.98513 2.41907 4.86618V13.143C2.41907 15.0241 3.94847 16.5541 5.8284 16.5541H14.1013ZM12.8547 6.11309C13.4716 6.73037 13.8653 7.51304 13.9933 8.37641C14.1514 9.44337 13.8848 10.5081 13.2425 11.3745C12.6002 12.2409 11.6592 12.8051 10.5927 12.9633C10.392 12.9931 10.1913 13.0077 9.9921 13.0077C9.13264 13.0077 8.29907 12.7339 7.59611 12.2123C6.73014 11.5696 6.1662 10.6282 6.00799 9.56102C5.84985 8.49408 6.11655 7.42951 6.75876 6.56286C7.40106 5.69656 8.34208 5.13238 9.40859 4.97396C9.80144 4.91592 10.1998 4.91592 10.5927 4.97396C11.4556 5.10207 12.2378 5.49603 12.8547 6.11309ZM8.46241 11.0436C9.01636 11.4548 9.6972 11.6255 10.3794 11.5241C11.7877 11.3152 12.7636 9.99878 12.5547 8.58974C12.3867 7.45601 11.5125 6.58149 10.3793 6.41343C10.2537 6.39468 10.1272 6.38559 10.0006 6.38559C9.87411 6.38559 9.74754 6.39468 9.62192 6.4132C8.93965 6.51459 8.3377 6.87544 7.92676 7.42994C7.5159 7.98391 7.34537 8.66507 7.44653 9.34758C7.54767 10.0303 7.90848 10.6326 8.46241 11.0436ZM14.5149 3.7247C14.7062 3.7247 14.8936 3.80227 15.0291 3.93778C15.1644 4.07319 15.242 4.26068 15.242 4.45211C15.242 4.64366 15.1644 4.83115 15.0291 4.96679C14.8936 5.10207 14.7062 5.17964 14.5149 5.17964C14.3236 5.17964 14.1361 5.10207 14.0007 4.96679C13.8653 4.83115 13.7878 4.64399 13.7878 4.45211C13.7878 4.26035 13.8653 4.07319 14.0007 3.93778C14.1361 3.80227 14.3236 3.7247 14.5149 3.7247Z" fill="white"/>
</svg>
