<svg width="20" height="14" viewBox="0 0 20 14" fill="none" xmlns="http://www.w3.org/2000/svg">
<path d="M0.474573 7.28408L6.50136 13.3109C6.61673 13.4254 6.7882 13.4604 6.93924 13.398C7.08954 13.336 7.18721 13.1892 7.18721 13.0268V12.2233C7.18721 12.1165 7.14483 12.0145 7.0695 11.9392L2.93392 7.80359L19.2408 7.80359C19.4629 7.80355 19.6426 7.62388 19.6426 7.40179V6.59823C19.6426 6.37614 19.4629 6.19643 19.2408 6.19643L2.93392 6.19643L7.0695 2.06085C7.14483 1.98551 7.18721 1.88351 7.18721 1.77676L7.18721 0.973203C7.18721 0.810743 7.0895 0.664028 6.93924 0.602028C6.88941 0.581236 6.83724 0.571404 6.78545 0.571404C6.68107 0.571404 6.57828 0.612199 6.50136 0.689116L0.474573 6.7159C0.317614 6.87286 0.317614 7.12712 0.474573 7.28408Z" fill="#071A30"/>
</svg>
