<svg width="15" height="19" viewBox="0 0 15 19" fill="none" xmlns="http://www.w3.org/2000/svg">
<path opacity="0.4" fill-rule="evenodd" clip-rule="evenodd" d="M8.92242 18.1147C8.56082 18.6691 7.93123 19 7.2381 19C6.54502 19 5.91537 18.6691 5.55377 18.1147C3.02018 14.2306 0 9.11152 0 6.78216C0 3.04246 3.24697 0 7.2381 0C11.2292 0 14.4762 3.04246 14.4762 6.78216C14.4762 9.11152 11.4561 14.2306 8.92242 18.1147ZM7.23809 3.59056C5.63391 3.59056 4.32878 4.81344 4.32878 6.31653C4.32878 7.81971 5.63391 9.04254 7.23809 9.04254C8.84226 9.04254 10.1474 7.81967 10.1474 6.31653C10.1474 4.81344 8.84226 3.59056 7.23809 3.59056Z" fill="#071A30"/>
</svg>
