<svg width="87" height="38" viewBox="0 0 87 38" fill="none" xmlns="http://www.w3.org/2000/svg">
<path d="M5.585 23.004H14.354V27H0.368V0.877999H5.585V23.004ZM26.9308 6.243C28.9288 6.243 30.7172 6.66233 32.2958 7.501C33.8992 8.33967 35.1572 9.56067 36.0698 11.164C36.9825 12.7427 37.4388 14.605 37.4388 16.751C37.4388 18.897 36.9825 20.7593 36.0698 22.338C35.1572 23.9167 33.8992 25.1377 32.2958 26.001C30.7172 26.8397 28.9288 27.259 26.9308 27.259C24.9328 27.259 23.1322 26.8397 21.5288 26.001C19.9502 25.1377 18.7045 23.9167 17.7918 22.338C16.8792 20.7593 16.4228 18.897 16.4228 16.751C16.4228 14.605 16.8792 12.7427 17.7918 11.164C18.7045 9.56067 19.9502 8.33967 21.5288 7.501C23.1322 6.66233 24.9328 6.243 26.9308 6.243ZM26.9308 10.757C25.4755 10.757 24.2422 11.275 23.2308 12.311C22.2195 13.3223 21.7138 14.8023 21.7138 16.751C21.7138 18.6997 22.2195 20.192 23.2308 21.228C24.2422 22.2393 25.4755 22.745 26.9308 22.745C28.3862 22.745 29.6195 22.2393 30.6308 21.228C31.6422 20.192 32.1478 18.6997 32.1478 16.751C32.1478 14.8023 31.6422 13.3223 30.6308 12.311C29.6195 11.275 28.3862 10.757 26.9308 10.757ZM49.1548 6.243C50.8815 6.243 52.3615 6.65 53.5948 7.464C54.8281 8.278 55.7038 9.37567 56.2218 10.757V6.502H61.4018V27.074C61.4018 28.9733 61.0195 30.6753 60.2548 32.18C59.5148 33.7093 58.3925 34.9057 56.8878 35.769C55.4078 36.6323 53.6071 37.064 51.4858 37.064C48.5258 37.064 46.1331 36.361 44.3078 34.955C42.4825 33.549 41.3725 31.6373 40.9778 29.22H46.1208C46.4168 30.256 46.9841 31.0577 47.8228 31.625C48.6861 32.217 49.7838 32.513 51.1158 32.513C52.6451 32.513 53.8785 32.0567 54.8158 31.144C55.7531 30.256 56.2218 28.8993 56.2218 27.074V22.708C55.7038 24.0893 54.8281 25.1993 53.5948 26.038C52.3615 26.852 50.8815 27.259 49.1548 27.259C47.4281 27.259 45.8741 26.8397 44.4928 26.001C43.1115 25.1623 42.0261 23.9537 41.2368 22.375C40.4721 20.7717 40.0898 18.897 40.0898 16.751C40.0898 14.605 40.4721 12.7427 41.2368 11.164C42.0261 9.56067 43.1115 8.33967 44.4928 7.501C45.8741 6.66233 47.4281 6.243 49.1548 6.243ZM50.7828 10.794C49.1548 10.794 47.8475 11.3243 46.8608 12.385C45.8741 13.4457 45.3808 14.901 45.3808 16.751C45.3808 18.601 45.8741 20.0563 46.8608 21.117C47.8475 22.153 49.1548 22.671 50.7828 22.671C52.3615 22.671 53.6565 22.1407 54.6678 21.08C55.7038 19.9947 56.2218 18.5517 56.2218 16.751C56.2218 14.9257 55.7038 13.4827 54.6678 12.422C53.6565 11.3367 52.3615 10.794 50.7828 10.794ZM75.6017 6.243C77.5997 6.243 79.3881 6.66233 80.9667 7.501C82.5701 8.33967 83.8281 9.56067 84.7407 11.164C85.6534 12.7427 86.1097 14.605 86.1097 16.751C86.1097 18.897 85.6534 20.7593 84.7407 22.338C83.8281 23.9167 82.5701 25.1377 80.9667 26.001C79.3881 26.8397 77.5997 27.259 75.6017 27.259C73.6037 27.259 71.8031 26.8397 70.1997 26.001C68.6211 25.1377 67.3754 23.9167 66.4627 22.338C65.5501 20.7593 65.0937 18.897 65.0937 16.751C65.0937 14.605 65.5501 12.7427 66.4627 11.164C67.3754 9.56067 68.6211 8.33967 70.1997 7.501C71.8031 6.66233 73.6037 6.243 75.6017 6.243ZM75.6017 10.757C74.1464 10.757 72.9131 11.275 71.9017 12.311C70.8904 13.3223 70.3847 14.8023 70.3847 16.751C70.3847 18.6997 70.8904 20.192 71.9017 21.228C72.9131 22.2393 74.1464 22.745 75.6017 22.745C77.0571 22.745 78.2904 22.2393 79.3017 21.228C80.3131 20.192 80.8187 18.6997 80.8187 16.751C80.8187 14.8023 80.3131 13.3223 79.3017 12.311C78.2904 11.275 77.0571 10.757 75.6017 10.757Z" fill="#071A30"/>
</svg>
