<svg width="87" height="27" viewBox="0 0 87 27" fill="none" xmlns="http://www.w3.org/2000/svg">
<path fill-rule="evenodd" clip-rule="evenodd" d="M23.8158 26.3148L17.8278 26.413C17.7314 26.4146 17.6386 26.3774 17.5704 26.3101L9.63086 18.4615L13.6539 14.4846L24.3093 25.1171C24.5857 25.3929 24.5836 25.8381 24.3046 26.1113C24.1743 26.2389 23.9992 26.3118 23.8158 26.3148Z" fill="#0054CC"/>
<path fill-rule="evenodd" clip-rule="evenodd" d="M22.791 1.67795C23.9226 2.77914 23.9226 4.56453 22.791 5.66572L8.44849 19.6229C7.3169 20.7241 5.48223 20.7241 4.35065 19.6229C3.21906 18.5217 3.21906 16.7363 4.35065 15.6352L18.6931 1.67795C19.8247 0.576752 21.6594 0.576752 22.791 1.67795Z" fill="#003F93"/>
<path fill-rule="evenodd" clip-rule="evenodd" d="M3.06443 0C4.75687 0 6.12887 1.2207 6.12887 2.72651V10.906C6.12887 12.4118 4.75687 13.6325 3.06443 13.6325C1.37199 13.6325 0 12.4118 0 10.906V2.72651C0 1.2207 1.37199 0 3.06443 0Z" fill="#0054CC"/>
<path d="M34.5592 27C35.6874 27 36.6798 26.8879 37.5364 26.6637C38.393 26.4396 39.0928 26.1746 39.636 25.8689C40.0121 25.6447 40.3098 25.4053 40.5292 25.1505C40.7486 24.8957 40.8582 24.534 40.8582 24.0652V16.9423C40.8582 15.1692 40.2837 13.8699 39.1346 13.0445C37.9856 12.2191 36.4395 11.8064 34.4965 11.8064C33.6609 11.8064 32.867 11.8726 32.1148 12.0051C31.3627 12.1376 30.6942 12.3465 30.1092 12.6318C29.7331 12.7949 29.4563 12.9885 29.2787 13.2127C29.1011 13.4368 29.0123 13.7222 29.0123 14.0686C29.0123 14.354 29.0855 14.6138 29.2317 14.8482C29.3779 15.0826 29.5555 15.2813 29.7645 15.4443C30.3703 15.159 31.0598 14.9042 31.8328 14.68C32.6058 14.4559 33.4102 14.3438 34.2458 14.3438C35.3113 14.3438 36.1418 14.5476 36.7372 14.9552C37.3327 15.3628 37.6304 16.015 37.6304 16.9117V17.5843L33.2744 18.0123C31.603 18.1753 30.3233 18.6135 29.4354 19.3268C28.5475 20.0401 28.1035 21.0693 28.1035 22.4144C28.1035 23.9226 28.6728 25.0639 29.8115 25.8383C30.9501 26.6128 32.5327 27 34.5592 27ZM34.5592 24.4932C33.4519 24.4932 32.6371 24.3047 32.1148 23.9277C31.5925 23.5506 31.3314 23.0258 31.3314 22.3533C31.3314 21.7011 31.5716 21.2171 32.0522 20.9012C32.5327 20.5853 33.2535 20.3764 34.2145 20.2745L37.6304 19.9382V23.8207C37.4006 23.9837 37.0141 24.1366 36.4709 24.2792C35.9277 24.4219 35.2905 24.4932 34.5592 24.4932ZM63.9378 26.7249C64.2511 26.7249 64.5384 26.6994 64.7996 26.6485C65.0607 26.5975 65.2749 26.5415 65.442 26.4803V16.8506C65.442 15.9742 65.2958 15.2201 65.0033 14.5883C64.7108 13.9565 64.3086 13.4317 63.7967 13.0139C63.2849 12.5961 62.6738 12.2904 61.9634 12.0968C61.2531 11.9032 60.4905 11.8064 59.6757 11.8064C58.6102 11.8064 57.6753 11.9542 56.871 12.2497C56.0666 12.5452 55.3719 12.9171 54.787 13.3655C54.2855 12.856 53.6431 12.4688 52.8596 12.2038C52.0762 11.9389 51.1935 11.8064 50.2115 11.8064C49.2714 11.8064 48.3417 11.9389 47.4224 12.2038C46.5032 12.4688 45.7406 12.7949 45.1347 13.1821C44.696 13.4674 44.3826 13.7527 44.1946 14.0381C44.0065 14.3234 43.9125 14.7004 43.9125 15.1692V25.2575C43.9125 25.7874 44.0588 26.1644 44.3513 26.3886C44.6438 26.6128 45.0929 26.7249 45.6988 26.7249C46.0122 26.7249 46.2995 26.6994 46.5606 26.6485C46.8218 26.5975 47.0255 26.5415 47.1717 26.4803V15.2609C47.5269 15.0367 47.9656 14.8329 48.4879 14.6495C49.0102 14.4661 49.5639 14.3743 50.1489 14.3743C51.0263 14.3743 51.7262 14.5832 52.2485 15.001C52.7709 15.4188 53.032 16.0761 53.032 16.9728V25.2575C53.032 25.7874 53.1783 26.1644 53.4707 26.3886C53.7632 26.6128 54.2124 26.7249 54.8183 26.7249C55.1108 26.7249 55.3928 26.6994 55.6644 26.6485C55.936 26.5975 56.1449 26.5415 56.2912 26.4803V16.6366C56.2912 16.4531 56.2808 16.2697 56.2599 16.0863C56.239 15.9029 56.2076 15.7296 56.1658 15.5666C56.6046 15.1998 57.0903 14.9093 57.6231 14.6953C58.1558 14.4813 58.7147 14.3743 59.2997 14.3743C60.1772 14.3743 60.8718 14.5832 61.3837 15.001C61.8955 15.4188 62.1515 16.0761 62.1515 16.9728V25.2575C62.1515 25.7874 62.2977 26.1644 62.5902 26.3886C62.8827 26.6128 63.3319 26.7249 63.9378 26.7249ZM74.1372 27C75.2654 27 76.2578 26.8879 77.1144 26.6637C77.9709 26.4396 78.6708 26.1746 79.214 25.8689C79.5901 25.6447 79.8878 25.4053 80.1072 25.1505C80.3265 24.8957 80.4362 24.534 80.4362 24.0652V16.9423C80.4362 15.1692 79.8617 13.8699 78.7126 13.0445C77.5635 12.2191 76.0175 11.8064 74.0745 11.8064C73.2388 11.8064 72.4449 11.8726 71.6928 12.0051C70.9407 12.1376 70.2721 12.3465 69.6872 12.6318C69.3111 12.7949 69.0343 12.9885 68.8567 13.2127C68.6791 13.4368 68.5903 13.7222 68.5903 14.0686C68.5903 14.354 68.6634 14.6138 68.8097 14.8482C68.9559 15.0826 69.1335 15.2813 69.3424 15.4443C69.9483 15.159 70.6378 14.9042 71.4108 14.68C72.1838 14.4559 72.9881 14.3438 73.8238 14.3438C74.8893 14.3438 75.7198 14.5476 76.3152 14.9552C76.9107 15.3628 77.2084 16.015 77.2084 16.9117V17.5843L72.8523 18.0123C71.181 18.1753 69.9013 18.6135 69.0134 19.3268C68.1255 20.0401 67.6815 21.0693 67.6815 22.4144C67.6815 23.9226 68.2508 25.0639 69.3894 25.8383C70.5281 26.6128 72.1107 27 74.1372 27ZM74.1372 24.4932C73.0299 24.4932 72.2151 24.3047 71.6928 23.9277C71.1705 23.5506 70.9094 23.0258 70.9094 22.3533C70.9094 21.7011 71.1496 21.2171 71.6301 20.9012C72.1107 20.5853 72.8314 20.3764 73.7925 20.2745L77.2084 19.9382V23.8207C76.9785 23.9837 76.592 24.1366 76.0489 24.2792C75.5056 24.4219 74.8684 24.4932 74.1372 24.4932ZM85.4962 26.7249C85.8096 26.7249 86.0968 26.6994 86.358 26.6485C86.6191 26.5975 86.8333 26.5415 87.0004 26.4803V7.92393C87.0004 7.39404 86.8542 7.01701 86.5617 6.79282C86.2692 6.56864 85.82 6.45654 85.2141 6.45654C84.9007 6.45654 84.6083 6.48711 84.3367 6.54825C84.0651 6.6094 83.8561 6.66035 83.7099 6.70111V25.2575C83.7099 25.7874 83.8561 26.1644 84.1486 26.3886C84.4411 26.6128 84.8903 26.7249 85.4962 26.7249Z" fill="#0052D4"/>
</svg>
