<svg width="15" height="25" viewBox="0 0 15 25" fill="none" xmlns="http://www.w3.org/2000/svg">
<path fill-rule="evenodd" clip-rule="evenodd" d="M0 9.30055C0 4.64622 3.27289 0.859619 7.29579 0.859619C11.3187 0.859619 14.5916 4.64622 14.5916 9.30055C14.5916 10.8264 14.2358 12.3218 13.5625 13.6251L7.91869 24.5274C7.80978 24.7379 7.61393 24.8675 7.40191 24.8694H7.39708C7.18688 24.8694 6.99144 24.7437 6.8805 24.5369L1.08906 13.7392C0.376503 12.4078 0 10.8731 0 9.30055ZM7.38756 22.8142L12.5187 12.9023C13.079 11.8177 13.3794 10.5719 13.3794 9.30005C13.3794 5.42146 10.6479 2.25659 7.29547 2.25659C3.94304 2.25659 1.20752 5.42146 1.20752 9.30005C1.20752 10.6107 1.5291 11.8893 2.12221 12.9974L7.38756 22.8142Z" fill="#071A30"/>
</svg>
