<svg width="10" height="15" viewBox="0 0 10 15" fill="none" xmlns="http://www.w3.org/2000/svg">
<path d="M4.99979 0C2.24304 0 0 2.35941 0 5.25948C0 6.01593 0.147192 6.73817 0.437266 7.40631C1.68735 10.2837 4.08412 13.3217 4.78908 14.1841C4.8419 14.2486 4.9189 14.2857 4.99993 14.2857C5.08096 14.2857 5.15796 14.2486 5.21078 14.1841C5.91547 13.3218 8.31223 10.284 9.56273 7.40631C9.85295 6.73817 10 6.01593 10 5.25948C9.99972 2.35941 7.75668 0 4.99979 0ZM5 8.57143C3.55592 8.57143 2.38095 7.28968 2.38095 5.71436C2.38095 4.13889 3.55592 2.85714 5 2.85714C6.44408 2.85714 7.61905 4.13889 7.61905 5.71436C7.61919 7.28968 6.44422 8.57143 5 8.57143Z" fill="#071A30"/>
</svg>
