<svg width="17" height="25" viewBox="0 0 17 25" fill="none" xmlns="http://www.w3.org/2000/svg">
<g id="placeholder (1)" opacity="0.8">
<path id="Shape" fill-rule="evenodd" clip-rule="evenodd" d="M0 9.30055C0 4.64622 3.78506 0.859619 8.4375 0.859619C13.0899 0.859619 16.875 4.64622 16.875 9.30055C16.875 10.8264 16.4635 12.3218 15.6849 13.6251L9.15788 24.5274C9.03192 24.7379 8.80542 24.8675 8.56022 24.8694H8.55464C8.31155 24.8694 8.08552 24.7437 7.95722 24.5369L1.25948 13.7392C0.435422 12.4078 0 10.8731 0 9.30055ZM8.54402 22.8141L14.4781 12.9022C15.1261 11.8176 15.4735 10.5718 15.4735 9.29995C15.4735 5.42136 12.3146 2.25649 8.43752 2.25649C4.56048 2.25649 1.39688 5.42136 1.39688 9.29995C1.39688 10.6106 1.76878 11.8892 2.45471 12.9973L8.54402 22.8141Z" fill="white"/>
<path id="Shape_2" fill-rule="evenodd" clip-rule="evenodd" d="M4.21875 9.30054C4.21875 6.97338 6.11128 5.08008 8.4375 5.08008C10.7637 5.08008 12.6562 6.97338 12.6562 9.30054C12.6562 11.5874 10.8236 13.521 8.4375 13.521C6.08048 13.521 4.21875 11.6128 4.21875 9.30054ZM5.61563 9.29995C5.61563 10.8553 6.87859 12.1229 8.43752 12.1229C10.0212 12.1229 11.2547 10.8326 11.2547 9.29995C11.2547 7.74852 9.98834 6.47695 8.43752 6.47695C6.8867 6.47695 5.61563 7.74852 5.61563 9.29995Z" fill="white"/>
</g>
</svg>
