<svg width="16" height="18" viewBox="0 0 16 18" fill="none" xmlns="http://www.w3.org/2000/svg">
<path fill-rule="evenodd" clip-rule="evenodd" d="M8.65663 16.9263C6.54916 15.7449 4.70271 14.0753 3.16883 11.9549C1.90564 10.1996 1.05491 8.55609 0.490988 6.78591C0.12363 5.64181 -0.018157 4.69522 0.0430693 3.80454C0.0946282 3.09274 0.342756 2.47783 0.781007 1.971L1.9862 0.577213C2.331 0.197088 2.72413 -0.000427246 3.13338 -0.000427246C3.54585 -0.000427246 3.93577 0.197088 4.26768 0.573486C4.48681 0.808268 4.70915 1.06914 4.92183 1.32255L4.93073 1.33314C5.03716 1.45985 5.14079 1.58323 5.25052 1.71013L6.21081 2.82069C6.56205 3.22318 6.74573 3.68901 6.74573 4.16231C6.74573 4.6356 6.55883 5.10144 6.21081 5.50392L6.21077 5.50396C6.11089 5.61948 6.011 5.73499 5.91434 5.8505C5.64044 6.17473 5.35686 6.50641 5.05395 6.82318C5.26986 7.40082 5.57921 7.96727 6.04002 8.64181C6.95197 9.93498 7.90581 10.9412 8.95632 11.7126C9.06266 11.7909 9.18189 11.8617 9.31079 11.9362C9.41391 11.9958 9.52347 12.0592 9.62981 12.13L10.7834 10.7958C11.1218 10.4045 11.5182 10.1958 11.9306 10.1958C12.3431 10.1958 12.7362 10.4045 13.0649 10.7996L15.0016 13.0393C15.6944 13.8406 15.6944 14.8915 15.0081 15.7188C14.8598 15.8977 14.7051 16.0729 14.5537 16.2406C14.5384 16.2577 14.5231 16.2748 14.5079 16.2919C14.3022 16.5227 14.1058 16.743 13.9318 16.9859C13.9285 16.9934 13.9221 17.0008 13.9189 17.0045C13.3936 17.6642 12.7491 17.9847 11.9467 17.9847C11.8756 17.9847 11.8074 17.9812 11.7365 17.9777L11.7276 17.9772C10.5321 17.8878 9.45902 17.366 8.65663 16.9263ZM1.34174 2.61536C1.03239 2.97312 0.868043 3.38679 0.829374 3.88244C0.777815 4.63151 0.90349 5.45511 1.2354 6.47995C1.77032 8.14952 2.57916 9.70728 3.78112 11.3806C5.24089 13.4005 7.00034 14.9918 9.00469 16.1135C9.74263 16.5197 10.7255 16.9967 11.7824 17.075C11.8372 17.0787 11.8952 17.0824 11.95 17.0824C12.5204 17.0824 12.9618 16.8663 13.3324 16.4042C13.5335 16.1258 13.7547 15.8775 13.9689 15.6371C13.9812 15.6232 13.9936 15.6093 14.0059 15.5955C14.1574 15.4278 14.2991 15.2675 14.4345 15.0998C14.8276 14.6265 14.8309 14.1421 14.4442 13.6949L12.501 11.4514C12.3754 11.2949 12.1756 11.1197 11.9307 11.1197C11.7309 11.1197 11.5279 11.2352 11.341 11.4514L10.1358 12.8452C10.081 12.9085 9.91342 13.0986 9.65562 13.0986C9.5525 13.0986 9.44938 13.0688 9.34304 13.0054C9.3366 13.0017 9.33096 12.998 9.32533 12.9942C9.31968 12.9905 9.31404 12.9868 9.3076 12.9831C9.20126 12.9048 9.08203 12.834 8.95313 12.7595C8.92986 12.7457 8.90631 12.7319 8.88258 12.718C8.76504 12.6493 8.64306 12.578 8.52777 12.4911C7.40636 11.6675 6.38807 10.598 5.42134 9.21908C4.8832 8.43648 4.5384 7.78058 4.29027 7.09113C4.28866 7.08554 4.28705 7.08089 4.28543 7.07623C4.28382 7.07157 4.28221 7.06691 4.2806 7.06132C4.21615 6.83772 4.17426 6.54331 4.44172 6.23399L4.45783 6.21536C4.74385 5.92249 5.00507 5.61688 5.2797 5.29558C5.30211 5.26936 5.32461 5.24303 5.34723 5.2166C5.39718 5.15883 5.44713 5.10013 5.49708 5.04143C5.54702 4.98274 5.59697 4.92405 5.64691 4.86629C5.8467 4.63523 5.94982 4.40045 5.94982 4.16939C5.94982 3.93834 5.8467 3.70356 5.64691 3.4725L4.68663 2.36194C4.63063 2.29533 4.57464 2.22965 4.51904 2.16442C4.46265 2.09827 4.40666 2.03259 4.35149 1.96691C4.32235 1.93271 4.2935 1.89878 4.26486 1.86511C4.07815 1.64554 3.90064 1.43681 3.71345 1.23648C3.52977 1.02033 3.32998 0.912252 3.13341 0.912252C2.93362 0.912252 2.72739 1.02033 2.54049 1.22902L1.34174 2.61536Z" fill="#071A30"/>
</svg>
