<svg width="18" height="19" viewBox="0 0 18 19" fill="none" xmlns="http://www.w3.org/2000/svg">
<path fill-rule="evenodd" clip-rule="evenodd" d="M10.0116 17.8468C7.57433 16.665 5.43893 14.9947 3.66501 12.8734C2.20414 11.1174 1.22029 9.47327 0.56812 7.70238C0.143275 6.55782 -0.0207001 5.61086 0.0501073 4.71982C0.109735 4.00773 0.396691 3.39258 0.903523 2.88555L2.29731 1.4912C2.69607 1.11092 3.15073 0.91333 3.62402 0.91333C4.10104 0.91333 4.55197 1.11092 4.93582 1.48747C5.18924 1.72235 5.44638 1.98332 5.69234 2.23684L5.70263 2.24744C5.82572 2.3742 5.94557 2.49762 6.07247 2.62457L7.18303 3.73558C7.58924 4.13822 7.80166 4.60424 7.80166 5.07773C7.80166 5.55121 7.58551 6.01723 7.18303 6.41988L7.18298 6.41992C7.06747 6.53548 6.95196 6.65104 6.84017 6.7666C6.5234 7.09095 6.19545 7.42276 5.84514 7.73966C6.09483 8.31753 6.45259 8.88421 6.98551 9.55902C8.04017 10.8527 9.14328 11.8593 10.3582 12.6311C10.4812 12.7093 10.6191 12.7802 10.7681 12.8547C10.8874 12.9144 11.0141 12.9778 11.1371 13.0486L12.4712 11.7139C12.8625 11.3225 13.3209 11.1137 13.7979 11.1137C14.275 11.1137 14.7296 11.3225 15.1097 11.7176L17.3495 13.9583C18.1507 14.7599 18.1507 15.8112 17.3569 16.6389C17.1855 16.8178 17.0066 16.993 16.8315 17.1608C16.8138 17.178 16.7961 17.1951 16.7786 17.2122C16.5406 17.443 16.3135 17.6634 16.1122 17.9065C16.1085 17.9139 16.101 17.9214 16.0973 17.9251C15.4899 18.585 14.7445 18.9056 13.8166 18.9056C13.7343 18.9056 13.6554 18.9022 13.5734 18.8986L13.5632 18.8982C12.1805 18.8087 10.9395 18.2867 10.0116 17.8468ZM1.55197 3.53016C1.19421 3.88807 1.00414 4.3019 0.959424 4.79775C0.899797 5.54711 1.04514 6.37105 1.42899 7.3963C2.04762 9.06653 2.98303 10.6249 4.37309 12.2989C6.06129 14.3196 8.09607 15.9115 10.4141 17.0337C11.2675 17.4401 12.4041 17.9173 13.6265 17.9956C13.6899 17.9993 13.7569 18.003 13.8203 18.003C14.4799 18.003 14.9905 17.7868 15.4191 17.3245C15.6516 17.046 15.9075 16.7976 16.1551 16.557C16.1694 16.5432 16.1837 16.5293 16.1979 16.5155C16.3731 16.3477 16.5371 16.1874 16.6936 16.0196C17.1482 15.5461 17.152 15.0615 16.7048 14.6141L14.4576 12.3697C14.3122 12.2131 14.0812 12.0379 13.7979 12.0379C13.5669 12.0379 13.3321 12.1535 13.1159 12.3697L11.7222 13.7641C11.6588 13.8274 11.465 14.0176 11.1669 14.0176C11.0476 14.0176 10.9284 13.9878 10.8054 13.9244C10.7979 13.9206 10.7914 13.9169 10.7849 13.9132C10.7784 13.9095 10.7718 13.9057 10.7644 13.902C10.6414 13.8237 10.5035 13.7529 10.3545 13.6783C10.3275 13.6645 10.3003 13.6508 10.2729 13.6369C10.1369 13.5681 9.99587 13.4967 9.86253 13.4099C8.56564 12.5859 7.388 11.516 6.26998 10.1365C5.64762 9.3536 5.24887 8.69744 4.96191 8.00772C4.96005 8.00213 4.95818 7.99747 4.95632 7.99281C4.95446 7.98815 4.95259 7.98349 4.95073 7.9779C4.87619 7.75421 4.82775 7.45968 5.13706 7.15024L5.1557 7.1316C5.48647 6.83861 5.78857 6.53288 6.10617 6.21145C6.13209 6.18522 6.15812 6.15888 6.18427 6.13244C6.24203 6.07465 6.2998 6.01593 6.35756 5.95722C6.41532 5.8985 6.47309 5.83978 6.53085 5.78199C6.76191 5.55084 6.88116 5.31597 6.88116 5.08482C6.88116 4.85367 6.76191 4.61879 6.53085 4.38764L5.42029 3.27664C5.35554 3.21002 5.2908 3.14431 5.2265 3.07907C5.16128 3.01288 5.09653 2.94717 5.03272 2.88145C4.99902 2.84724 4.96564 2.8133 4.93252 2.77961C4.71659 2.55995 4.51131 2.35114 4.29483 2.15073C4.08241 1.93449 3.85135 1.82637 3.62402 1.82637C3.39296 1.82637 3.15446 1.93449 2.93831 2.14327L1.55197 3.53016Z" fill="white"/>
</svg>
