<svg width="20" height="20" viewBox="0 0 20 20" fill="none" xmlns="http://www.w3.org/2000/svg">
<path d="M19.9572 15.4963C19.9007 15.3259 19.5408 15.0748 18.8778 14.7437C18.6982 14.6393 18.4423 14.4974 18.1111 14.3175C17.7797 14.1375 17.4788 13.9717 17.2091 13.8202C16.9389 13.6687 16.6857 13.5219 16.4491 13.3801C16.4113 13.3517 16.2929 13.2689 16.0941 13.1313C15.895 12.9941 15.7272 12.8923 15.5896 12.8258C15.4523 12.7598 15.3173 12.7266 15.1847 12.7266C14.9954 12.7266 14.7589 12.8616 14.4749 13.1313C14.1909 13.4014 13.9304 13.6947 13.6938 14.0122C13.4571 14.3296 13.2061 14.6229 12.9412 14.8928C12.676 15.1628 12.458 15.2977 12.2878 15.2977C12.2023 15.2977 12.0957 15.2739 11.968 15.2268C11.8403 15.1795 11.7432 15.139 11.6766 15.1063C11.6105 15.0729 11.4971 15.0068 11.336 14.9071C11.1746 14.8076 11.0849 14.7532 11.066 14.7437C9.76869 14.0238 8.6561 13.1999 7.72798 12.2722C6.80017 11.3439 5.97618 10.2314 5.25653 8.93402C5.24707 8.91507 5.19249 8.82507 5.09314 8.66417C4.99364 8.50313 4.92732 8.38964 4.89419 8.32318C4.86105 8.25696 4.8208 8.15984 4.77354 8.03203C4.72627 7.90422 4.70254 7.79775 4.70254 7.71243C4.70254 7.54208 4.83752 7.32417 5.10742 7.05899C5.37727 6.79396 5.67091 6.54292 5.98802 6.30635C6.30539 6.06978 6.59872 5.80928 6.86867 5.5253C7.13853 5.24117 7.27345 5.00455 7.27345 4.8152C7.27345 4.68271 7.24032 4.54763 7.1741 4.41037C7.10783 4.27281 7.00604 4.10495 6.86867 3.90599C6.73126 3.70713 6.64842 3.58887 6.61997 3.55081C6.47807 3.31425 6.33146 3.06096 6.17976 2.79106C6.02807 2.52121 5.8625 2.22041 5.6825 1.88901C5.50265 1.55777 5.3607 1.302 5.25643 1.1221C4.92518 0.459356 4.67428 0.0993537 4.50379 0.0427365C4.43747 0.0143284 4.33796 0 4.20552 0C3.9497 0 3.61597 0.0472639 3.20408 0.14209C2.79204 0.236767 2.4678 0.336071 2.23104 0.4404C1.75755 0.639157 1.25571 1.21677 0.725358 2.17305C0.242421 3.063 0.000976562 3.94385 0.000976562 4.81495C0.000976562 5.07042 0.0175438 5.31898 0.0506783 5.56067C0.0838128 5.80212 0.143017 6.07441 0.228341 6.37749C0.313515 6.68048 0.382222 6.90556 0.434163 7.05212C0.486153 7.19879 0.583218 7.46153 0.725309 7.84044C0.8672 8.21924 0.952524 8.45114 0.980932 8.53636C1.31233 9.46443 1.70531 10.2929 2.15979 11.0221C2.90756 12.2342 3.92801 13.4868 5.22055 14.7794C6.51315 16.072 7.76549 17.0924 8.97764 17.8404C9.70675 18.2949 10.5356 18.6878 11.4635 19.0194C11.5487 19.0477 11.7806 19.1328 12.1593 19.2752C12.5381 19.4172 12.8009 19.5143 12.9476 19.5664C13.0943 19.6185 13.3195 19.6873 13.6222 19.7726C13.9256 19.8579 14.1976 19.9171 14.4391 19.9505C14.6807 19.9832 14.9293 20 15.1848 20C16.0558 20 16.9367 19.7585 17.8268 19.2756C18.783 18.7454 19.3605 18.2435 19.5593 17.7696C19.6639 17.5331 19.763 17.2088 19.8576 16.7968C19.9526 16.3849 19.9998 16.0512 19.9998 15.7955C20.0001 15.6625 19.9858 15.5632 19.9572 15.4963Z" fill="white"/>
</svg>
