<svg width="56" height="48" viewBox="0 0 56 48" fill="none" xmlns="http://www.w3.org/2000/svg">
<path opacity="0.5" d="M53.9552 0.500488H2.0448C0.917297 0.500488 0 1.40213 0 2.51038V45.6991C0 46.8073 0.917297 47.709 2.0448 47.709H53.9552C55.0827 47.709 56 46.8073 56 45.6991V2.51038C56 1.40213 55.0827 0.500488 53.9552 0.500488ZM52.7188 3.72572V29.2487L42.399 19.1048C41.7261 18.4446 40.632 18.445 39.9595 19.106L25.3643 33.452L16.0414 24.2887C15.7154 23.9678 15.2817 23.791 14.8203 23.791C14.3593 23.791 13.9261 23.9674 13.6001 24.2878L3.28125 34.4305V3.72572H52.7188ZM3.28125 44.4838V38.9916L14.8203 27.6496L24.1428 36.8129C24.4692 37.1338 24.9029 37.311 25.3643 37.311C25.8249 37.311 26.2585 37.1342 26.5841 36.8137L41.1797 22.4673L52.7192 33.8098V44.4838H3.28125Z" fill="#071A30"/>
</svg>
