<svg width="150" height="40" viewBox="0 0 150 40" fill="none" xmlns="http://www.w3.org/2000/svg">
<rect width="150" height="40" rx="4" fill="white"/>
<path d="M49.336 11.176C49.336 11.7467 49.2213 12.2453 48.992 12.672C48.7627 13.0933 48.424 13.4213 47.976 13.656C47.5333 13.8853 47 14 46.376 14H44.584V8.36H46.376C47 8.36 47.5333 8.47467 47.976 8.704C48.424 8.928 48.7627 9.25333 48.992 9.68C49.2213 10.1013 49.336 10.6 49.336 11.176ZM46.32 13.344C47.056 13.344 47.6187 13.1547 48.008 12.776C48.3973 12.3973 48.592 11.864 48.592 11.176C48.592 10.488 48.3973 9.95467 48.008 9.576C47.624 9.192 47.0613 9 46.32 9H45.312V13.344H46.32ZM52.3104 9.552C52.7317 9.552 53.1077 9.64267 53.4384 9.824C53.7744 10.0053 54.0357 10.2667 54.2224 10.608C54.4144 10.9493 54.5104 11.3493 54.5104 11.808C54.5104 12.2667 54.4144 12.6667 54.2224 13.008C54.0357 13.344 53.7744 13.6027 53.4384 13.784C53.1077 13.9653 52.7317 14.056 52.3104 14.056C51.889 14.056 51.5104 13.9653 51.1744 13.784C50.8437 13.6027 50.5824 13.344 50.3904 13.008C50.1984 12.6667 50.1024 12.2667 50.1024 11.808C50.1024 11.3493 50.1984 10.9493 50.3904 10.608C50.5824 10.2667 50.8437 10.0053 51.1744 9.824C51.5104 9.64267 51.889 9.552 52.3104 9.552ZM52.3104 10.192C52.049 10.192 51.8064 10.2507 51.5824 10.368C51.3637 10.4853 51.185 10.6667 51.0464 10.912C50.913 11.152 50.8464 11.4507 50.8464 11.808C50.8464 12.16 50.913 12.4587 51.0464 12.704C51.185 12.944 51.3637 13.1227 51.5824 13.24C51.8064 13.3573 52.049 13.416 52.3104 13.416C52.5717 13.416 52.8117 13.3573 53.0304 13.24C53.2544 13.1227 53.433 12.944 53.5664 12.704C53.705 12.4587 53.7744 12.16 53.7744 11.808C53.7744 11.4507 53.705 11.152 53.5664 10.912C53.433 10.6667 53.2544 10.4853 53.0304 10.368C52.8117 10.2507 52.5717 10.192 52.3104 10.192ZM61.491 9.608L60.227 14H59.443L58.235 10.424L57.019 14H56.227L54.979 9.608H55.715L56.651 13.304L57.867 9.608H58.627L59.851 13.296L60.795 9.608H61.491ZM64.4819 9.536C64.9939 9.536 65.4073 9.70133 65.7219 10.032C66.0366 10.3573 66.1939 10.8293 66.1939 11.448V14H65.4659V11.512C65.4659 11.0747 65.3539 10.7387 65.1299 10.504C64.9059 10.2693 64.6019 10.152 64.2179 10.152C63.8179 10.152 63.4979 10.2827 63.2579 10.544C63.0179 10.8 62.8979 11.176 62.8979 11.672V14H62.1699V9.608H62.8979V10.648C63.0099 10.2907 63.2073 10.016 63.4899 9.824C63.7779 9.632 64.1086 9.536 64.4819 9.536ZM68.0386 8.08V14H67.3106V8.08H68.0386ZM71.201 9.552C71.6223 9.552 71.9983 9.64267 72.329 9.824C72.665 10.0053 72.9263 10.2667 73.113 10.608C73.305 10.9493 73.401 11.3493 73.401 11.808C73.401 12.2667 73.305 12.6667 73.113 13.008C72.9263 13.344 72.665 13.6027 72.329 13.784C71.9983 13.9653 71.6223 14.056 71.201 14.056C70.7797 14.056 70.401 13.9653 70.065 13.784C69.7343 13.6027 69.473 13.344 69.281 13.008C69.089 12.6667 68.993 12.2667 68.993 11.808C68.993 11.3493 69.089 10.9493 69.281 10.608C69.473 10.2667 69.7343 10.0053 70.065 9.824C70.401 9.64267 70.7797 9.552 71.201 9.552ZM71.201 10.192C70.9397 10.192 70.697 10.2507 70.473 10.368C70.2543 10.4853 70.0757 10.6667 69.937 10.912C69.8037 11.152 69.737 11.4507 69.737 11.808C69.737 12.16 69.8037 12.4587 69.937 12.704C70.0757 12.944 70.2543 13.1227 70.473 13.24C70.697 13.3573 70.9397 13.416 71.201 13.416C71.4623 13.416 71.7023 13.3573 71.921 13.24C72.145 13.1227 72.3237 12.944 72.457 12.704C72.5957 12.4587 72.665 12.16 72.665 11.808C72.665 11.4507 72.5957 11.152 72.457 10.912C72.3237 10.6667 72.145 10.4853 71.921 10.368C71.7023 10.2507 71.4623 10.192 71.201 10.192ZM76.1496 9.552C76.5763 9.552 76.9363 9.65867 77.2296 9.872C77.5283 10.0853 77.7363 10.3707 77.8536 10.728V9.608H78.5816V14H77.8536V12.88C77.7363 13.2373 77.5283 13.5227 77.2296 13.736C76.9363 13.9493 76.5763 14.056 76.1496 14.056C75.7603 14.056 75.4136 13.9653 75.1096 13.784C74.8056 13.6027 74.5656 13.344 74.3896 13.008C74.219 12.6667 74.1336 12.2667 74.1336 11.808C74.1336 11.3493 74.219 10.9493 74.3896 10.608C74.5656 10.2667 74.8056 10.0053 75.1096 9.824C75.4136 9.64267 75.7603 9.552 76.1496 9.552ZM76.3576 10.2C75.9096 10.2 75.5496 10.344 75.2776 10.632C75.011 10.9147 74.8776 11.3067 74.8776 11.808C74.8776 12.3093 75.011 12.704 75.2776 12.992C75.5496 13.2747 75.9096 13.416 76.3576 13.416C76.6456 13.416 76.9016 13.3493 77.1256 13.216C77.355 13.0827 77.5336 12.896 77.6616 12.656C77.7896 12.4107 77.8536 12.128 77.8536 11.808C77.8536 11.488 77.7896 11.2053 77.6616 10.96C77.5336 10.7147 77.355 10.528 77.1256 10.4C76.9016 10.2667 76.6456 10.2 76.3576 10.2ZM81.5403 9.552C81.9669 9.552 82.3269 9.65867 82.6203 9.872C82.9189 10.0853 83.1269 10.3707 83.2443 10.728V8.08H83.9723V14H83.2443V12.88C83.1269 13.2373 82.9189 13.5227 82.6203 13.736C82.3269 13.9493 81.9669 14.056 81.5403 14.056C81.1509 14.056 80.8043 13.9653 80.5003 13.784C80.1963 13.6027 79.9563 13.344 79.7803 13.008C79.6096 12.6667 79.5243 12.2667 79.5243 11.808C79.5243 11.3493 79.6096 10.9493 79.7803 10.608C79.9563 10.2667 80.1963 10.0053 80.5003 9.824C80.8043 9.64267 81.1509 9.552 81.5403 9.552ZM81.7483 10.2C81.3003 10.2 80.9403 10.344 80.6683 10.632C80.4016 10.9147 80.2683 11.3067 80.2683 11.808C80.2683 12.3093 80.4016 12.704 80.6683 12.992C80.9403 13.2747 81.3003 13.416 81.7483 13.416C82.0363 13.416 82.2923 13.3493 82.5163 13.216C82.7456 13.0827 82.9243 12.896 83.0523 12.656C83.1803 12.4107 83.2443 12.128 83.2443 11.808C83.2443 11.488 83.1803 11.2053 83.0523 10.96C82.9243 10.7147 82.7456 10.528 82.5163 10.4C82.2923 10.2667 82.0363 10.2 81.7483 10.2ZM89.0994 9.552C89.5208 9.552 89.8968 9.64267 90.2274 9.824C90.5634 10.0053 90.8248 10.2667 91.0114 10.608C91.2034 10.9493 91.2994 11.3493 91.2994 11.808C91.2994 12.2667 91.2034 12.6667 91.0114 13.008C90.8248 13.344 90.5634 13.6027 90.2274 13.784C89.8968 13.9653 89.5208 14.056 89.0994 14.056C88.6781 14.056 88.2994 13.9653 87.9634 13.784C87.6328 13.6027 87.3714 13.344 87.1794 13.008C86.9874 12.6667 86.8914 12.2667 86.8914 11.808C86.8914 11.3493 86.9874 10.9493 87.1794 10.608C87.3714 10.2667 87.6328 10.0053 87.9634 9.824C88.2994 9.64267 88.6781 9.552 89.0994 9.552ZM89.0994 10.192C88.8381 10.192 88.5954 10.2507 88.3714 10.368C88.1528 10.4853 87.9741 10.6667 87.8354 10.912C87.7021 11.152 87.6354 11.4507 87.6354 11.808C87.6354 12.16 87.7021 12.4587 87.8354 12.704C87.9741 12.944 88.1528 13.1227 88.3714 13.24C88.5954 13.3573 88.8381 13.416 89.0994 13.416C89.3608 13.416 89.6008 13.3573 89.8194 13.24C90.0434 13.1227 90.2221 12.944 90.3554 12.704C90.4941 12.4587 90.5634 12.16 90.5634 11.808C90.5634 11.4507 90.4941 11.152 90.3554 10.912C90.2221 10.6667 90.0434 10.4853 89.8194 10.368C89.6008 10.2507 89.3608 10.192 89.0994 10.192ZM94.5601 9.536C95.0721 9.536 95.4854 9.70133 95.8001 10.032C96.1147 10.3573 96.2721 10.8293 96.2721 11.448V14H95.5441V11.512C95.5441 11.0747 95.4321 10.7387 95.2081 10.504C94.9841 10.2693 94.6801 10.152 94.2961 10.152C93.8961 10.152 93.5761 10.2827 93.3361 10.544C93.0961 10.8 92.9761 11.176 92.9761 11.672V14H92.2481V9.608H92.9761V10.648C93.0881 10.2907 93.2854 10.016 93.5681 9.824C93.8561 9.632 94.1867 9.536 94.5601 9.536ZM101.461 13.36V14H100.917C100.469 14 100.133 13.8933 99.9093 13.68C99.6906 13.4667 99.5813 13.1093 99.5813 12.608V10.24H98.9253V9.608H99.5813V8.512H100.317V9.608H101.453V10.24H100.317V12.624C100.317 12.9067 100.368 13.1013 100.469 13.208C100.576 13.3093 100.757 13.36 101.013 13.36H101.461ZM104.662 9.536C105.174 9.536 105.587 9.70133 105.902 10.032C106.216 10.3573 106.374 10.8293 106.374 11.448V14H105.646V11.512C105.646 11.0747 105.534 10.7387 105.31 10.504C105.086 10.2693 104.782 10.152 104.398 10.152C103.998 10.152 103.678 10.2827 103.438 10.544C103.198 10.8 103.078 11.176 103.078 11.672V14H102.35V8.08H103.078V10.648C103.19 10.2907 103.387 10.016 103.67 9.824C103.958 9.632 104.288 9.536 104.662 9.536ZM111.53 11.56C111.53 11.7147 111.52 11.848 111.498 11.96H107.986C108.002 12.4613 108.144 12.8373 108.41 13.088C108.682 13.3387 109.013 13.464 109.402 13.464C109.754 13.464 110.048 13.376 110.282 13.2C110.522 13.0187 110.669 12.7787 110.722 12.48H111.498C111.445 12.784 111.325 13.056 111.138 13.296C110.957 13.536 110.72 13.7227 110.426 13.856C110.133 13.9893 109.802 14.056 109.434 14.056C109.013 14.056 108.64 13.9653 108.314 13.784C107.989 13.6027 107.733 13.344 107.546 13.008C107.365 12.6667 107.274 12.2667 107.274 11.808C107.274 11.3493 107.365 10.9493 107.546 10.608C107.733 10.2667 107.989 10.0053 108.314 9.824C108.64 9.64267 109.013 9.552 109.434 9.552C109.861 9.552 110.232 9.64267 110.546 9.824C110.866 10.0053 111.109 10.248 111.274 10.552C111.445 10.856 111.53 11.192 111.53 11.56ZM110.794 11.608C110.81 11.2827 110.757 11.0107 110.634 10.792C110.512 10.5733 110.344 10.4107 110.13 10.304C109.917 10.1973 109.685 10.144 109.434 10.144C109.034 10.144 108.698 10.2693 108.426 10.52C108.154 10.7653 108.008 11.128 107.986 11.608H110.794Z" fill="#05408E"/>
<path d="M46.562 26.164V30H44.966V20.116H48.326C49.4647 20.116 50.3187 20.3867 50.888 20.928C51.4667 21.4693 51.756 22.2113 51.756 23.154C51.756 24.0873 51.462 24.8247 50.874 25.366C50.286 25.898 49.4367 26.164 48.326 26.164H46.562ZM48.158 24.862C49.474 24.862 50.132 24.2927 50.132 23.154C50.132 22.594 49.9733 22.1693 49.656 21.88C49.348 21.5813 48.8487 21.432 48.158 21.432H46.562V24.862H48.158ZM54.7515 19.64V30H53.1555V19.64H54.7515ZM59.7768 22.188C60.4768 22.188 61.0741 22.3607 61.5688 22.706C62.0635 23.0513 62.4135 23.5087 62.6188 24.078V22.286H64.2148V30H62.6188V28.208C62.4135 28.7773 62.0635 29.2347 61.5688 29.58C61.0741 29.9253 60.4768 30.098 59.7768 30.098C59.1048 30.098 58.5028 29.9393 57.9708 29.622C57.4481 29.3047 57.0375 28.8473 56.7388 28.25C56.4401 27.6527 56.2908 26.948 56.2908 26.136C56.2908 25.3333 56.4401 24.6333 56.7388 24.036C57.0375 23.4387 57.4481 22.9813 57.9708 22.664C58.5028 22.3467 59.1048 22.188 59.7768 22.188ZM60.2668 23.588C59.5575 23.588 58.9881 23.8167 58.5588 24.274C58.1388 24.722 57.9288 25.3427 57.9288 26.136C57.9288 26.9293 58.1388 27.5547 58.5588 28.012C58.9881 28.46 59.5575 28.684 60.2668 28.684C60.7148 28.684 61.1161 28.5813 61.4708 28.376C61.8255 28.1613 62.1055 27.8627 62.3108 27.48C62.5161 27.0973 62.6188 26.6493 62.6188 26.136C62.6188 25.632 62.5161 25.1887 62.3108 24.806C62.1055 24.414 61.8255 24.1153 61.4708 23.91C61.1161 23.6953 60.7148 23.588 60.2668 23.588ZM67.0401 22.286L69.3501 27.956L71.4921 22.286H73.2701L68.6081 33.668H66.8301L68.4961 29.818L65.2481 22.286H67.0401ZM84.0968 27.368C84.0968 27.8533 83.9801 28.306 83.7468 28.726C83.5134 29.1367 83.1588 29.468 82.6828 29.72C82.2068 29.972 81.6234 30.098 80.9328 30.098C80.2608 30.098 79.6588 29.9813 79.1268 29.748C78.5948 29.5053 78.1701 29.1693 77.8528 28.74C77.5354 28.3107 77.3534 27.816 77.3068 27.256H79.0148C79.0614 27.6853 79.2434 28.054 79.5608 28.362C79.8874 28.67 80.3214 28.824 80.8628 28.824C81.3481 28.824 81.7214 28.6933 81.9828 28.432C82.2534 28.1707 82.3888 27.8347 82.3888 27.424C82.3888 27.0693 82.2908 26.78 82.0948 26.556C81.8988 26.3227 81.6561 26.1407 81.3668 26.01C81.0774 25.8793 80.6808 25.73 80.1768 25.562C79.5608 25.366 79.0568 25.17 78.6648 24.974C78.2821 24.778 77.9554 24.4933 77.6848 24.12C77.4141 23.7467 77.2788 23.2567 77.2788 22.65C77.2788 22.118 77.4094 21.6513 77.6708 21.25C77.9321 20.8487 78.3054 20.5407 78.7908 20.326C79.2761 20.102 79.8361 19.99 80.4708 19.99C81.4788 19.99 82.2768 20.2327 82.8648 20.718C83.4621 21.2033 83.8028 21.838 83.8868 22.622H82.1648C82.0994 22.2487 81.9221 21.9313 81.6328 21.67C81.3528 21.3993 80.9654 21.264 80.4708 21.264C80.0228 21.264 79.6634 21.3807 79.3928 21.614C79.1221 21.838 78.9868 22.1647 78.9868 22.594C78.9868 22.93 79.0801 23.21 79.2668 23.434C79.4534 23.6487 79.6868 23.8213 79.9668 23.952C80.2561 24.0733 80.6481 24.218 81.1428 24.386C81.7681 24.582 82.2768 24.7827 82.6688 24.988C83.0701 25.184 83.4061 25.4733 83.6768 25.856C83.9568 26.2387 84.0968 26.7427 84.0968 27.368ZM89.5725 28.614V30H88.5925C87.7712 30 87.1458 29.804 86.7165 29.412C86.2965 29.0107 86.0865 28.348 86.0865 27.424V23.644H84.9805V22.286H86.0865V20.368H87.6965V22.286H89.5585V23.644H87.6965V27.452C87.6965 27.8907 87.7758 28.194 87.9345 28.362C88.1025 28.53 88.3918 28.614 88.8025 28.614H89.5725ZM94.5956 22.188C95.3422 22.188 96.0142 22.3467 96.6116 22.664C97.2089 22.9813 97.6756 23.4387 98.0116 24.036C98.3476 24.6333 98.5156 25.3333 98.5156 26.136C98.5156 26.948 98.3476 27.6527 98.0116 28.25C97.6756 28.8473 97.2089 29.3047 96.6116 29.622C96.0142 29.9393 95.3422 30.098 94.5956 30.098C93.8489 30.098 93.1769 29.9393 92.5796 29.622C91.9916 29.3047 91.5249 28.8473 91.1796 28.25C90.8436 27.6433 90.6756 26.9387 90.6756 26.136C90.6756 25.3333 90.8436 24.6333 91.1796 24.036C91.5249 23.4387 91.9916 22.9813 92.5796 22.664C93.1769 22.3467 93.8489 22.188 94.5956 22.188ZM94.5956 23.574C94.1849 23.574 93.8069 23.6673 93.4616 23.854C93.1162 24.0407 92.8362 24.33 92.6216 24.722C92.4162 25.1047 92.3136 25.576 92.3136 26.136C92.3136 26.7053 92.4162 27.1813 92.6216 27.564C92.8362 27.9467 93.1162 28.2313 93.4616 28.418C93.8069 28.6047 94.1849 28.698 94.5956 28.698C95.0062 28.698 95.3842 28.6047 95.7296 28.418C96.0749 28.2313 96.3502 27.9467 96.5556 27.564C96.7702 27.1813 96.8776 26.7053 96.8776 26.136C96.8776 25.576 96.7702 25.1047 96.5556 24.722C96.3502 24.33 96.0749 24.0407 95.7296 23.854C95.3842 23.6673 95.0062 23.574 94.5956 23.574ZM101.646 23.798C101.907 23.294 102.281 22.8973 102.766 22.608C103.251 22.3093 103.811 22.16 104.446 22.16V23.896H103.97C103.27 23.896 102.705 24.0687 102.276 24.414C101.856 24.75 101.646 25.31 101.646 26.094V30H100.05V22.286H101.646V23.798ZM112.81 25.772C112.81 26.0333 112.791 26.262 112.754 26.458H106.818C106.846 27.2513 107.065 27.8393 107.476 28.222C107.886 28.6047 108.395 28.796 109.002 28.796C109.534 28.796 109.982 28.6607 110.346 28.39C110.719 28.1193 110.948 27.76 111.032 27.312H112.74C112.637 27.8533 112.422 28.334 112.096 28.754C111.769 29.174 111.344 29.5053 110.822 29.748C110.299 29.9813 109.716 30.098 109.072 30.098C108.325 30.098 107.662 29.9393 107.084 29.622C106.514 29.3047 106.066 28.8473 105.74 28.25C105.413 27.6527 105.25 26.948 105.25 26.136C105.25 25.3333 105.413 24.6333 105.74 24.036C106.066 23.4387 106.514 22.9813 107.084 22.664C107.662 22.3467 108.325 22.188 109.072 22.188C109.828 22.188 110.486 22.3467 111.046 22.664C111.615 22.972 112.049 23.4013 112.348 23.952C112.656 24.4933 112.81 25.1 112.81 25.772ZM111.2 25.73C111.218 25.226 111.13 24.806 110.934 24.47C110.747 24.1247 110.486 23.8727 110.15 23.714C109.823 23.546 109.464 23.462 109.072 23.462C108.446 23.462 107.924 23.6533 107.504 24.036C107.084 24.4187 106.855 24.9833 106.818 25.73H111.2Z" fill="#05408E"/>
<g clip-path="url(#clip0)">
<path d="M13.4846 10.7363C13.2473 11.0493 13.1152 11.4343 13.1152 11.8463V28.153C13.1152 28.5357 13.2296 28.8952 13.4361 29.1955L22.3262 19.9407L13.4846 10.7363Z" fill="#05408E"/>
<path d="M23.1403 19.0935L26.0243 16.0912L15.8866 10.2496C15.4466 9.99604 14.9417 9.93592 14.4707 10.0681L23.1403 19.0935Z" fill="#05408E"/>
<path d="M23.14 20.7881L14.3828 29.9046C14.5716 29.9679 14.767 29.9998 14.9626 29.9998C15.2798 29.9998 15.5972 29.9165 15.8863 29.7499L26.097 23.8662L23.14 20.7881Z" fill="#05408E"/>
<path d="M30.0369 18.4032L27.073 16.6953L23.9551 19.941L27.1458 23.2629L30.0369 21.5969C30.6154 21.2636 30.9608 20.6666 30.9608 20.0001C30.9608 19.3334 30.6154 18.7365 30.0369 18.4032Z" fill="#05408E"/>
</g>
<defs>
<clipPath id="clip0">
<rect x="12" y="10" width="20" height="20" fill="white"/>
</clipPath>
</defs>
</svg>
