<svg width="24" height="24" viewBox="0 0 24 24" fill="none" xmlns="http://www.w3.org/2000/svg">
<g opacity="0.8">
<path d="M12 23.25C18.2132 23.25 23.25 18.2132 23.25 12C23.25 5.7868 18.2132 0.75 12 0.75C5.7868 0.75 0.75 5.7868 0.75 12C0.75 18.2132 5.7868 23.25 12 23.25Z" stroke="#071A30" stroke-width="1.5"/>
<path d="M16 10.9449H8C7.44772 10.9449 7 11.3927 7 11.9449C7 12.4972 7.44772 12.9449 8 12.9449H16C16.5523 12.9449 17 12.4972 17 11.9449C17 11.3927 16.5523 10.9449 16 10.9449Z" fill="#071A30"/>
<path d="M13 15.9449V7.94495C13 7.39266 12.5523 6.94495 12 6.94495C11.4477 6.94495 11 7.39266 11 7.94495V15.9449C11 16.4972 11.4477 16.9449 12 16.9449C12.5523 16.9449 13 16.4972 13 15.9449Z" fill="#071A30"/>
</g>
</svg>
