<svg xmlns="http://www.w3.org/2000/svg" viewBox="0 0 59 60" width="59" height="60">
	<style>
		tspan { white-space:pre }
		.shp0 { fill: #60c971 } 
		.shp1 { fill: #071a30 } 
	</style>
	<path id="Layer" class="shp0" d="M9.78 5.55C9.98 5.36 10.05 5.08 9.96 4.82C9.88 4.55 9.66 4.37 9.38 4.33L6.96 3.98C6.86 3.96 6.77 3.9 6.73 3.8L5.64 1.61C5.52 1.36 5.27 1.21 5 1.21C4.72 1.21 4.48 1.36 4.36 1.61L3.27 3.8C3.23 3.9 3.14 3.96 3.04 3.98L0.61 4.33C0.34 4.37 0.12 4.55 0.04 4.82C-0.05 5.08 0.02 5.36 0.22 5.55L1.97 7.26C2.04 7.33 2.08 7.44 2.06 7.54L1.65 9.95C1.61 10.16 1.67 10.37 1.8 10.53C2.02 10.79 2.39 10.86 2.69 10.71L4.85 9.57C4.94 9.52 5.06 9.52 5.15 9.57L7.31 10.71C7.42 10.76 7.53 10.79 7.65 10.79C7.86 10.79 8.06 10.7 8.2 10.53C8.33 10.37 8.39 10.16 8.35 9.95L7.94 7.54C7.92 7.44 7.96 7.33 8.03 7.26L9.78 5.55Z" />
	<path id="Layer copy" class="shp0" d="M21.78 5.55C21.98 5.36 22.05 5.08 21.96 4.82C21.88 4.55 21.66 4.37 21.38 4.33L18.96 3.98C18.86 3.96 18.77 3.9 18.73 3.8L17.64 1.61C17.52 1.36 17.27 1.21 17 1.21C16.72 1.21 16.48 1.36 16.36 1.61L15.27 3.8C15.23 3.9 15.14 3.96 15.04 3.98L12.61 4.33C12.34 4.37 12.12 4.55 12.04 4.82C11.95 5.08 12.02 5.36 12.22 5.55L13.97 7.26C14.04 7.33 14.08 7.44 14.06 7.54L13.65 9.95C13.61 10.16 13.67 10.37 13.8 10.53C14.02 10.79 14.39 10.86 14.69 10.71L16.85 9.57C16.94 9.52 17.06 9.52 17.15 9.57L19.31 10.71C19.42 10.76 19.53 10.79 19.65 10.79C19.86 10.79 20.06 10.7 20.2 10.53C20.33 10.37 20.39 10.16 20.35 9.95L19.94 7.54C19.92 7.44 19.96 7.33 20.03 7.26L21.78 5.55Z" />
	<path id="Layer copy 2" class="shp0" d="M33.78 5.55C33.98 5.36 34.05 5.08 33.96 4.82C33.88 4.55 33.66 4.37 33.38 4.33L30.96 3.98C30.86 3.96 30.77 3.9 30.73 3.8L29.64 1.61C29.52 1.36 29.27 1.21 29 1.21C28.72 1.21 28.48 1.36 28.36 1.61L27.27 3.8C27.23 3.9 27.14 3.96 27.04 3.98L24.61 4.33C24.34 4.37 24.12 4.55 24.04 4.82C23.95 5.08 24.02 5.36 24.22 5.55L25.97 7.26C26.04 7.33 26.08 7.44 26.06 7.54L25.65 9.95C25.61 10.16 25.67 10.37 25.8 10.53C26.02 10.79 26.39 10.86 26.69 10.71L28.85 9.57C28.94 9.52 29.06 9.52 29.15 9.57L31.31 10.71C31.42 10.76 31.53 10.79 31.65 10.79C31.86 10.79 32.06 10.7 32.2 10.53C32.33 10.37 32.39 10.16 32.35 9.95L31.94 7.54C31.92 7.44 31.96 7.33 32.03 7.26L33.78 5.55Z" />
	<path id="Layer copy 3" class="shp0" d="M45.78 5.55C45.98 5.36 46.05 5.08 45.96 4.82C45.88 4.55 45.66 4.37 45.38 4.33L42.96 3.98C42.86 3.96 42.77 3.9 42.73 3.8L41.64 1.61C41.52 1.36 41.27 1.21 41 1.21C40.72 1.21 40.48 1.36 40.36 1.61L39.27 3.8C39.23 3.9 39.14 3.96 39.04 3.98L36.61 4.33C36.34 4.37 36.12 4.55 36.04 4.82C35.95 5.08 36.02 5.36 36.22 5.55L37.97 7.26C38.04 7.33 38.08 7.44 38.06 7.54L37.65 9.95C37.61 10.16 37.67 10.37 37.8 10.53C38.02 10.79 38.39 10.86 38.69 10.71L40.85 9.57C40.94 9.52 41.06 9.52 41.15 9.57L43.31 10.71C43.42 10.76 43.53 10.79 43.65 10.79C43.86 10.79 44.06 10.7 44.2 10.53C44.33 10.37 44.39 10.16 44.35 9.95L43.94 7.54C43.92 7.44 43.96 7.33 44.03 7.26L45.78 5.55Z" />
	<path id="Layer copy 4" class="shp0" d="M57.78 5.55C57.98 5.36 58.05 5.08 57.96 4.82C57.88 4.55 57.66 4.37 57.38 4.33L54.96 3.98C54.86 3.96 54.77 3.9 54.73 3.8L53.64 1.61C53.52 1.36 53.27 1.21 53 1.21C52.72 1.21 52.48 1.36 52.36 1.61L51.27 3.8C51.23 3.9 51.14 3.96 51.04 3.98L48.61 4.33C48.34 4.37 48.12 4.55 48.04 4.82C47.95 5.08 48.02 5.36 48.22 5.55L49.97 7.26C50.04 7.33 50.08 7.44 50.06 7.54L49.65 9.95C49.61 10.16 49.67 10.37 49.8 10.53C50.02 10.79 50.39 10.86 50.69 10.71L52.85 9.57C52.94 9.52 53.06 9.52 53.15 9.57L55.31 10.71C55.42 10.76 55.53 10.79 55.65 10.79C55.86 10.79 56.06 10.7 56.2 10.53C56.33 10.37 56.39 10.16 56.35 9.95L55.94 7.54C55.92 7.44 55.96 7.33 56.03 7.26L57.78 5.55Z" />
	<path id="Layer copy 5" class="shp0" d="M9.78 17.55C9.98 17.36 10.05 17.08 9.96 16.82C9.88 16.55 9.66 16.37 9.38 16.33L6.96 15.98C6.86 15.96 6.77 15.9 6.73 15.8L5.64 13.61C5.52 13.36 5.27 13.21 5 13.21C4.72 13.21 4.48 13.36 4.36 13.61L3.27 15.8C3.23 15.9 3.14 15.96 3.04 15.98L0.61 16.33C0.34 16.37 0.12 16.55 0.04 16.82C-0.05 17.08 0.02 17.36 0.22 17.55L1.97 19.26C2.04 19.33 2.08 19.44 2.06 19.54L1.65 21.95C1.61 22.16 1.67 22.37 1.8 22.53C2.02 22.79 2.39 22.86 2.69 22.71L4.85 21.57C4.94 21.52 5.06 21.52 5.15 21.57L7.31 22.71C7.42 22.76 7.53 22.79 7.65 22.79C7.86 22.79 8.06 22.7 8.2 22.53C8.33 22.37 8.39 22.16 8.35 21.95L7.94 19.54C7.92 19.44 7.96 19.33 8.03 19.26L9.78 17.55Z" />
	<path id="Layer copy 6" class="shp0" d="M21.78 17.55C21.98 17.36 22.05 17.08 21.96 16.82C21.88 16.55 21.66 16.37 21.38 16.33L18.96 15.98C18.86 15.96 18.77 15.9 18.73 15.8L17.64 13.61C17.52 13.36 17.27 13.21 17 13.21C16.72 13.21 16.48 13.36 16.36 13.61L15.27 15.8C15.23 15.9 15.14 15.96 15.04 15.98L12.61 16.33C12.34 16.37 12.12 16.55 12.04 16.82C11.95 17.08 12.02 17.36 12.22 17.55L13.97 19.26C14.04 19.33 14.08 19.44 14.06 19.54L13.65 21.95C13.61 22.16 13.67 22.37 13.8 22.53C14.02 22.79 14.39 22.86 14.69 22.71L16.85 21.57C16.94 21.52 17.06 21.52 17.15 21.57L19.31 22.71C19.42 22.76 19.53 22.79 19.65 22.79C19.86 22.79 20.06 22.7 20.2 22.53C20.33 22.37 20.39 22.16 20.35 21.95L19.94 19.54C19.92 19.44 19.96 19.33 20.03 19.26L21.78 17.55Z" />
	<path id="Layer copy 7" class="shp0" d="M33.78 17.55C33.98 17.36 34.05 17.08 33.96 16.82C33.88 16.55 33.66 16.37 33.38 16.33L30.96 15.98C30.86 15.96 30.77 15.9 30.73 15.8L29.64 13.61C29.52 13.36 29.27 13.21 29 13.21C28.72 13.21 28.48 13.36 28.36 13.61L27.27 15.8C27.23 15.9 27.14 15.96 27.04 15.98L24.61 16.33C24.34 16.37 24.12 16.55 24.04 16.82C23.95 17.08 24.02 17.36 24.22 17.55L25.97 19.26C26.04 19.33 26.08 19.44 26.06 19.54L25.65 21.95C25.61 22.16 25.67 22.37 25.8 22.53C26.02 22.79 26.39 22.86 26.69 22.71L28.85 21.57C28.94 21.52 29.06 21.52 29.15 21.57L31.31 22.71C31.42 22.76 31.53 22.79 31.65 22.79C31.86 22.79 32.06 22.7 32.2 22.53C32.33 22.37 32.39 22.16 32.35 21.95L31.94 19.54C31.92 19.44 31.96 19.33 32.03 19.26L33.78 17.55Z" />
	<path id="Layer copy 8" class="shp0" d="M45.78 17.55C45.98 17.36 46.05 17.08 45.96 16.82C45.88 16.55 45.66 16.37 45.38 16.33L42.96 15.98C42.86 15.96 42.77 15.9 42.73 15.8L41.64 13.61C41.52 13.36 41.27 13.21 41 13.21C40.72 13.21 40.48 13.36 40.36 13.61L39.27 15.8C39.23 15.9 39.14 15.96 39.04 15.98L36.61 16.33C36.34 16.37 36.12 16.55 36.04 16.82C35.95 17.08 36.02 17.36 36.22 17.55L37.97 19.26C38.04 19.33 38.08 19.44 38.06 19.54L37.65 21.95C37.61 22.16 37.67 22.37 37.8 22.53C38.02 22.79 38.39 22.86 38.69 22.71L40.85 21.57C40.94 21.52 41.06 21.52 41.15 21.57L43.31 22.71C43.42 22.76 43.53 22.79 43.65 22.79C43.86 22.79 44.06 22.7 44.2 22.53C44.33 22.37 44.39 22.16 44.35 21.95L43.94 19.54C43.92 19.44 43.96 19.33 44.03 19.26L45.78 17.55Z" />
	<path id="Layer" fill-rule="evenodd" class="shp1" d="M56.03 19.26C55.96 19.33 55.92 19.44 55.94 19.54L56.35 21.95C56.4 22.22 56.29 22.49 56.07 22.65C55.94 22.74 55.8 22.79 55.65 22.79C55.53 22.79 55.42 22.76 55.31 22.71L53.15 21.57C53.06 21.52 52.95 21.52 52.85 21.57L50.69 22.71C50.44 22.84 50.15 22.81 49.93 22.65C49.71 22.49 49.6 22.22 49.65 21.95L50.06 19.54C50.08 19.44 50.04 19.33 49.97 19.26L48.22 17.55C48.02 17.36 47.95 17.08 48.04 16.82C48.12 16.55 48.34 16.37 48.61 16.33L51.04 15.98C51.14 15.96 51.23 15.9 51.27 15.8L52.36 13.61C52.48 13.36 52.73 13.21 53 13.21C53.28 13.21 53.52 13.36 53.64 13.61L54.73 15.8C54.77 15.9 54.86 15.96 54.96 15.98L57.39 16.33C57.66 16.37 57.88 16.55 57.96 16.82C58.05 17.08 57.98 17.36 57.78 17.55L56.03 19.26ZM55.75 18.97L57.5 17.26C57.59 17.18 57.62 17.06 57.58 16.94C57.55 16.82 57.45 16.74 57.33 16.72L54.91 16.37C54.67 16.34 54.47 16.19 54.37 15.98L53.28 13.79C53.23 13.68 53.12 13.61 53 13.61C52.88 13.61 52.77 13.68 52.72 13.79L51.63 15.98C51.53 16.19 51.33 16.34 51.09 16.37L48.67 16.72C48.55 16.74 48.45 16.82 48.42 16.94C48.38 17.06 48.41 17.18 48.5 17.26L50.25 18.97C50.42 19.14 50.5 19.37 50.46 19.61L50.04 22.02C50.02 22.14 50.07 22.26 50.17 22.33C50.27 22.4 50.39 22.41 50.5 22.35L52.67 21.21C52.77 21.16 52.89 21.13 53 21.13C53.11 21.13 53.23 21.16 53.33 21.21L55.5 22.35C55.61 22.41 55.73 22.4 55.83 22.33C55.93 22.26 55.98 22.14 55.96 22.02L55.55 19.61C55.51 19.37 55.58 19.14 55.75 18.97Z" />
	<path id="Layer copy 9" class="shp0" d="M9.78 29.55C9.98 29.36 10.05 29.08 9.96 28.82C9.88 28.55 9.66 28.37 9.38 28.33L6.96 27.98C6.86 27.96 6.77 27.9 6.73 27.8L5.64 25.61C5.52 25.36 5.27 25.21 5 25.21C4.72 25.21 4.48 25.36 4.36 25.61L3.27 27.8C3.23 27.9 3.14 27.96 3.04 27.98L0.61 28.33C0.34 28.37 0.12 28.55 0.04 28.82C-0.05 29.08 0.02 29.36 0.22 29.55L1.97 31.26C2.04 31.33 2.08 31.44 2.06 31.54L1.65 33.95C1.61 34.16 1.67 34.37 1.8 34.53C2.02 34.79 2.39 34.86 2.69 34.71L4.85 33.57C4.94 33.52 5.06 33.52 5.15 33.57L7.31 34.71C7.42 34.76 7.53 34.79 7.65 34.79C7.86 34.79 8.06 34.7 8.2 34.53C8.33 34.37 8.39 34.16 8.35 33.95L7.94 31.54C7.92 31.44 7.96 31.33 8.03 31.26L9.78 29.55Z" />
	<path id="Layer copy 10" class="shp0" d="M21.78 29.55C21.98 29.36 22.05 29.08 21.96 28.82C21.88 28.55 21.66 28.37 21.38 28.33L18.96 27.98C18.86 27.96 18.77 27.9 18.73 27.8L17.64 25.61C17.52 25.36 17.27 25.21 17 25.21C16.72 25.21 16.48 25.36 16.36 25.61L15.27 27.8C15.23 27.9 15.14 27.96 15.04 27.98L12.61 28.33C12.34 28.37 12.12 28.55 12.04 28.82C11.95 29.08 12.02 29.36 12.22 29.55L13.97 31.26C14.04 31.33 14.08 31.44 14.06 31.54L13.65 33.95C13.61 34.16 13.67 34.37 13.8 34.53C14.02 34.79 14.39 34.86 14.69 34.71L16.85 33.57C16.94 33.52 17.06 33.52 17.15 33.57L19.31 34.71C19.42 34.76 19.53 34.79 19.65 34.79C19.86 34.79 20.06 34.7 20.2 34.53C20.33 34.37 20.39 34.16 20.35 33.95L19.94 31.54C19.92 31.44 19.96 31.33 20.03 31.26L21.78 29.55Z" />
	<path id="Layer copy 11" class="shp0" d="M33.78 29.55C33.98 29.36 34.05 29.08 33.96 28.82C33.88 28.55 33.66 28.37 33.38 28.33L30.96 27.98C30.86 27.96 30.77 27.9 30.73 27.8L29.64 25.61C29.52 25.36 29.27 25.21 29 25.21C28.72 25.21 28.48 25.36 28.36 25.61L27.27 27.8C27.23 27.9 27.14 27.96 27.04 27.98L24.61 28.33C24.34 28.37 24.12 28.55 24.04 28.82C23.95 29.08 24.02 29.36 24.22 29.55L25.97 31.26C26.04 31.33 26.08 31.44 26.06 31.54L25.65 33.95C25.61 34.16 25.67 34.37 25.8 34.53C26.02 34.79 26.39 34.86 26.69 34.71L28.85 33.57C28.94 33.52 29.06 33.52 29.15 33.57L31.31 34.71C31.42 34.76 31.53 34.79 31.65 34.79C31.86 34.79 32.06 34.7 32.2 34.53C32.33 34.37 32.39 34.16 32.35 33.95L31.94 31.54C31.92 31.44 31.96 31.33 32.03 31.26L33.78 29.55Z" />
	<path id="Layer copy 13" fill-rule="evenodd" class="shp1" d="M56.03 31.26C55.96 31.33 55.92 31.44 55.94 31.54L56.35 33.95C56.4 34.22 56.29 34.49 56.07 34.65C55.94 34.74 55.8 34.79 55.65 34.79C55.53 34.79 55.42 34.76 55.31 34.71L53.15 33.57C53.06 33.52 52.95 33.52 52.85 33.57L50.69 34.71C50.44 34.84 50.15 34.81 49.93 34.65C49.71 34.49 49.6 34.22 49.65 33.95L50.06 31.54C50.08 31.44 50.04 31.33 49.97 31.26L48.22 29.55C48.02 29.36 47.95 29.08 48.04 28.82C48.12 28.55 48.34 28.37 48.61 28.33L51.04 27.98C51.14 27.96 51.23 27.9 51.27 27.8L52.36 25.61C52.48 25.36 52.73 25.21 53 25.21C53.28 25.21 53.52 25.36 53.64 25.61L54.73 27.8C54.77 27.9 54.86 27.96 54.96 27.98L57.39 28.33C57.66 28.37 57.88 28.55 57.96 28.82C58.05 29.08 57.98 29.36 57.78 29.55L56.03 31.26ZM55.75 30.97L57.5 29.26C57.59 29.18 57.62 29.06 57.58 28.94C57.55 28.82 57.45 28.74 57.33 28.72L54.91 28.37C54.67 28.34 54.47 28.19 54.37 27.98L53.28 25.79C53.23 25.68 53.12 25.61 53 25.61C52.88 25.61 52.77 25.68 52.72 25.79L51.63 27.98C51.53 28.19 51.33 28.34 51.09 28.37L48.67 28.72C48.55 28.74 48.45 28.82 48.42 28.94C48.38 29.06 48.41 29.18 48.5 29.26L50.25 30.97C50.42 31.14 50.5 31.37 50.46 31.61L50.04 34.02C50.02 34.14 50.07 34.26 50.17 34.33C50.27 34.4 50.39 34.41 50.5 34.35L52.67 33.21C52.77 33.16 52.89 33.13 53 33.13C53.11 33.13 53.23 33.16 53.33 33.21L55.5 34.35C55.61 34.41 55.73 34.4 55.83 34.33C55.93 34.26 55.98 34.14 55.96 34.02L55.55 31.61C55.51 31.37 55.58 31.14 55.75 30.97Z" />
	<path id="Layer copy 14" fill-rule="evenodd" class="shp1" d="M44.03 31.26C43.96 31.33 43.92 31.44 43.94 31.54L44.35 33.95C44.4 34.22 44.29 34.49 44.07 34.65C43.94 34.74 43.8 34.79 43.65 34.79C43.53 34.79 43.42 34.76 43.31 34.71L41.15 33.57C41.06 33.52 40.95 33.52 40.85 33.57L38.69 34.71C38.44 34.84 38.15 34.81 37.93 34.65C37.71 34.49 37.6 34.22 37.65 33.95L38.06 31.54C38.08 31.44 38.04 31.33 37.97 31.26L36.22 29.55C36.02 29.36 35.95 29.08 36.04 28.82C36.12 28.55 36.34 28.37 36.61 28.33L39.04 27.98C39.14 27.96 39.23 27.9 39.27 27.8L40.36 25.61C40.48 25.36 40.73 25.21 41 25.21C41.28 25.21 41.52 25.36 41.64 25.61L42.73 27.8C42.77 27.9 42.86 27.96 42.96 27.98L45.39 28.33C45.66 28.37 45.88 28.55 45.96 28.82C46.05 29.08 45.98 29.36 45.78 29.55L44.03 31.26ZM43.75 30.97L45.5 29.26C45.59 29.18 45.62 29.06 45.58 28.94C45.55 28.82 45.45 28.74 45.33 28.72L42.91 28.37C42.67 28.34 42.47 28.19 42.37 27.98L41.28 25.79C41.23 25.68 41.12 25.61 41 25.61C40.88 25.61 40.77 25.68 40.72 25.79L39.63 27.98C39.53 28.19 39.33 28.34 39.09 28.37L36.67 28.72C36.55 28.74 36.45 28.82 36.42 28.94C36.38 29.06 36.41 29.18 36.5 29.26L38.25 30.97C38.42 31.14 38.5 31.37 38.46 31.61L38.04 34.02C38.02 34.14 38.07 34.26 38.17 34.33C38.27 34.4 38.39 34.41 38.5 34.35L40.67 33.21C40.77 33.16 40.89 33.13 41 33.13C41.11 33.13 41.23 33.16 41.33 33.21L43.5 34.35C43.61 34.41 43.73 34.4 43.83 34.33C43.93 34.26 43.98 34.14 43.96 34.02L43.55 31.61C43.51 31.37 43.58 31.14 43.75 30.97Z" />
	<path id="Layer copy 12" class="shp0" d="M9.78 41.55C9.98 41.36 10.05 41.08 9.96 40.82C9.88 40.55 9.66 40.37 9.38 40.33L6.96 39.98C6.86 39.96 6.77 39.9 6.73 39.8L5.64 37.61C5.52 37.36 5.27 37.21 5 37.21C4.72 37.21 4.48 37.36 4.36 37.61L3.27 39.8C3.23 39.9 3.14 39.96 3.04 39.98L0.61 40.33C0.34 40.37 0.12 40.55 0.04 40.82C-0.05 41.08 0.02 41.36 0.22 41.55L1.97 43.26C2.04 43.33 2.08 43.44 2.06 43.54L1.65 45.95C1.61 46.16 1.67 46.37 1.8 46.53C2.02 46.79 2.39 46.86 2.69 46.71L4.85 45.57C4.94 45.52 5.06 45.52 5.15 45.57L7.31 46.71C7.42 46.76 7.53 46.79 7.65 46.79C7.86 46.79 8.06 46.7 8.2 46.53C8.33 46.37 8.39 46.16 8.35 45.95L7.94 43.54C7.92 43.44 7.96 43.33 8.03 43.26L9.78 41.55Z" />
	<path id="Layer copy 15" class="shp0" d="M21.78 41.55C21.98 41.36 22.05 41.08 21.96 40.82C21.88 40.55 21.66 40.37 21.38 40.33L18.96 39.98C18.86 39.96 18.77 39.9 18.73 39.8L17.64 37.61C17.52 37.36 17.27 37.21 17 37.21C16.72 37.21 16.48 37.36 16.36 37.61L15.27 39.8C15.23 39.9 15.14 39.96 15.04 39.98L12.61 40.33C12.34 40.37 12.12 40.55 12.04 40.82C11.95 41.08 12.02 41.36 12.22 41.55L13.97 43.26C14.04 43.33 14.08 43.44 14.06 43.54L13.65 45.95C13.61 46.16 13.67 46.37 13.8 46.53C14.02 46.79 14.39 46.86 14.69 46.71L16.85 45.57C16.94 45.52 17.06 45.52 17.15 45.57L19.31 46.71C19.42 46.76 19.53 46.79 19.65 46.79C19.86 46.79 20.06 46.7 20.2 46.53C20.33 46.37 20.39 46.16 20.35 45.95L19.94 43.54C19.92 43.44 19.96 43.33 20.03 43.26L21.78 41.55Z" />
	<path id="Layer copy 17" fill-rule="evenodd" class="shp1" d="M56.03 43.26C55.96 43.33 55.92 43.44 55.94 43.54L56.35 45.95C56.4 46.22 56.29 46.49 56.07 46.65C55.94 46.74 55.8 46.79 55.65 46.79C55.53 46.79 55.42 46.76 55.31 46.71L53.15 45.57C53.06 45.52 52.95 45.52 52.85 45.57L50.69 46.71C50.44 46.84 50.15 46.81 49.93 46.65C49.71 46.49 49.6 46.22 49.65 45.95L50.06 43.54C50.08 43.44 50.04 43.33 49.97 43.26L48.22 41.55C48.02 41.36 47.95 41.08 48.04 40.82C48.12 40.55 48.34 40.37 48.61 40.33L51.04 39.98C51.14 39.96 51.23 39.9 51.27 39.8L52.36 37.61C52.48 37.36 52.73 37.21 53 37.21C53.28 37.21 53.52 37.36 53.64 37.61L54.73 39.8C54.77 39.9 54.86 39.96 54.96 39.98L57.39 40.33C57.66 40.37 57.88 40.55 57.96 40.82C58.05 41.08 57.98 41.36 57.78 41.55L56.03 43.26ZM55.75 42.97L57.5 41.26C57.59 41.18 57.62 41.06 57.58 40.94C57.55 40.82 57.45 40.74 57.33 40.72L54.91 40.37C54.67 40.34 54.47 40.19 54.37 39.98L53.28 37.79C53.23 37.68 53.12 37.61 53 37.61C52.88 37.61 52.77 37.68 52.72 37.79L51.63 39.98C51.53 40.19 51.33 40.34 51.09 40.37L48.67 40.72C48.55 40.74 48.45 40.82 48.42 40.94C48.38 41.06 48.41 41.18 48.5 41.26L50.25 42.97C50.42 43.14 50.5 43.37 50.46 43.61L50.04 46.02C50.02 46.14 50.07 46.26 50.17 46.33C50.27 46.4 50.39 46.41 50.5 46.35L52.67 45.21C52.77 45.16 52.89 45.13 53 45.13C53.11 45.13 53.23 45.16 53.33 45.21L55.5 46.35C55.61 46.41 55.73 46.4 55.83 46.33C55.93 46.26 55.98 46.14 55.96 46.02L55.55 43.61C55.51 43.37 55.58 43.14 55.75 42.97Z" />
	<path id="Layer copy 19" fill-rule="evenodd" class="shp1" d="M32.03 43.26C31.96 43.33 31.92 43.44 31.94 43.54L32.35 45.95C32.4 46.22 32.29 46.49 32.07 46.65C31.94 46.74 31.8 46.79 31.65 46.79C31.53 46.79 31.42 46.76 31.31 46.71L29.15 45.57C29.06 45.52 28.95 45.52 28.85 45.57L26.69 46.71C26.44 46.84 26.15 46.81 25.93 46.65C25.71 46.49 25.6 46.22 25.65 45.95L26.06 43.54C26.08 43.44 26.04 43.33 25.97 43.26L24.22 41.55C24.02 41.36 23.95 41.08 24.04 40.82C24.12 40.55 24.34 40.37 24.61 40.33L27.04 39.98C27.14 39.96 27.23 39.9 27.27 39.8L28.36 37.61C28.48 37.36 28.73 37.21 29 37.21C29.28 37.21 29.52 37.36 29.64 37.61L30.73 39.8C30.77 39.9 30.86 39.96 30.96 39.98L33.39 40.33C33.66 40.37 33.88 40.55 33.96 40.82C34.05 41.08 33.98 41.36 33.78 41.55L32.03 43.26ZM31.75 42.97L33.5 41.26C33.59 41.18 33.62 41.06 33.58 40.94C33.55 40.82 33.45 40.74 33.33 40.72L30.91 40.37C30.67 40.34 30.47 40.19 30.37 39.98L29.28 37.79C29.23 37.68 29.12 37.61 29 37.61C28.88 37.61 28.77 37.68 28.72 37.79L27.63 39.98C27.53 40.19 27.33 40.34 27.09 40.37L24.67 40.72C24.55 40.74 24.45 40.82 24.42 40.94C24.38 41.06 24.41 41.18 24.5 41.26L26.25 42.97C26.42 43.14 26.5 43.37 26.46 43.61L26.04 46.02C26.02 46.14 26.07 46.26 26.17 46.33C26.27 46.4 26.39 46.41 26.5 46.35L28.67 45.21C28.77 45.16 28.89 45.13 29 45.13C29.11 45.13 29.23 45.16 29.33 45.21L31.5 46.35C31.61 46.41 31.73 46.4 31.83 46.33C31.93 46.26 31.98 46.14 31.96 46.02L31.55 43.61C31.51 43.37 31.58 43.14 31.75 42.97Z" />
	<path id="Layer copy 18" fill-rule="evenodd" class="shp1" d="M44.03 43.26C43.96 43.33 43.92 43.44 43.94 43.54L44.35 45.95C44.4 46.22 44.29 46.49 44.07 46.65C43.94 46.74 43.8 46.79 43.65 46.79C43.53 46.79 43.42 46.76 43.31 46.71L41.15 45.57C41.06 45.52 40.95 45.52 40.85 45.57L38.69 46.71C38.44 46.84 38.15 46.81 37.93 46.65C37.71 46.49 37.6 46.22 37.65 45.95L38.06 43.54C38.08 43.44 38.04 43.33 37.97 43.26L36.22 41.55C36.02 41.36 35.95 41.08 36.04 40.82C36.12 40.55 36.34 40.37 36.61 40.33L39.04 39.98C39.14 39.96 39.23 39.9 39.27 39.8L40.36 37.61C40.48 37.36 40.73 37.21 41 37.21C41.28 37.21 41.52 37.36 41.64 37.61L42.73 39.8C42.77 39.9 42.86 39.96 42.96 39.98L45.39 40.33C45.66 40.37 45.88 40.55 45.96 40.82C46.05 41.08 45.98 41.36 45.78 41.55L44.03 43.26ZM43.75 42.97L45.5 41.26C45.59 41.18 45.62 41.06 45.58 40.94C45.55 40.82 45.45 40.74 45.33 40.72L42.91 40.37C42.67 40.34 42.47 40.19 42.37 39.98L41.28 37.79C41.23 37.68 41.12 37.61 41 37.61C40.88 37.61 40.77 37.68 40.72 37.79L39.63 39.98C39.53 40.19 39.33 40.34 39.09 40.37L36.67 40.72C36.55 40.74 36.45 40.82 36.42 40.94C36.38 41.06 36.41 41.18 36.5 41.26L38.25 42.97C38.42 43.14 38.5 43.37 38.46 43.61L38.04 46.02C38.02 46.14 38.07 46.26 38.17 46.33C38.27 46.4 38.39 46.41 38.5 46.35L40.67 45.21C40.77 45.16 40.89 45.13 41 45.13C41.11 45.13 41.23 45.16 41.33 45.21L43.5 46.35C43.61 46.41 43.73 46.4 43.83 46.33C43.93 46.26 43.98 46.14 43.96 46.02L43.55 43.61C43.51 43.37 43.58 43.14 43.75 42.97Z" />
	<path id="Layer copy 16" class="shp0" d="M9.78 53.55C9.98 53.36 10.05 53.08 9.96 52.82C9.88 52.55 9.66 52.37 9.38 52.33L6.96 51.98C6.86 51.96 6.77 51.9 6.73 51.8L5.64 49.61C5.52 49.36 5.27 49.21 5 49.21C4.72 49.21 4.48 49.36 4.36 49.61L3.27 51.8C3.23 51.9 3.14 51.96 3.04 51.98L0.61 52.33C0.34 52.37 0.12 52.55 0.04 52.82C-0.05 53.08 0.02 53.36 0.22 53.55L1.97 55.26C2.04 55.33 2.08 55.44 2.06 55.54L1.65 57.95C1.61 58.16 1.67 58.37 1.8 58.53C2.02 58.79 2.39 58.86 2.69 58.71L4.85 57.57C4.94 57.52 5.06 57.52 5.15 57.57L7.31 58.71C7.42 58.76 7.53 58.79 7.65 58.79C7.86 58.79 8.06 58.7 8.2 58.53C8.33 58.37 8.39 58.16 8.35 57.95L7.94 55.54C7.92 55.44 7.96 55.33 8.03 55.26L9.78 53.55Z" />
	<path id="Layer copy 21" fill-rule="evenodd" class="shp1" d="M56.03 55.26C55.96 55.33 55.92 55.44 55.94 55.54L56.35 57.95C56.4 58.22 56.29 58.49 56.07 58.65C55.94 58.74 55.8 58.79 55.65 58.79C55.53 58.79 55.42 58.76 55.31 58.71L53.15 57.57C53.06 57.52 52.95 57.52 52.85 57.57L50.69 58.71C50.44 58.84 50.15 58.81 49.93 58.65C49.71 58.49 49.6 58.22 49.65 57.95L50.06 55.54C50.08 55.44 50.04 55.33 49.97 55.26L48.22 53.55C48.02 53.36 47.95 53.08 48.04 52.82C48.12 52.55 48.34 52.37 48.61 52.33L51.04 51.98C51.14 51.96 51.23 51.9 51.27 51.8L52.36 49.61C52.48 49.36 52.73 49.21 53 49.21C53.28 49.21 53.52 49.36 53.64 49.61L54.73 51.8C54.77 51.9 54.86 51.96 54.96 51.98L57.39 52.33C57.66 52.37 57.88 52.55 57.96 52.82C58.05 53.08 57.98 53.36 57.78 53.55L56.03 55.26ZM55.75 54.97L57.5 53.26C57.59 53.18 57.62 53.06 57.58 52.94C57.55 52.82 57.45 52.74 57.33 52.72L54.91 52.37C54.67 52.34 54.47 52.19 54.37 51.98L53.28 49.79C53.23 49.68 53.12 49.61 53 49.61C52.88 49.61 52.77 49.68 52.72 49.79L51.63 51.98C51.53 52.19 51.33 52.34 51.09 52.37L48.67 52.72C48.55 52.74 48.45 52.82 48.42 52.94C48.38 53.06 48.41 53.18 48.5 53.26L50.25 54.97C50.42 55.14 50.5 55.37 50.46 55.61L50.04 58.02C50.02 58.14 50.07 58.26 50.17 58.33C50.27 58.4 50.39 58.41 50.5 58.35L52.67 57.21C52.77 57.16 52.89 57.13 53 57.13C53.11 57.13 53.23 57.16 53.33 57.21L55.5 58.35C55.61 58.41 55.73 58.4 55.83 58.33C55.93 58.26 55.98 58.14 55.96 58.02L55.55 55.61C55.51 55.37 55.58 55.14 55.75 54.97Z" />
	<path id="Layer copy 22" fill-rule="evenodd" class="shp1" d="M32.03 55.26C31.96 55.33 31.92 55.44 31.94 55.54L32.35 57.95C32.4 58.22 32.29 58.49 32.07 58.65C31.94 58.74 31.8 58.79 31.65 58.79C31.53 58.79 31.42 58.76 31.31 58.71L29.15 57.57C29.06 57.52 28.95 57.52 28.85 57.57L26.69 58.71C26.44 58.84 26.15 58.81 25.93 58.65C25.71 58.49 25.6 58.22 25.65 57.95L26.06 55.54C26.08 55.44 26.04 55.33 25.97 55.26L24.22 53.55C24.02 53.36 23.95 53.08 24.04 52.82C24.12 52.55 24.34 52.37 24.61 52.33L27.04 51.98C27.14 51.96 27.23 51.9 27.27 51.8L28.36 49.61C28.48 49.36 28.73 49.21 29 49.21C29.28 49.21 29.52 49.36 29.64 49.61L30.73 51.8C30.77 51.9 30.86 51.96 30.96 51.98L33.39 52.33C33.66 52.37 33.88 52.55 33.96 52.82C34.05 53.08 33.98 53.36 33.78 53.55L32.03 55.26ZM31.75 54.97L33.5 53.26C33.59 53.18 33.62 53.06 33.58 52.94C33.55 52.82 33.45 52.74 33.33 52.72L30.91 52.37C30.67 52.34 30.47 52.19 30.37 51.98L29.28 49.79C29.23 49.68 29.12 49.61 29 49.61C28.88 49.61 28.77 49.68 28.72 49.79L27.63 51.98C27.53 52.19 27.33 52.34 27.09 52.37L24.67 52.72C24.55 52.74 24.45 52.82 24.42 52.94C24.38 53.06 24.41 53.18 24.5 53.26L26.25 54.97C26.42 55.14 26.5 55.37 26.46 55.61L26.04 58.02C26.02 58.14 26.07 58.26 26.17 58.33C26.27 58.4 26.39 58.41 26.5 58.35L28.67 57.21C28.77 57.16 28.89 57.13 29 57.13C29.11 57.13 29.23 57.16 29.33 57.21L31.5 58.35C31.61 58.41 31.73 58.4 31.83 58.33C31.93 58.26 31.98 58.14 31.96 58.02L31.55 55.61C31.51 55.37 31.58 55.14 31.75 54.97Z" />
	<path id="Layer copy 23" fill-rule="evenodd" class="shp1" d="M44.03 55.26C43.96 55.33 43.92 55.44 43.94 55.54L44.35 57.95C44.4 58.22 44.29 58.49 44.07 58.65C43.94 58.74 43.8 58.79 43.65 58.79C43.53 58.79 43.42 58.76 43.31 58.71L41.15 57.57C41.06 57.52 40.95 57.52 40.85 57.57L38.69 58.71C38.44 58.84 38.15 58.81 37.93 58.65C37.71 58.49 37.6 58.22 37.65 57.95L38.06 55.54C38.08 55.44 38.04 55.33 37.97 55.26L36.22 53.55C36.02 53.36 35.95 53.08 36.04 52.82C36.12 52.55 36.34 52.37 36.61 52.33L39.04 51.98C39.14 51.96 39.23 51.9 39.27 51.8L40.36 49.61C40.48 49.36 40.73 49.21 41 49.21C41.28 49.21 41.52 49.36 41.64 49.61L42.73 51.8C42.77 51.9 42.86 51.96 42.96 51.98L45.39 52.33C45.66 52.37 45.88 52.55 45.96 52.82C46.05 53.08 45.98 53.36 45.78 53.55L44.03 55.26ZM43.75 54.97L45.5 53.26C45.59 53.18 45.62 53.06 45.58 52.94C45.55 52.82 45.45 52.74 45.33 52.72L42.91 52.37C42.67 52.34 42.47 52.19 42.37 51.98L41.28 49.79C41.23 49.68 41.12 49.61 41 49.61C40.88 49.61 40.77 49.68 40.72 49.79L39.63 51.98C39.53 52.19 39.33 52.34 39.09 52.37L36.67 52.72C36.55 52.74 36.45 52.82 36.42 52.94C36.38 53.06 36.41 53.18 36.5 53.26L38.25 54.97C38.42 55.14 38.5 55.37 38.46 55.61L38.04 58.02C38.02 58.14 38.07 58.26 38.17 58.33C38.27 58.4 38.39 58.41 38.5 58.35L40.67 57.21C40.77 57.16 40.89 57.13 41 57.13C41.11 57.13 41.23 57.16 41.33 57.21L43.5 58.35C43.61 58.41 43.73 58.4 43.83 58.33C43.93 58.26 43.98 58.14 43.96 58.02L43.55 55.61C43.51 55.37 43.58 55.14 43.75 54.97Z" />
	<path id="Layer copy 24" fill-rule="evenodd" class="shp1" d="M20.03 55.26C19.96 55.33 19.92 55.44 19.94 55.54L20.35 57.95C20.4 58.22 20.29 58.49 20.07 58.65C19.94 58.74 19.8 58.79 19.65 58.79C19.53 58.79 19.42 58.76 19.31 58.71L17.15 57.57C17.06 57.52 16.95 57.52 16.85 57.57L14.69 58.71C14.44 58.84 14.15 58.81 13.93 58.65C13.71 58.49 13.6 58.22 13.65 57.95L14.06 55.54C14.08 55.44 14.04 55.33 13.97 55.26L12.22 53.55C12.02 53.36 11.95 53.08 12.04 52.82C12.12 52.55 12.34 52.37 12.61 52.33L15.04 51.98C15.14 51.96 15.23 51.9 15.27 51.8L16.36 49.61C16.48 49.36 16.73 49.21 17 49.21C17.28 49.21 17.52 49.36 17.64 49.61L18.73 51.8C18.77 51.9 18.86 51.96 18.96 51.98L21.39 52.33C21.66 52.37 21.88 52.55 21.96 52.82C22.05 53.08 21.98 53.36 21.78 53.55L20.03 55.26ZM19.75 54.97L21.5 53.26C21.59 53.18 21.62 53.06 21.58 52.94C21.55 52.82 21.45 52.74 21.33 52.72L18.91 52.37C18.67 52.34 18.47 52.19 18.37 51.98L17.28 49.79C17.23 49.68 17.12 49.61 17 49.61C16.88 49.61 16.77 49.68 16.72 49.79L15.63 51.98C15.53 52.19 15.33 52.34 15.09 52.37L12.67 52.72C12.55 52.74 12.45 52.82 12.42 52.94C12.38 53.06 12.41 53.18 12.5 53.26L14.25 54.97C14.42 55.14 14.5 55.37 14.46 55.61L14.04 58.02C14.02 58.14 14.07 58.26 14.17 58.33C14.27 58.4 14.39 58.41 14.5 58.35L16.67 57.21C16.77 57.16 16.89 57.13 17 57.13C17.11 57.13 17.23 57.16 17.33 57.21L19.5 58.35C19.61 58.41 19.73 58.4 19.83 58.33C19.93 58.26 19.98 58.14 19.96 58.02L19.55 55.61C19.51 55.37 19.58 55.14 19.75 54.97Z" />
</svg>