<svg width="15" height="16" viewBox="0 0 15 16" fill="none" xmlns="http://www.w3.org/2000/svg">
<g opacity="0.5">
<path fill-rule="evenodd" clip-rule="evenodd" d="M0 6.83899C0 3.19525 2.9634 0.230652 6.60567 0.230652C10.2481 0.230652 13.2113 3.19525 13.2113 6.83899C13.2113 10.4829 10.2481 13.4473 6.60567 13.4473C2.9634 13.4473 0 10.4829 0 6.83899ZM1.21948 6.83849C1.21948 9.80958 3.63573 12.2268 6.60564 12.2268C9.57554 12.2268 11.9918 9.80955 11.9918 6.83846C11.9918 3.86736 9.57554 1.45013 6.60564 1.45013C3.63573 1.45013 1.21948 3.86739 1.21948 6.83849Z" fill="black"/>
<path d="M14.821 14.1957L11.325 10.6983C11.0868 10.46 10.7011 10.46 10.4628 10.6983C10.2246 10.9364 10.2246 11.3228 10.4628 11.5609L13.9588 15.0582C14.0779 15.1774 14.2338 15.2369 14.3899 15.2369C14.5458 15.2369 14.7019 15.1774 14.821 15.0582C15.0592 14.8201 15.0592 14.4338 14.821 14.1957Z" fill="black"/>
</g>
</svg>
