<svg width="12" height="12" viewBox="0 0 12 12" fill="none" xmlns="http://www.w3.org/2000/svg">
<g opacity="0.5">
<path fill-rule="evenodd" clip-rule="evenodd" d="M0 5.28435C0 2.37064 2.37067 0 5.28442 0C8.19834 0 10.5688 2.37064 10.5688 5.28435C10.5688 8.19822 8.19834 10.5687 5.28442 10.5687C2.37067 10.5687 0 8.19822 0 5.28435ZM0.975348 5.28436C0.975348 7.66019 2.90831 9.59312 5.28418 9.59312C7.66006 9.59312 9.59302 7.66017 9.59302 5.28434C9.59302 2.9085 7.66006 0.975574 5.28418 0.975574C2.90831 0.975574 0.975348 2.90853 0.975348 5.28436Z" fill="black"/>
<path d="M11.8569 11.1671L9.06021 8.37046C8.86965 8.1799 8.56103 8.1799 8.37046 8.37046C8.1799 8.56086 8.1799 8.8698 8.37046 9.0602L11.1672 11.8568C11.2624 11.9521 11.3872 11.9998 11.512 11.9998C11.6367 11.9998 11.7616 11.9521 11.8569 11.8568C12.0475 11.6664 12.0475 11.3575 11.8569 11.1671Z" fill="black"/>
</g>
</svg>
