<svg width="16" height="14" viewBox="0 0 16 14" fill="none" xmlns="http://www.w3.org/2000/svg">
<path d="M15.0471 5.57345L2.13792 0.21689C1.59408 -0.00879738 0.979669 0.090484 0.534513 0.475859C0.0893569 0.861296 -0.0968305 1.45517 0.0486695 2.0257L1.1977 6.5317H6.82351C7.08239 6.5317 7.29229 6.74158 7.29229 7.00048C7.29229 7.25936 7.08242 7.46927 6.82351 7.46927H1.1977L0.0486695 11.9752C-0.0968305 12.5458 0.0893257 13.1397 0.534513 13.5251C0.980576 13.9112 1.59504 14.0093 2.13795 13.784L15.0471 8.42752C15.6349 8.18364 16 7.63683 16 7.00048C16 6.36414 15.6349 5.8173 15.0471 5.57345Z" fill="#FF782D"/>
</svg>
