<svg width="30" height="28" viewBox="0 0 30 28" fill="none" xmlns="http://www.w3.org/2000/svg">
<path d="M24.75 17C22.7881 17 21.0942 18.0947 20.1932 19.6934L10.3605 15.9117C10.4458 15.5367 10.5 15.1504 10.5 14.75C10.5 14.2305 10.4008 13.7385 10.2596 13.2642L20.355 8.60429C21.2925 10.0427 22.9088 11 24.7499 11C27.6445 11 29.9999 8.64451 29.9999 5.74996C29.9999 2.85541 27.6445 0.499939 24.7499 0.499939C21.8554 0.499939 19.5 2.85541 19.5 5.74996C19.5 6.26943 19.5991 6.7614 19.7403 7.23566L9.6449 11.8956C8.70742 10.4572 7.09115 9.49993 5.25002 9.49993C2.35547 9.49993 0 11.8554 0 14.75C0 17.6445 2.35547 20 5.25002 20C7.21188 20 8.90584 18.9052 9.80676 17.3065L19.6395 21.0883C19.5542 21.4632 19.5 21.8495 19.5 22.25C19.5 25.1445 21.8555 27.5 24.7501 27.5C27.6446 27.5 30.0001 25.1445 30.0001 22.25C30 19.3554 27.6445 17 24.75 17ZM24.75 1.99998C26.8176 1.99998 28.5 3.68235 28.5 5.74996C28.5 7.81757 26.8176 9.49993 24.75 9.49993C22.6824 9.49993 21 7.81757 21 5.74996C21 3.68235 22.6824 1.99998 24.75 1.99998ZM5.25002 18.4999C3.18241 18.4999 1.50005 16.8176 1.50005 14.75C1.50005 12.6823 3.18241 11 5.25002 11C7.31763 11 8.99999 12.6823 8.99999 14.75C8.99999 16.8176 7.31763 18.4999 5.25002 18.4999ZM24.75 25.9999C22.6824 25.9999 21 24.3176 21 22.25C21 20.1824 22.6824 18.5 24.75 18.5C26.8176 18.5 28.5 20.1824 28.5 22.25C28.5 24.3176 26.8176 25.9999 24.75 25.9999Z" fill="#071A30"/>
</svg>
