<svg width="11" height="16" viewBox="0 0 11 16" fill="none" xmlns="http://www.w3.org/2000/svg">
<path d="M5.25695 0.0976639L0.10072 5.09766C0.00268757 5.19338 -0.0271865 5.33563 0.0261806 5.46094C0.0792253 5.58563 0.20478 5.66666 0.34374 5.66666H1.03123C1.12252 5.66666 1.20983 5.63151 1.27428 5.56901L4.81249 2.13801L4.81249 15.6667C4.81252 15.8509 4.96624 16 5.15625 16H5.84373C6.03374 16 6.18749 15.8509 6.18749 15.6667L6.18749 2.13801L9.7257 5.56901C9.79015 5.63151 9.87742 5.66666 9.96875 5.66666L10.6562 5.66666C10.7952 5.66666 10.9208 5.5856 10.9738 5.46094C10.9916 5.4196 11 5.37632 11 5.33335C11 5.24675 10.9651 5.16147 10.8993 5.09766L5.74306 0.0976639C5.60877 -0.0325546 5.39124 -0.0325546 5.25695 0.0976639Z" fill="#F3B18D"/>
</svg>
