<svg width="16" height="19" viewBox="0 0 16 19" fill="none" xmlns="http://www.w3.org/2000/svg">
<g opacity="0.7">
<g clip-path="url(#clip0)">
<path d="M7.88599 8.70726C8.94482 8.70726 9.86157 8.3275 10.6108 7.57823C11.3599 6.82909 11.7397 5.91247 11.7397 4.85351C11.7397 3.79492 11.36 2.87817 10.6107 2.12878C9.86145 1.37976 8.9447 1 7.88599 1C6.82703 1 5.9104 1.37976 5.16125 2.1289C4.41211 2.87805 4.03223 3.79479 4.03223 4.85351C4.03223 5.91247 4.41211 6.82921 5.16125 7.57836C5.91064 8.32738 6.82739 8.70726 7.88599 8.70726ZM5.82434 2.79187C6.39917 2.21704 7.07349 1.93762 7.88599 1.93762C8.69836 1.93762 9.3728 2.21704 9.94775 2.79187C10.5226 3.36682 10.8021 4.04125 10.8021 4.85351C10.8021 5.66601 10.5226 6.34032 9.94775 6.91527C9.3728 7.49022 8.69836 7.76964 7.88599 7.76964C7.07373 7.76964 6.39941 7.4901 5.82434 6.91527C5.24939 6.34044 4.96985 5.66601 4.96985 4.85351C4.96985 4.04125 5.24939 3.36682 5.82434 2.79187Z" fill="#071A30" stroke="#071A30"/>
<path d="M14.629 15.3031C14.6074 14.9913 14.5637 14.6512 14.4994 14.2921C14.4344 13.9303 14.3508 13.5883 14.2507 13.2756C14.1472 12.9525 14.0067 12.6334 13.8328 12.3276C13.6525 12.0103 13.4406 11.7339 13.2028 11.5065C12.9541 11.2686 12.6497 11.0773 12.2976 10.9377C11.9468 10.799 11.558 10.7286 11.1421 10.7286C10.9788 10.7286 10.8208 10.7957 10.5157 10.9943C10.328 11.1167 10.1084 11.2583 9.86328 11.4149C9.65369 11.5485 9.36975 11.6736 9.01904 11.7869C8.67688 11.8976 8.32947 11.9537 7.98645 11.9537C7.64368 11.9537 7.29626 11.8976 6.95386 11.7869C6.60352 11.6737 6.31946 11.5486 6.11023 11.415C5.86743 11.2599 5.64771 11.1183 5.45715 10.9941C5.15234 10.7955 4.99438 10.7285 4.83105 10.7285C4.41504 10.7285 4.02637 10.799 3.67566 10.9379C3.32385 11.0771 3.01929 11.2684 2.77039 11.5066C2.53259 11.7341 2.32068 12.0104 2.1405 12.3276C1.9668 12.6334 1.82617 12.9524 1.72266 13.2758C1.62268 13.5884 1.53906 13.9303 1.47412 14.2921C1.40967 14.6507 1.36609 14.991 1.34448 15.3035C1.32324 15.609 1.3125 15.927 1.3125 16.2483C1.3125 17.0835 1.578 17.7596 2.10156 18.2583C2.61865 18.7504 3.30273 18.9999 4.13489 18.9999H11.839C12.6709 18.9999 13.355 18.7504 13.8722 18.2583C14.3959 17.76 14.6614 17.0836 14.6614 16.2482C14.6613 15.9258 14.6504 15.6078 14.629 15.3031ZM13.2257 17.579C12.884 17.9042 12.4304 18.0622 11.8389 18.0622H4.13489C3.54321 18.0622 3.0896 17.9042 2.74805 17.5791C2.41296 17.2601 2.25012 16.8247 2.25012 16.2483C2.25012 15.9485 2.26001 15.6525 2.27979 15.3683C2.29907 15.0895 2.3385 14.7832 2.39697 14.4578C2.45471 14.1363 2.5282 13.8347 2.6156 13.5616C2.69946 13.2998 2.81384 13.0405 2.95569 12.7908C3.09106 12.5527 3.24683 12.3485 3.4187 12.184C3.57947 12.03 3.7821 11.9041 4.02087 11.8096C4.2417 11.7222 4.48987 11.6743 4.75928 11.6671C4.79211 11.6846 4.85059 11.7179 4.94531 11.7797C5.13806 11.9053 5.36023 12.0486 5.60583 12.2054C5.88269 12.382 6.23938 12.5414 6.66553 12.679C7.1012 12.8198 7.54553 12.8914 7.98657 12.8914C8.42761 12.8914 8.87207 12.8198 9.3075 12.6791C9.73401 12.5413 10.0906 12.382 10.3678 12.2052C10.6191 12.0446 10.8351 11.9054 11.0278 11.7797C11.1226 11.718 11.181 11.6846 11.2139 11.6671C11.4834 11.6743 11.7316 11.7222 11.9525 11.8096C12.1912 11.9041 12.3938 12.0301 12.5546 12.184C12.7264 12.3484 12.8822 12.5526 13.0176 12.7909C13.1595 13.0405 13.274 13.2999 13.3578 13.5615C13.4453 13.835 13.5189 14.1365 13.5765 14.4576C13.6349 14.7837 13.6744 15.0901 13.6937 15.3684V15.3686C13.7136 15.6517 13.7236 15.9476 13.7238 16.2483C13.7236 16.8248 13.5608 17.2601 13.2257 17.579Z" fill="#071A30" stroke="#071A30"/>
</g>
</g>
<defs>
<clipPath id="clip0">
<rect width="16" height="19" fill="white"/>
</clipPath>
</defs>
</svg>
