<svg width="54" height="54" viewBox="0 0 54 54" fill="none" xmlns="http://www.w3.org/2000/svg">
<g clip-path="url(#clip0)">
<path d="M49.3268 29.0768V22.3268C49.3268 19.7503 47.2306 17.6537 44.6537 17.6537H42.4376L45.1073 8.75514C45.2296 8.34769 45.1798 7.90727 44.9692 7.53731C44.7587 7.16734 44.4061 6.89955 43.9932 6.79655L36.8654 5.01471V1.55772C36.8654 0.697495 36.168 0 35.3077 0H8.30772C7.44749 0 6.75 0.697495 6.75 1.55772V17.6537H4.67317C2.09619 17.6537 0 19.7503 0 22.3268V49.3268C0 51.9038 2.09619 54 4.67317 54H44.6537C47.2306 54 49.3268 51.9038 49.3268 49.3268V42.5768C51.9038 42.5768 54 40.4806 54 37.9037V33.75C54 31.1734 51.9038 29.0768 49.3268 29.0768ZM41.6544 9.42297L39.3411 17.1346H36.8654V8.22574L41.6544 9.42297ZM9.86545 3.11545H33.75V17.6537H9.86545V3.11545ZM46.2114 49.3268C46.2114 50.1858 45.5126 50.8846 44.6537 50.8846H4.67317C3.81418 50.8846 3.11545 50.1858 3.11545 49.3268V22.3268C3.11545 21.4678 3.81418 20.7691 4.67317 20.7691H44.6537C45.5126 20.7691 46.2114 21.4678 46.2114 22.3268V29.0768H40.5C37.9234 29.0768 35.8268 31.1734 35.8268 33.75V37.9037C35.8268 40.4806 37.9234 42.5768 40.5 42.5768H46.2114V49.3268ZM50.8846 37.9037C50.8846 38.7626 50.1858 39.4614 49.3268 39.4614H40.5C39.641 39.4614 38.9423 38.7626 38.9423 37.9037V33.75C38.9423 32.891 39.641 32.1923 40.5 32.1923H49.3268C50.1858 32.1923 50.8846 32.891 50.8846 33.75V37.9037Z" fill="#E77B7E"/>
<path d="M45.6921 34.2691H45.173C44.3127 34.2691 43.6152 34.9666 43.6152 35.8268C43.6152 36.6871 44.3127 37.3846 45.173 37.3846H45.6921C46.5523 37.3846 47.2498 36.6871 47.2498 35.8268C47.2498 34.9666 46.5523 34.2691 45.6921 34.2691Z" fill="#E77B7E"/>
<path d="M30.1151 8.30771H28.5574C28.2711 8.30771 28.0383 8.07494 28.0383 7.7886V6.74998C28.0383 5.88976 27.3408 5.19226 26.4806 5.19226C25.6203 5.19226 24.9229 5.88976 24.9229 6.74998V7.7886C24.9229 9.79251 26.5531 11.4232 28.5574 11.4232H30.1151C30.9754 11.4232 31.6729 10.7257 31.6729 9.86543C31.6729 9.0052 30.9754 8.30771 30.1151 8.30771Z" fill="#E77B7E"/>
<path d="M17.1347 5.19226C16.2744 5.19226 15.5769 5.88976 15.5769 6.74998V7.7886C15.5769 8.07494 15.3442 8.30771 15.0578 8.30771H13.5001C12.6399 8.30771 11.9424 9.0052 11.9424 9.86543C11.9424 10.7257 12.6399 11.4232 13.5001 11.4232H15.0578C17.0617 11.4232 18.6924 9.79251 18.6924 7.7886V6.74998C18.6924 5.88976 17.9949 5.19226 17.1347 5.19226Z" fill="#E77B7E"/>
</g>
<defs>
<clipPath id="clip0">
<rect width="54" height="54" fill="white"/>
</clipPath>
</defs>
</svg>
