<svg width="16" height="16" viewBox="0 0 16 16" fill="none" xmlns="http://www.w3.org/2000/svg">
<path d="M8.00344 0C3.5907 0 0.0019635 3.58726 4.26461e-07 7.9968C-0.00049031 9.50787 0.422551 10.9794 1.22324 12.2527L1.41341 12.5553L0.605117 15.5065L3.63291 14.7125L3.92516 14.8857C5.1533 15.6145 6.56132 16 7.99681 16.0005H8C12.4093 16.0005 15.998 12.413 16 8.00318C16.0007 5.86613 15.1694 3.85694 13.659 2.34537C12.1487 0.833813 10.14 0.000736166 8.00344 0ZM12.7089 11.4351C12.5084 11.9965 11.5478 12.5092 11.0857 12.5784C10.6712 12.6402 10.1471 12.666 9.57095 12.4831C9.22152 12.3722 8.77369 12.2243 8.19974 11.9767C5.78737 10.9353 4.21177 8.50695 4.09153 8.34647C3.97129 8.18599 3.1095 7.04275 3.1095 5.85926C3.1095 4.67603 3.73081 4.09422 3.95117 3.85375C4.17177 3.61302 4.43237 3.55291 4.5926 3.55291C4.75284 3.55291 4.91332 3.55438 5.05343 3.56125C5.20115 3.56861 5.39942 3.50506 5.5945 3.97398C5.79498 4.45543 6.27593 5.63866 6.33605 5.7589C6.39617 5.87939 6.43617 6.01974 6.35617 6.18023C6.27593 6.34071 6.00945 6.68694 5.75498 7.0025C5.64824 7.13477 5.50911 7.25255 5.64947 7.49327C5.78958 7.73375 6.2725 8.52118 6.9873 9.15869C7.90602 9.97778 8.68094 10.2315 8.92142 10.352C9.16165 10.4722 9.30201 10.4521 9.44236 10.2919C9.58248 10.1314 10.0436 9.58983 10.2038 9.34911C10.364 9.10839 10.5245 9.14863 10.7449 9.22887C10.9655 9.30886 12.1477 9.89067 12.3882 10.0109C12.6287 10.1314 12.7889 10.1915 12.849 10.2919C12.9094 10.3922 12.9094 10.8734 12.7089 11.4351Z" fill="#25C942"/>
</svg>
